<svg xmlns="http://www.w3.org/2000/svg" xmlns:xlink="http://www.w3.org/1999/xlink" preserveAspectRatio="xMidYMid meet" version="1.0" viewBox="104.5 9.6 346.0 475.7" zoomAndPan="magnify" style="fill: rgb(0, 0, 0);" original_string_length="11923" width="207.63152993159838px" height="285.4933536559478px"><g id="__id127_snyoekyku7"><path d="M437.860565,128.510635c-6.698486-21.363869-18.750763-44.296837-41.640747-51.202232 c-23.150604-6.130646-46.05423,3.72168-62.135254,20.383514c-3.550323-0.187187-7.103333-0.066711-10.586456,0.364624 c-8.162842,1.022171-15.84906,3.137413-22.9505,6.177147c-0.004181-6.30838-0.337128-12.598038-0.955566-18.794502 c-2.88678-42.411503-27.031708-73.397301-72.075119-70.730446c-13.334152,0.974977-27.076324,4.572196-38.282196,12.043836 c-12.875336,9.838984-22.787704,23.498224-29.768661,38.033669c-6.200043,15.32901-9.162613,33.812653-8.53772,52.44445 c-7.725937,3.036049-14.911423,8.008713-20.991882,15.169899c-12.799065,13.77713-21.580231,31.686752-22.501045,50.625534 c-2.944046,34.29306,11.046654,69.612091,37.004631,92.288269c11.820801,9.724274,27.879242,11.467133,42.564438,13.257782 c2.606903-0.011841,5.459061,0.173645,8.183548-0.108124c-0.603882,0.460388-1.194626,0.93692-1.776505,1.409485 c-13.856781,12.465607-27.768524,36.605255-19.888657,55.331543c3.487595,7.522614,10.50769,12.416443,15.967453,18.398621 c4.94278,5.372131,9.013351,11.724213,10.6884,18.902618c1.738174,7.057251,0.7845,14.135376-1.376343,21.073242 c-2.089752,7.062103-4.72583,14.060791-6.25769,21.283722c-1.794724,7.855469-0.199539,16.479919,5.330902,22.52005 c7.312729,7.986755,16.377579,14.174652,24.647949,21.115356c1.818024,1.275421,3.563965-1.428131,1.918198-2.641815 c-7.704727-6.371246-15.8396-12.204437-22.936462-19.305542c-4.102432-4.116425-6.717209-9.917206-6.385147-15.837006 c1.456894-18.190796,14.322861-34.184326,7.017914-53.051331c-2.449203-6.82663-6.779251-12.83847-11.871292-17.947968 c-6.537384-6.616913-15.056091-12.962433-15.657379-23.037903c-0.934357-12.631378,4.864227-24.791718,12.244858-34.823486 c3.030777-3.821838,6.151367-7.725037,10.09816-10.630157c-0.322601,2.362091-0.508789,4.608856-0.846024,5.744537 c-1.314911,5.010681,1.648453,10.449127,7.083908,10.848999c11.497009,1.668579,11.790146-11.983887,6.741013-18.957672 c-0.888855-1.018616-1.991486-2.914398-3.269547-4.347382c10.194443-5.262909,18.568573-20.572998,24.439743-29.168671 c4.195633-6.618927,7.281662-13.778824,9.546463-21.216904c2.667435,7.199814,3.296219,15.289383,1.912613,23.178024 c-3.164001,18.635468-12.854828,35.675873-15.385956,54.461517c-3.933075,24.423615,16.450638,33.844208,16.661636,55.143951 c-0.480621,10.695282-7.177917,19.668121-11.490143,29.10553c-8.637482,16.424866-11.829163,33.167938,1.051651,48.462097 c2.506943,3.270203,5.085861,6.490692,7.863037,9.536316c0.299606,0.33139,0.662735,0.557587,1.118454,0.602234 c1.36618,0.204956,2.357193-1.646881,1.417862-2.651123c-3.501236-3.828552-6.646805-7.952271-9.785416-12.076752 c-11.214828-15.255707-4.638214-31.621124,3.311462-46.552277c4.143356-8.187439,9.289154-16.420776,9.755737-25.824249 c0.434326-23.196808-21.561615-32.079956-16.325684-57.768982c3.498947-20.19046,14.831253-38.74826,15.755356-59.470413 c0.167969-7.222321-1.268509-14.684998-4.443848-21.234131c1.752502-6.961746,2.847763-14.111877,3.492966-21.255844 c1.824493-0.820145,3.608963-1.73378,5.35321-2.72847c1.286438,24.056,7.920685,47.626617,22.312164,67.479019 c0.087616,0.16629,0.19397,0.31485,0.288452,0.474762c-3.333252,0.288727-7.040497,1.469421-8.958984,2.081787 c-14.619385,5.330109-6.363342,18.018036,3.361542,23.387604c9.525146,4.424835,13.728516-5.638092,13.707428-14.574585 c6.284576,7.947388,8.010803,19.61026,5.39801,29.239746c-1.657013,5.725708-5.506256,10.713989-9.042725,15.491516 c-3.579407,4.695953-7.410706,9.206329-10.893433,13.977844c-7.77951,10.945099-10.45163,18.382294-4.836548,31.176971 c4.019592,10.345306,9.460327,21.009003,7.687805,32.433716c-1.31073,7.612823-4.558868,14.718872-6.967926,22.018433 c-1.874878,5.42572-3.623505,10.931763-4.706207,16.57782c-1.094177,5.683228-1.437988,11.473633-1.844727,17.237335 c-0.318604,4.881256-0.614929,9.762451-0.77742,14.653229c-0.028671,0.885864,0.551315,1.68869,1.475296,1.771637 c0.849426,0.079041,1.745544-0.583374,1.774719-1.475311c0.159302-4.756897,0.439606-9.504333,0.751953-14.251831 c0.47702-10.120972,1.776703-20.185913,5.177856-29.78772c4.45871-14.205688,11.783875-26.450439,7.302185-41.777466 c-2.216309-8.934692-6.953094-16.94751-9.230804-25.879028c-1.929565-7.852966,2.874634-15.234985,7.268311-21.356384 c6.595337-9.272247,15.245178-17.455292,19.439392-28.210419c4.135101-12.202942,1.383301-27.121643-7.657715-36.46756 c3.595825,1.265442,7.598663,1.805695,11.04425,2.160156c21.235718,1.917084,34.524872-3.632263,49.259338-15.180054 c3.591949,2.989166,7.486969,5.731262,11.714874,8.177582c1.338287,0.528107,2.822571,1.002472,4.364288,1.356232 c-0.095978,0.14566-0.191162,0.291046-0.284973,0.435211c-0.114105,0.183014-0.22522,0.36911-0.338226,0.553192 c-11.625732,4.449921-23.65683,18.594482-26.768951,29.294128c-3.02887,9.773682,1.847198,19.30838,4.21167,28.649323 c2.010986,7.822601,1.23465,16.222046-2.178192,23.54303c-3.17514,6.925598-8.287903,12.675293-13.210571,18.398102 c-7.435577,8.588196-15.201569,16.913544-22.083649,25.964355c-8.576752,11.479858-13.186981,21.825775-9.870361,36.335419 c1.947662,7.384552,0.350586,13.775635-2.897034,20.544556c-3.510406,7.673218-7.246521,15.396484-10.759399,23.100006 c-0.41629,0.780518-0.118683,1.792938,0.665924,2.208038c0.751831,0.401947,1.838623,0.139008,2.207916-0.665924 c1.69516-3.69281,3.406067-7.37616,5.136169-11.052979c2.289978-4.961853,4.735168-9.858795,6.869537-14.889008 c9.234406-21.189972-8.638-25.410889,9.482239-51.141754c6.915527-9.730835,15.186005-18.399689,22.97876-27.420532 c5.825684-6.781311,12.012177-13.58902,15.30014-22.038849c3.703552-8.89386,3.369995-18.895142,0.334259-27.927032 c-2.829865-8.651123-6.126862-17.757874-1.614807-26.505707c3.256104-7.176392,11.122406-16.675873,19.457214-21.475372 c-0.9245,1.895477-1.709686,3.854095-2.259613,5.882629c-0.561462,4.791748,1.969879,8.624237,6.869659,9.322601 c9.183411,2.060486,17.769928-6.029877,15.385742-15.328796c-0.563049-2.811218-2.054596-5.215302-3.837067-7.399353 c11.187531-3.010956,20.844513-10.031555,29.157593-17.909821c6.615265-6.289368,14.311737-11.72403,19.190399-19.58876 C439.228638,205.061279,450.519257,164.836197,437.860565,128.510635z M204.986801,303.100739 c-1.959915-0.022583-4.423248-0.871307-4.244919-3.242432c0.295822-3.874237,1.008835-7.720581,1.857056-11.514435 c0.10614-0.226532,0.156128-0.446777,0.160904-0.658051C206.08963,290.826202,212.265579,301.525574,204.986801,303.100739z M228.093719,250.841202c-4.635925,7.990982-10.078049,15.494492-15.873642,22.679367 c-2.902634,4.097443-7.067001,6.585876-11.64566,8.344666c-0.818863-0.114716-1.653549,0.200714-2.195297,0.812469 c-4.161179,1.465668-8.781067,1.166138-13.120667,0.84433c-11.435379-1.647247-23.915619-3.052368-34.019165-9.268646 c-27.069946-20.509567-41.417305-56.05162-38.995895-89.640549c0.532196-16.616028,7.474922-32.534286,18.059479-45.208984 c5.987473-7.978943,13.155823-13.52253,20.901474-16.900894c2.053802,29.334549,13.077957,58.333649,34.445999,75.265701 c8.710281,6.858704,19.449768,13.374878,30.722137,14.221603c-1.599274,3.478241-3.143677,6.984451-4.597687,10.523026 c-2.053696,3.836578-1.636902,6.694305,2.68338,8.344452c7.776016,4.540833,14.531769-3.142975,13.132629-10.951263 c-0.167679-0.738892-0.290253-1.881943-0.443787-3.174545c4.277878,2.862991,7.693481,6.533691,10.26265,10.719177 C235.411819,235.610565,232.490768,243.505463,228.093719,250.841202z M221.008804,226.722366 c-0.45105,0.33783-1.075745,0.590927-1.639496,0.583374c-1.31102-0.131638-2.552643-0.73024-3.712021-1.329453 c1.669968-4.284943,3.57431-8.477585,5.469604-12.665543c0.102951,0.303391,0.283569,0.573822,0.518356,0.777237 C222.535599,218.279831,224.10788,223.377441,221.008804,226.722366z M238.405853,222.985641 c-1.562225-2.100998-3.344803-4.043289-5.384583-5.751083c-1.027451-0.763092-3.688919-3.045517-6.250229-4.621094 c2.417938-0.154022,4.913727-0.758804,7.150238-1.083603c2.227356-0.433517,4.40332-1.03392,6.53688-1.752609 C239.951569,214.210846,239.293716,218.627319,238.405853,222.985641z M245.990601,202.042053c0-0.00029,0-0.000488,0-0.000687 c-0.745773,0.377258-1.501694,0.73381-2.26239,1.078522c-0.234985,0.106537-0.472763,0.206512-0.70903,0.30986 c-0.554108,0.242142-1.110901,0.477722-1.67186,0.702057c-5.542603,2.220688-11.428101,3.568848-17.602463,3.787003 c-0.459106-0.152451-0.985535-0.155838-1.586426,0.016724c-0.283783-0.240067-0.624802-0.424072-1.007538-0.515869 c-12.824356-0.028671-24.431778-6.700577-34.079498-14.780777c-19.964722-17.232864-29.528503-44.560394-31.047623-72.041573 c-0.001099-0.018623-0.001694-0.037239-0.002686-0.055763c-0.067719-1.236046-0.115112-2.472092-0.150558-3.707741 c-0.005966-0.205803-0.012939-0.411812-0.018021-0.617523c-0.366913-15.028107,1.633026-29.944305,5.620956-43.120438 c3.877609-11.527668,10.849014-21.761742,18.616974-31.017654c7.344177-9.147579,17.367966-15.994722,28.800049-18.954702 c46.626755-13.570025,81.005966,10.667398,85.415543,58.798134c0.854004,8.088867,1.330139,16.363029,1.255066,24.644661 c-24.382996,12.460228-40.770798,36.520813-43.331909,65.811554c-1.14743,8.92514-1.691483,17.987091-1.518021,27.016785 C249.16983,200.341919,247.598434,201.231567,245.990601,202.042053z M272.49939,294.636108 c-3.420685,0.001495-5.987061-3.275421-8.319977-5.438354c-8.512115-8.195587,5.415466-11.38559,11.808777-11.242096 C276.631104,283.209686,278.043182,291.689087,272.49939,294.636108z M309.513763,276.254333 c-10.641785,0.471558-23.437592,2.294067-31.986267-5.508942c-14.754883-22.309174-21.195496-44.237305-21.888977-68.954346 c-0.000702-0.027283-0.0009-0.054962-0.001694-0.082352c-0.025284-0.919708-0.042221-1.843506-0.051773-2.771194 c-0.008072-0.843246-0.008865-1.690369-0.003586-2.54039c0.025391-5.227859,0.287155-10.584061,0.770645-16.101563 c1.191071-30.295792,15.390747-55.331154,39.55719-68.419266c0.329468-0.178627,0.663605-0.35128,0.996765-0.525322 c0.637756-0.332962,1.281555-0.658745,1.932831-0.97538c0.320831-0.155922,0.642029-0.311546,0.966125-0.463585 c7.251678-3.398285,15.309692-5.785347,24.113556-6.986938c1.959503-0.260078,3.927094-0.405052,5.891571-0.450554 c-5.906097,7.136787-10.624756,15.226456-13.73172,23.684715c-14.708984,44.192497-12.864075,103.647484,22.419708,136.785278 C329.884644,269.669739,320.604523,275.271393,309.513763,276.254333z M361.978149,292.245453 c-5.852753,0.010162-4.823822-4.118439-2.812927-7.970276c0.952484-1.740051,1.839844-3.636841,2.92572-5.369141 c0.37915-0.071472,3.988617-2.730682,4.268127-2.786224c1.957703,2.219177,3.737305,4.659119,4.047363,7.692566 C370.969696,288.622467,366.759338,292.73175,361.978149,292.245453z M417.349426,230.976044 c-6.417908,10.950165-17.070282,18.354797-26.233185,26.856171c-6.136719,5.087463-13.18689,9.286072-20.865723,11.534454 c-1.101654,0.395569-2.484344,0.400757-3.689941,0.696564c-0.549622-0.06311-1.118744-0.026093-1.634705,0.100677 c-0.989105,0.190186-1.862732,0.595032-2.648132,1.137573c-6.34491-0.466187-11.735382-3.710724-16.512482-7.993286 c-0.586151-0.525116-1.163452-1.064392-1.731689-1.617401c-0.016327-0.01593-0.032471-0.032257-0.048889-0.048187 c-0.580505-0.566132-1.15271-1.14444-1.716675-1.73349c-0.000092,0.000092-0.000183,0.000214-0.000305,0.000214 c-3.634155-3.796356-6.924713-7.979645-10.05246-11.622467c-23.041901-31.256226-23.12674-73.476364-14.818909-109.95018 c2.920959-12.967041,9.645416-25.605507,18.87027-35.754051c0.622589-0.685532,1.256165-1.359612,1.90097-2.020943 c0.067993-0.069702,0.13681-0.138504,0.205109-0.208c0.664124-0.675972,1.337799-1.341293,2.024628-1.990974 c14.478088-13.702156,33.89151-21.429688,54.207306-16.438705c21.193726,6.34462,32.051086,27.7519,38.374603,47.402191 C445.189941,163.403503,434.968811,200.627289,417.349426,230.976044z" style="fill: inherit;"/></g></svg>