<svg xmlns="http://www.w3.org/2000/svg" xmlns:xlink="http://www.w3.org/1999/xlink" preserveAspectRatio="xMidYMid meet" version="1.0" viewBox="-0.1 -4.1 641.8 1682.9" zoomAndPan="magnify" style="fill: rgb(180, 180, 180);" original_string_length="43690" width="40.81731148002974px" height="107.00239130979756px"><g id="__id15_snyoekyku7"><path d="m353.73 1678.2c-0.77344-0.4641-2.677-1.3103-4.2302-1.8802-8.5014-3.1198-8.4715-2.9788-9.3615-44.119-0.46007-21.266-0.93601-36.336-2.8423-90-0.28391-7.9922-0.85703-22.547-1.2736-32.344-0.41656-9.7969-0.75285-19.078-0.7473-20.625 0.0281-7.834-1.4805-56.441-2.677-86.25-1.5983-39.821-3.0935-80.503-3.7041-100.78-0.88106-29.26-1.4924-44.596-1.8874-47.344-0.22236-1.5469-0.6443-13.57-0.93765-26.719s-0.93498-33.188-1.4258-44.531c-0.49087-11.344-1.1081-26.953-1.3716-34.688-0.85196-25.004-2.3302-58.001-2.814-62.812-0.25923-2.5782-0.68425-8.4844-0.94451-13.125-0.26025-4.6407-0.9361-12.526-1.5019-17.523-0.56576-4.9971-1.0925-10.692-1.1705-12.656-0.20596-5.1854-2.5619-5.0429-17.814 1.0775-15.207 6.102-19.588 7.0644-22.044 4.8422-2.7378-2.4778-18.012-7.2765-21.045-6.6121-1.8909 0.4142-3.6137-0.051-6.0938-1.6425-1.9016-1.221-4.3013-2.6744-5.3325-3.2299s-2.004-1.872-2.1618-2.9257c-0.15771-1.0536-1.1069-2.658-2.1094-3.5652-2.6035-2.356-2.3826-8.3749 0.5172-14.09 1.2869-2.5366 2.3416-5.5127 2.3438-6.6136 4e-3 -1.9479 3.5126-5.0297 5.7266-5.0297 0.60564 0 3.0463-1.1889 5.4236-2.6421 4.0329-2.465 9.9659-4.7071 16.443-6.2139 1.51-0.35128 6.0064-2.1293 9.9921-3.9513l7.2467-3.3126 0.63189-6.2921c1.3005-12.95 0.91581-36.311-0.63699-38.681-1.1738-1.7914-1.3583-4.5223-1.0034-14.848 0.75236-21.889 0.67025-24.689-0.90709-30.934-0.84653-3.3516-2.1939-10.312-2.9941-15.469s-2.1248-12.75-2.9435-16.875-1.6705-11.508-1.8929-16.406c-1.4638-32.237-2.6029-47.664-3.8009-51.478-0.89063-2.836-1.3338-8.2978-1.2999-16.022 0.0528-12.027-1.2286-19.652-6.5379-38.906-1.1375-4.125-2.4968-9.1875-3.0207-11.25-0.52389-2.0625-1.2856-4.8047-1.6927-6.0938-3.3289-10.541-4.1524-16.777-3.7139-28.125 0.85609-22.156-0.16029-43.737-2.6712-56.719-0.49866-2.5781-1.3933-10.383-1.988-17.344s-1.759-14.977-2.5873-17.812c-0.82829-2.8359-1.6063-9.1641-1.7289-14.062-0.61759-24.67-2.9607-46.957-5.0741-48.263-0.96226-0.59471-3.0873 5.9512-5.6246 17.326-1.0927 4.8984-2.5912 11.016-3.33 13.594-1.7675 6.1675-6.064 23.619-6.6936 27.188-0.2729 1.5469-1.506 6.0885-2.7402 10.092s-2.6262 9.4884-3.0933 12.188c-0.46712 2.6991-1.7703 9.1263-2.8959 14.283s-2.8366 14.438-3.8022 20.625-3.0627 16.734-4.6603 23.438c-3.4961 14.669-4.0665 17.304-6.0445 27.932-0.84397 4.5343-1.9346 9.2966-2.4236 10.583-0.80861 2.1268-3.384 13.449-9.8979 43.517-1.2846 5.9297-2.9178 12.891-3.6292 15.469-1.3624 4.9374-4.0438 17.358-9.8157 45.469-1.2411 6.0443-4.5413 20.784-6.6122 29.531-0.97655 4.125-2.9063 12.984-4.2883 19.688-1.382 6.7031-4.1507 19.148-6.1526 27.656-3.4376 14.609-5.87 25.081-8.8196 37.969-0.70804 3.0938-2.559 11.109-4.1133 17.812s-3.286 14.719-3.8484 17.812c-1.152 6.3377-3.9962 18.983-6.0098 26.719-0.73816 2.8359-2.2598 10.008-3.3814 15.938-1.1216 5.9297-2.785 13.945-3.6966 17.812s-2.3416 10.195-3.1778 14.062c-1.7763 8.2147-7.587 34.322-9.5986 43.125-2.8943 12.667-5.1593 23.203-6.449 30-0.7338 3.8672-2.3657 11.25-3.6264 16.406-1.2607 5.1562-2.7831 11.906-3.383 15-0.59989 3.0937-2.3066 10.898-3.7927 17.344-1.4861 6.4453-3.8234 16.781-5.1939 22.969-1.3705 6.1875-3.0325 13.148-3.6932 15.469-0.66071 2.3203-1.9376 7.8047-2.8376 12.188s-2.691 12.609-3.98 18.281c-1.289 5.6718-2.5254 11.367-2.7474 12.656-0.63476 3.6848-4.0139 19.245-6.4131 29.531-1.2027 5.1562-3.1059 13.594-4.2294 18.75-1.1235 5.1562-3.2781 14.226-4.7881 20.156s-3.386 13.945-4.1689 17.812c-1.5967 7.8868-6.3787 28.008-8.3552 35.156-0.71286 2.5781-1.7986 8.4843-2.4128 13.125-1.0441 7.889-2.7969 17.131-6.2235 32.812-0.78868 3.6093-1.3728 7.6171-1.298 8.9062 0.8667 14.936-2.2251 23.634-9.2884 26.13-5.6227 1.9867-18.472 2.5173-20.383 0.8418-2.3555-2.065-7.7458-4.6921-11.009-5.3656-2.3676-0.4885-2.9331-1.1682-3.5748-4.2963-0.41925-2.0437-1.116-4.863-1.5483-6.2651-0.4323-1.402-0.44089-4.1442-0.019089-6.0938 2.7604-12.758 5.9669-26.798 7.1257-31.201 1.3499-5.1286 1.9781-8.1366 4.5031-21.562 0.72731-3.8672 2.1763-10.617 3.2199-15 1.0437-4.3828 2.1723-9.4453 2.5082-11.25s1.8097-8.3438 3.2753-14.531c3.9917-16.853 7.9843-34.423 12.569-55.312 2.2634-10.312 6.6957-30.352 9.8495-44.531 3.1538-14.18 6.9925-31.477 8.5303-38.438 4.3616-19.742 7.4793-33.397 9.9536-43.594 2.5362-10.452 4.2836-18.089 5.8986-25.781 0.59541-2.8359 1.6735-7.8984 2.3958-11.25s2.1644-10.523 3.2047-15.938c1.0403-5.4141 2.4824-12.164 3.2047-15 0.72227-2.8359 1.8167-7.8984 2.4321-11.25 0.61541-3.3516 2.5322-12 4.2596-19.219 1.7274-7.2187 3.6182-15.445 4.2018-18.281 0.58358-2.8359 1.4527-6.6328 1.9313-8.4375 1.1777-4.4406 5.5737-24.351 7.0375-31.875 2.2233-11.428 5.1282-24.828 7.9258-36.562 1.5366-6.4453 3.6451-15.727 4.6855-20.625s2.7317-12.07 3.7586-15.938c1.0268-3.8672 2.485-10.406 3.2405-14.531 0.75547-4.125 2.0441-10.453 2.8637-14.062 0.81955-3.6094 2.5037-11.203 3.7425-16.875 1.2388-5.6719 3.1211-14.109 4.1829-18.75 1.0618-4.6406 3.1773-14.344 4.7011-21.562 4.3678-20.692 7.4622-34.826 9.9542-45.469 1.2677-5.4141 3.5574-15.75 5.0882-22.969 1.5308-7.2188 3.4295-15.867 4.2193-19.219 0.78983-3.3516 2.8848-13.38 4.6554-22.286 1.7706-8.9057 3.4127-16.505 3.649-16.887 0.2363-0.38234 1.5463-6.3849 2.9112-13.339 1.3649-6.9542 3.7535-18.761 5.308-26.238 1.5546-7.4766 3.3966-16.336 4.0933-19.688 3.5048-16.859 11.891-53.536 13.611-59.531 1.0411-3.6274 5.8377-24.508 8.3993-36.562 1.0957-5.1562 2.6103-11.695 3.3658-14.531 1.7147-6.4364 3.92-15.496 5.7052-23.438 9.9724-44.364 12.143-54.574 13.954-65.625 0.71814-4.3828 2.2046-11.766 3.3032-16.406 1.0986-4.6406 2.327-9.9141 2.7298-11.719s2.3083-10.242 4.2343-18.75l3.5019-15.469-1.1789-9.375c-0.64842-5.1562-1.1324-10.641-1.0755-12.188 0.0569-1.5469-0.93672-9.5391-2.208-17.761-1.3741-8.8864-2.3089-18.961-2.3052-24.844 4e-3 -5.4426-0.4455-13.271-0.99757-17.396-0.55206-4.125-1.8032-13.406-2.7804-20.625s-2.2443-19.875-2.8158-28.125c-0.57155-8.25-1.8977-18.958-2.947-23.796-3.9036-17.998-1.342-27.421 7.7829-28.632 2.5398-0.33692 8.158-1.8621 12.485-3.3892 9.7052-3.4255 10.521-3.424 24.423 0.0465l11.25 2.8084 1.6525-1.9968c0.90889-1.0983 1.8939-3.1036 2.1888-4.4564 0.29497-1.3528 1.3473-5.7297 2.3386-9.7264 2.0837-8.4014 2.677-61.628 0.85431-76.639-2.7097-22.317-1.6161-51.859 2.1243-57.388 1.6706-2.4697 6.3656-7.2202 10.743-10.87l3.0264-2.5233-1.383-13.125c-2.6542-25.189-0.31909-32.344 10.556-32.344 1.9798 0 6.114-0.66563 9.1872-1.4792 20.616-5.4575 26.971 4.2234 31.927 48.635 0.55918 5.0105 0.81261 5.478 3.2324 5.962 7.0283 1.4057 14.37 17.938 17.211 38.757 0.31664 2.3203 1.6158 8.8594 2.8871 14.531 2.9326 13.084 5.0098 25.009 6.1238 35.156 0.48118 4.3828 1.5389 10.922 2.3504 14.531 0.81154 3.6094 1.8423 8.6966 2.2906 11.305 0.4483 2.6083 1.4762 7.038 2.2842 9.8438 0.80798 2.8057 2.2945 9.1091 3.3033 14.008 1.0088 4.8984 2.4525 11.648 3.2082 15 0.75563 3.3516 2.3028 10.312 3.4382 15.469 1.1354 5.1562 2.5851 10.219 3.2216 11.25 0.63648 1.0312 1.4342 3.0004 1.7727 4.3758 0.56762 2.3062 1.3268 2.6548 9.7577 4.4803 5.0282 1.0887 11.884 2.6462 15.236 3.461s8.8359 2.1177 12.188 2.8952c3.3516 0.77754 10.945 2.6731 16.875 4.2123s14.156 3.6486 18.281 4.6876 9.6094 2.5467 12.188 3.3506c2.5781 0.80386 7.7647 1.7417 11.526 2.0842 8.6825 0.7905 9.9437 2.2468 10.135 11.703 0.17567 8.6725 2.9119 41.148 4.2655 50.625 0.58915 4.125 1.0593 8.3438 1.0448 9.375-0.066 4.6856 2.6978 35.602 3.5797 40.044 1.0478 5.2771 1.7685 12.08 4.0508 38.237 0.78732 9.0234 1.8802 19.359 2.4287 22.969 1.9505 12.836 8.5711 75.435 10.857 102.66 2.1852 26.021 3.5602 40.794 6.0645 65.156 0.58304 5.6719 1.2273 13.652 1.4318 17.734 0.20442 4.082 0.78566 9.7773 1.2916 12.656 0.50598 2.8789 1.3629 11.141 1.9043 18.359 1.4537 19.384 3.4844 39.57 4.0771 40.529 0.28575 0.46237 0.79947 5.4543 1.1416 11.093 0.3421 5.6389 0.87673 10.673 1.188 11.187 0.31131 0.51374 0.84574 5.7872 1.1876 11.719s1.3135 16.269 2.1591 22.972c0.84562 6.7031 2.3921 19.992 3.4366 29.531 2.1248 19.404 2.0925 19.106 4.6688 43.125 1.0232 9.5391 2.4597 21.984 3.1924 27.656 0.73263 5.6719 1.823 14.531 2.4229 19.688s1.4542 10.303 1.8984 11.436l0.80751 2.0613 6.5926-1.8269c8.1388-2.2554 9.3024-2.2508 12.241 0.0481 1.2891 1.0083 3.7291 1.8427 5.4222 1.8542 2.5142 0.0171 3.4334 0.62231 5.0145 3.3021 2.2179 3.759 2.0613 3.701 5.3561 1.9862 17.571-9.1447 43.428-1.0303 32.254 10.122-0.38671 0.38595-1.1304 2.2203-1.6526 4.0764-0.67579 2.4018-1.6283 3.5562-3.3042 4.0044-2.2691 0.60686-8.6353 3.5843-14.496 6.7798-2.7154 1.4805-4.9346 2.4946-16.743 7.6514-4.5332 1.9796-5.3639 2.6867-4.7528 4.0457 0.40725 0.90573 0.91747 5.591 1.1338 10.412l0.39339 8.765-3.1406 3.3063c-7.018 7.3884-14.198 7.8234-26.251 1.5906-1.4179-0.73321-3.5883-1.3331-4.823-1.3331s-3.0487-0.90197-4.0309-2.0044c-4.3081-4.8351-8.9823-5.1982-17.255-1.3405-6.5287 3.0446-6.7013 3.2089-5.577 5.3096 1.281 2.3936 4.2388 18.074 5.1114 27.098 0.37395 3.8672 1.0447 7.7252 1.4905 8.5733 0.44584 0.84816 1.4247 4.856 2.1752 8.9062 0.75052 4.0503 2.2492 12.005 3.3303 17.677 1.0811 5.6718 2.5637 13.898 3.2946 18.281 2.4262 14.549 6.9792 39.751 8.3839 46.406 0.76172 3.6093 2.476 12.891 3.8095 20.625 2.6512 15.377 4.5623 25.089 6.641 33.75 0.74256 3.0937 1.7442 8.3671 2.2258 11.719s1.7477 10.312 2.8134 15.469c1.0657 5.1562 2.377 11.695 2.914 14.531 0.53696 2.8359 1.8264 8.9531 2.8655 13.594 1.0391 4.6406 2.2554 10.758 2.7029 13.594 0.44753 2.8359 1.7239 9.7969 2.8364 15.469 1.1125 5.6718 2.3441 12.633 2.7368 15.469 0.39276 2.8359 1.4074 8.5313 2.2548 12.656 0.84737 4.125 2.2108 10.875 3.0298 15s2.0875 10.118 2.8188 13.318c0.73132 3.1997 1.3297 7.0226 1.3297 8.4954 0 1.4727 0.84887 5.9185 1.8864 9.8795 1.0375 3.9611 2.9 12.373 4.1388 18.692 1.2388 6.3197 2.4619 12.545 2.718 13.834 0.25604 1.2891 2.2393 10.57 4.4073 20.625s4.3454 20.812 4.8387 23.906c0.49329 3.0937 1.4688 7.9453 2.1677 10.781 1.049 4.2561 3.334 15.4 8.3619 40.781 0.30644 1.5468 1.5796 8.5078 2.8294 15.469s3.3561 18.444 4.6808 25.518c3.2384 17.293 2.074 23.064-4.9361 24.466-3.7698 0.7539-7.6553 4.1744-7.6553 6.739 0 2.6989-2.5348 3.692-6.031 2.3628-3.7299-1.4181-7.094-1.2071-7.094 0.4449 0 2.3282-5.3366 1.7874-6.9383-0.7032-3.1604-4.9143-9.1553-30.183-13.623-57.422-2.1143-12.891-5.3247-31.875-7.1344-42.188-1.8096-10.312-4.1231-23.538-5.1411-29.39s-1.8646-13.235-1.8815-16.406c-0.018-3.3872-0.81211-7.8933-1.9249-10.922-2.4269-6.6059-5.9065-20.18-7.3294-28.594-0.61045-3.6094-2.3223-12.047-3.8042-18.75-2.849-12.888-8.6339-42.727-10.723-55.312-1.3795-8.3094-6.186-32.868-8.9905-45.938-0.99582-4.6407-2.0677-10.125-2.3819-12.188s-1.1728-6.3012-1.9081-9.4193c-0.73524-3.118-2.3842-11.766-3.6644-19.219-2.45-14.262-4.3452-24.235-6.672-35.112-0.77216-3.6094-2.2333-11.376-3.247-17.259-1.0137-5.8834-2.2245-11.157-2.6906-11.719s-1.4947-4.3969-2.2856-8.5218c-0.79096-4.125-2.9852-14.883-4.8762-23.906-1.891-9.0234-3.7621-18.727-4.158-21.562-0.39597-2.8359-1.1605-6.4219-1.699-7.9687-0.53851-1.5469-2.3031-10.406-3.9213-19.688-1.6182-9.2812-3.758-19.925-4.755-23.652-0.99703-3.7274-1.8128-8.1922-1.8128-9.9218 0-5.0076-0.81817-4.9773-13.125 0.48741-2.8359 1.2592-6.8438 2.969-8.9062 3.7994-4.7128 1.8975-25.15 10.04-37.5 14.941-28.138 11.166-26.269 9.9946-24.385 15.286 4.8712 13.681-8.4523 31.859-19.922 27.181-0.89635-0.3655-4.3719-1.0394-7.7235-1.4974s-8.6135-1.2333-11.693-1.7227c-7.2517-1.1527-7.5696 1.7107-5.874 52.911 1.4605 44.1 2.5943 73.609 3.4762 90.469 0.49898 9.5391 1.1368 25.581 1.4174 35.648 0.63619 22.828 2.0774 60.062 3.3012 85.289 0.91279 18.815 2.7171 62 4.6611 111.56 0.53596 13.664 1.4039 33.703 1.9287 44.531 0.52484 10.828 1.139 25.172 1.3649 31.875 1.0241 30.393 1.6637 47.164 1.9307 50.625 0.15911 2.0625 0.52574 11.976 0.81472 22.031 1.7236 59.969 3.2181 92.805 4.2883 94.219 3.0561 4.0363 0.58382 16.203-3.7411 18.412-0.77344 0.395-2.8828 1.3816-4.6875 2.1925-1.8047 0.811-5.3865 3.018-7.9597 4.9047-2.5731 1.8865-5.5262 3.5092-6.5625 3.6059-1.0362 0.097-3.1497 0.4337-4.6966 0.7488-1.5469 0.3152-3.4453 0.1933-4.2188-0.271zm16.884-16.156 8.7026-5.7818-0.60728-18.359c-0.33401-10.097-0.80137-22.578-1.0386-27.734-0.77008-16.739-2.379-63.306-2.8078-81.266-0.22998-9.6335-0.64113-20.602-0.91367-24.375s-0.77618-15.508-1.1192-26.078c-0.34303-10.57-0.72383-20.695-0.8462-22.5-0.43602-6.4303-2.3766-53.392-3.2541-78.75-1.2191-35.23-2.6414-70.086-3.7298-91.406-1.846-36.161-2.3187-46.908-2.1237-48.281 0.10984-0.7734-0.21059-3.3047-0.71208-5.625s-1.1225-17.719-1.3799-34.219c-0.43643-27.968-0.85277-37.03-3.2734-71.25-0.51064-7.2188-1.1801-24.094-1.4877-37.5-0.67416-29.386-1.0598-32.704-3.8472-33.101-2.4153-0.3442-3.4961 3.1115-3.3643 10.757 0.16107 9.3455-4.5893 10.286-6.1378 1.2151-0.52582-3.0801-1.3076-4.4505-3.0293-5.3099l-2.3206-1.1583-0.27827 12.861c-0.15305 7.0735-0.0178 14.289 0.30045 16.034l0.57871 3.1727 3.5426-3.4592 3.5426-3.4592 3.4518 1.646c3.8375 1.8299 4.0168 2.3217 4.6746 12.822 0.79831 12.743-7.0287 15.066-13.227 3.9249-0.57133-1.0269-1.357-1.549-1.7458-1.1601-1.1508 1.1508 1.1565 68.042 2.3986 69.538 0.80372 0.9684 0.80253 1.457-5e-3 1.9559-0.75801 0.4685-0.90012 3.3335-0.48078 9.6929 0.8912 13.516 3.4393 77.342 5.6818 142.32 0.28789 8.3419 0.9359 22.897 1.44 32.344 1.0727 20.102 2.7956 69.906 3.2535 94.052 0.17602 9.2813 0.5619 22.359 0.85751 29.062 1.2654 28.694 2.4509 57.988 3.3386 82.5 0.52286 14.438 1.1556 30.891 1.406 36.562 0.25044 5.6719 0.90299 21.914 1.4501 36.094 1.3542 35.098 0.13221 32.84 13.109 24.218zm-3.3352-16.967c-0.25036-0.6524-0.62928-7.9298-0.84204-16.172-0.58336-22.599-1.6645-31.82-4.1202-35.141l-2.0527-2.7763 0.14826-68.69c0.14701-68.113-0.0869-78.328-2.0405-89.101-0.55642-3.0685-0.82961-6.0594-0.60708-6.6465 0.75612-1.9947-1.3352-14.182-2.8286-16.483-1.2246-1.8873-1.5414-6.1798-1.7987-24.375-0.53957-38.156-1.1678-56.45-2.2856-66.556-0.64485-5.8301-0.84137-14.733-0.48629-22.031 0.32774-6.7359 0.55264-15.544 0.49976-19.574-0.0529-4.0297 0.36916-10.147 0.93785-13.594 0.56868-3.4469 1.3731-11.446 1.7875-17.777 0.67095-10.248 1.8462-14.752 3.4348-13.164 1.8258 1.8257 1.8305 13.753 0.0117 30.299-1.5995 14.552-2.1324 41.778-1.1376 58.125 0.31377 5.1562 1.0178 20.766 1.5645 34.688s1.2018 26.367 1.4559 27.656c0.25406 1.2891 0.0693 5.4366-0.41056 9.2167-0.77986 6.1432-0.6193 7.7356 1.5125 15 1.4115 4.8098 2.4861 11.06 2.6326 15.314 0.13623 3.9525 0.94853 9.2965 1.8051 11.876 1.2592 3.7909 1.3916 5.9156 0.69165 11.095-0.60959 4.5103-0.46364 10.706 0.49323 20.937 0.78626 8.4073 1.1209 18.087 0.79395 22.969-0.41001 6.1226-1.7014 81.059-1.5509 90 0.0482 2.8645 1.9525 8.8844 3.7668 11.907 1.8059 3.0092 2.0256 4.4342 1.6542 10.73-0.29654 5.0271-4.7e-4 8.4291 0.96267 11.061 1.3968 3.8172 1.191 27.034-0.27349 30.85-0.70026 1.8249-3.0686 2.0534-3.7188 0.3589zm-20.465-425.8c-2.1568-3.2917-2.4403-14.99-0.46688-19.262 3.0229-6.5433 3.9224-11.037 3.2284-16.128-0.63573-4.6634-1.299-18.191-1.3795-28.134-0.0197-2.43-0.69692-6.0006-1.505-7.9346-1.2204-2.9209-1.3017-4.6335-0.47997-10.113 0.5441-3.6281 1.0876-8.913 1.2077-11.744 0.16692-3.9336 0.58419-5.217 1.7694-5.4421 2.7609-0.5245 4.0435 5.5993 2.7218 12.995-0.85497 4.7842-0.86964 7.1962-0.0604 9.9259 0.95763 3.23 2.7622 29.484 3.2121 46.731 0.10442 4.0029 0.83478 8.0234 1.8725 10.308 5.3249 11.722-3.7327 28.546-10.12 18.798zm266.13 263.87c2.5015-2.7641 1.3427-18.1-1.9034-25.19-1.2699-2.7739-2.3089-6.1641-2.3089-7.5339 0-9.1856-3.9542-29.755-6.6135-34.403-2.1118-3.691-3.0617-6.9655-3.8207-13.17-0.55556-4.5418-1.8078-10.282-2.7828-12.755-0.97501-2.4736-2.2224-7.5464-2.772-11.273-0.54959-3.7264-1.5608-8.8846-2.2472-11.463-0.68639-2.5782-1.4866-8.1054-1.7783-12.283-0.31306-4.4836-1.5609-10.629-3.0459-15-1.7394-5.12-2.7188-10.442-3.1742-17.248-0.36227-5.4141-1.5259-13.008-2.5859-16.875s-2.5976-10.648-3.4169-15.068c-0.81931-4.4202-2.5495-11.376-3.8448-15.457-1.2954-4.0813-2.3552-8.6339-2.3552-10.117 0-7.124-5.5449-37.061-10.217-55.159-1.5556-6.0263-3.1134-13.198-3.4619-15.938-0.34846-2.7394-1.0149-5.4645-1.481-6.056-0.4661-0.5914-1.2179-4.1774-1.6706-7.9687-0.45273-3.7914-1.5104-9.0027-2.3503-11.581-1.7125-5.2563-5.4282-31.207-4.6488-32.468 2.2323-3.6119 5.1132 3.4072 6.97 16.982 0.5982 4.373 1.5075 8.7356 2.0207 9.6946 0.5132 0.9588 1.7195 6.4512 2.6807 12.205 0.9612 5.754 2.7724 14.68 4.0248 19.837 4.538 18.683 5.2266 21.693 6.7561 29.531 0.8552 4.3828 2.5598 12.82 3.7879 18.75s2.2428 12.66 2.2547 14.956c0.0119 2.2962 1.2695 8.2025 2.7946 13.125 1.5251 4.9226 3.6297 13.802 4.6769 19.731s2.5884 13.102 3.425 15.938c0.83655 2.8359 1.5998 8.5312 1.6961 12.656 0.12459 5.3356 0.93565 9.7996 2.8105 15.469 1.4686 4.4407 2.9453 11.521 3.3353 15.991 0.38497 4.4123 1.3584 10.108 2.1632 12.656s1.7396 7.3761 2.0774 10.728c0.33776 3.3516 1.4582 7.9922 2.4898 10.312s2.2407 7.5937 2.6868 11.719c0.85356 7.8924 2.0808 12.225 4.7795 16.875 0.89782 1.5469 2.3032 6.8204 3.123 11.719s1.8847 10.805 2.3664 13.125c0.48165 2.3203 1.1437 6.9609 1.4712 10.312s1.4039 7.6888 2.3919 9.6382c0.98804 1.9495 1.7964 4.9378 1.7964 6.6405 0 4.5097 1.9948 13.721 2.9714 13.721 1.8636 0 1.8782-3.3713 0.048-11.091-1.0597-4.4701-2.1903-10.237-2.5124-12.815-0.32207-2.5781-1.2072-7.4296-1.967-10.781-0.75976-3.3516-2.4667-12.8-3.7932-20.998-1.3265-8.1972-2.5925-15.375-2.8133-15.95-0.2208-0.5754-1.4281-6.7358-2.683-13.69-2.1667-12.007-5.3546-28.577-8.4749-44.05-0.77986-3.8672-1.8521-9.7734-2.3827-13.125s-1.9874-10.523-3.2372-15.938c-1.2499-5.4141-4.2158-19.969-6.5909-32.344s-5.3239-27.141-6.5528-32.812c-2.2182-10.238-9.471-47.396-15.92-81.562-1.8491-9.7968-4.4009-23.297-5.6706-30-5.5243-29.164-8.0387-42.554-8.9788-47.812-0.55308-3.0937-1.3363-6.8906-1.7405-8.4375-0.40419-1.5468-1.4644-7.0312-2.3561-12.188-0.89164-5.1562-3.0242-16.336-4.7391-24.844-1.7148-8.5078-3.9811-20.32-5.0361-26.25-4.9745-27.958-7.5851-40.575-9.3635-45.252l-0.98701-2.5956-5.1966 2.9328c-3.6169 2.0413-6.0444 2.8084-7.9853 2.5236-1.6202-0.23784-2.7886 0.0141-2.7886 0.60019 3.1e-4 1.918 2.7046 15.135 3.569 17.444 0.47697 1.2736 1.1527 4.847 1.5017 7.9407 1.2565 11.14 10.768 60.894 13.786 72.112l0.98853 3.6747 1.7354-3.8761c4.1904-9.3596 12.169-2.9629 12.169 9.7565 0 6.7272-7.1975 11.106-9.8438 5.9888-3.5509-6.8666-2.9155 0.6221 2.3068 27.188 1.9766 10.055 4.2916 22.078 5.1446 26.719 0.85295 4.6407 1.9638 10.336 2.4686 12.656 0.50477 2.3203 1.7962 8.2266 2.8698 13.125s2.2827 10.805 2.6868 13.125 1.8467 9.7031 3.2058 16.406c2.8693 14.152 4.4873 22.43 7.0549 36.094 1.0174 5.4141 2.5121 12.797 3.3217 16.406 0.80959 3.6094 2.3117 11.203 3.338 16.875 1.0263 5.6719 2.4913 13.055 3.2556 16.406 0.7643 3.3516 2.64 12.422 4.1682 20.156 6.0063 30.399 9.1833 45.132 12.837 59.531 1.243 4.8984 2.8735 11.859 3.6232 15.469 0.74968 3.6094 2.2058 10.359 3.2358 15 1.03 4.6407 2.7237 14.022 3.7637 20.847s3.3968 20.536 5.2372 30.469c1.8404 9.9323 3.7605 20.59 4.2671 23.684 1.6008 9.7776 2.834 11.428 5.9584 7.9759zm-79.025-411.76c-0.61875-0.6187-1.125-2.2256-1.125-3.5708s-0.6194-3.2647-1.3764-4.2657c-0.75703-1.0008-1.393-3.5072-1.4133-5.5697s-0.48406-6.4922-1.0306-9.8438c-0.83472-5.1187-2.4007-21.759-3.0416-32.32-0.2446-4.0307 2.4188-4.2022 4.7567-0.3061 1.5794 2.6321 1.8637 4.8483 1.9005 14.814 0.0472 12.818 1.4035 23.278 3.5861 27.656 3.6531 7.329 1.9264 17.589-2.2563 13.406zm-14.631-63.265c-1.3374-1.4422-2.4362-3.2595-2.4419-4.0381-6e-3 -0.7787-0.24444-2.8924-0.53059-4.6971-1.0829-6.8294 7.1172-14.604 9.9064-9.3928 5.9344 11.088 0.27009 25.897-6.9339 18.128zm-486.27 424.79c3.068-2.5816 5.6534-9.4174 7.5798-20.041 0.5733-3.1616 1.8871-9.0003 2.9195-12.975s3.0832-12.922 4.5574-19.883c6.6807-31.547 9.7753-45.352 13.029-58.125 0.98515-3.8672 2.7326-12.094 3.8832-18.281 1.1506-6.1875 2.8364-14.414 3.7463-18.281s2.3664-10.195 3.2369-14.062c0.87044-3.8672 2.1603-9.5625 2.8664-12.656 0.70609-3.0938 2.8173-12.797 4.6915-21.562 1.8742-8.7657 4.416-20.156 5.6485-25.312 1.2324-5.1563 3.0798-13.383 4.1054-18.281 2.623-12.528 3.7125-17.456 5.2859-23.906 0.75461-3.0938 1.7802-7.7344 2.2791-10.312 0.49892-2.5782 1.7336-8.0625 2.7438-12.188 1.0101-4.125 2.7236-11.297 3.8077-15.938 1.0841-4.6407 3.2237-13.711 4.7548-20.156 3.0773-12.955 8.2646-37.078 9.0689-42.174 0.46484-2.9454 0.3642-3.1425-1.0189-1.9946-0.84406 0.7005-1.5347 2.1829-1.5347 3.294 0 1.1112-0.57891 2.8525-1.2865 3.8696-0.70755 1.0171-1.585 3.3258-1.9498 5.1305s-2.5281 8.9064-4.8073 15.782c-2.2792 6.8752-4.144 13.758-4.144 15.296 0 1.5375-0.49574 3.717-1.1016 4.8432-0.60589 1.1263-1.4204 3.5243-1.8101 5.329-0.38966 1.8047-1.3248 6.0234-2.0781 9.375-0.75328 3.3516-1.183 6.4045-0.95483 6.7843 0.22813 0.3798-0.03741 2.2782-0.59008 4.2188-0.55268 1.9405-1.8391 9.6453-2.8587 17.122-2.9372 21.538-3.8269 24.885-9.5783 36.026-1.471 2.8494-1.8642 5.2579-1.7391 10.652 0.19909 8.5866-1.1296 12.933-4.484 14.668-2.9013 1.5003-4.1257 6.8731-5.7226 25.11-0.48397 5.5272-1.5242 11.295-2.3116 12.818-0.98536 1.9055-1.398 5.2381-1.3237 10.69 0.10345 7.5908-1.8823 18.516-5.3901 29.656-0.71899 2.2833-1.3072 5.0716-1.3072 6.1962s-1.418 3.8368-3.1512 6.027c-2.8347 3.5822-3.1582 4.6078-3.2203 10.21-0.09539 8.6014-4.4943 25.647-7.6994 29.834-1.2504 1.6336-1.4808 3.5144-1.1483 9.375 0.32804 5.7827-9.37e-4 8.5629-1.5575 13.161-1.0854 3.2063-1.9734 6.4671-1.9734 7.2459 0 1.7389-3.4265 12.987-5.2367 17.19-0.72921 1.6933-1.3258 4.9867-1.3258 7.3186 0 3.0274-1.3405 7.3188-4.6875 15.006-6.5917 15.14-5.9175 20.385 1.787 13.902zm-7.3398-15.086c2.5281-5.447 3.6779-9.2192 3.6779-12.066 0-2.278 1.091-6.9991 2.4244-10.491 6.5189-17.073 9.2369-29.149 8.3304-37.011-0.47768-4.1429-0.18765-6.5892 1.286-10.848 2.2022-6.3634 7.645-28.302 7.6502-30.836 2e-3 -0.9444 1.266-4.2483 2.809-7.342 1.543-3.0938 2.807-6.4977 2.809-7.5643s0.64388-4.0955 1.4265-6.731c1.7976-6.0533 5.1064-24.135 5.1252-28.009 0.0079-1.6109 0.68762-4.775 1.5106-7.0312 0.82302-2.2562 1.8516-6.8444 2.2858-10.196 1.7664-13.635 5.7191-29.717 8.4105-34.219 0.92478-1.5468 2.3403-5.3437 3.1457-8.4375 4.3612-16.754 8.3313-33.422 9.0434-37.969 0.44416-2.8359 1.6628-9.1641 2.708-14.062s2.1357-11.859 2.4233-15.469c0.28758-3.6093 1.1125-8.4609 1.8332-10.781 0.72066-2.3203 1.5927-5.9063 1.9379-7.9688 0.99408-5.9399 7.0611-27.577 9.0025-32.106 0.97081-2.2648 2.4179-6.9326 3.2157-10.373 0.79783-3.4402 2.4423-8.3679 3.6545-10.95 3.0429-6.4831 5.212-13.181 5.2501-16.212 0.0176-1.4 0.82696-5.7095 1.7986-9.5767 3.9949-15.901 5.522-23.421 6.4809-31.916 0.55548-4.9208 1.6658-10.806 2.4675-13.078 0.80162-2.272 1.8614-9.0038 2.355-14.959 0.49363-5.9557 1.3464-12.305 1.8949-14.11 2.8654-9.4262 6.7082-36.636 5.8879-41.69-0.37628-2.3187 0.2284-5.6115 1.9735-10.747 1.3838-4.0722 2.6421-9.6545 2.7962-12.405 0.15409-2.7507 1.1581-7.7976 2.231-11.215 1.073-3.4177 2.41-9.5152 2.9712-13.55 0.98454-7.0786 2.8496-11.642 4.7578-11.642 0.50374 0 0.91589-1.7487 0.91589-3.8859s1.8698-11.735 4.1551-21.328c2.2853-9.5932 4.8347-20.395 5.6654-24.005 3.4725-15.09 3.9637-16.961 4.9212-18.75 2.2575-4.2182 4.9458-14.184 4.9458-18.334 0-2.4367 0.83449-6.2693 1.8544-8.517 1.0199-2.2477 1.8637-5.3326 1.875-6.8554s1.2481-6.7962 2.7484-11.719 3.2132-13.169 3.8065-18.325c0.59329-5.1562 1.6793-11.5 2.4134-14.097 0.73412-2.5973 2.1526-9.3473 3.1522-15 0.99962-5.6527 2.5073-12.176 3.3504-14.496 3.1541-8.6806 9.6672-33.786 12.039-46.406 0.77526-4.125 1.8267-9.1875 2.3366-11.25s1.4234-6.4922 2.0301-9.8438 1.9175-7.9486 2.9128-10.216c1.6814-3.8296 6.6365-30.567 8.4351-45.515 0.43096-3.5818 1.2112-7.5896 1.7339-8.9062 1.487-3.7458 3.8104-16.062 3.8113-20.203 4.2e-4 -2.0608 0.99756-6.9123 2.2158-10.781 3.0331-9.6324 5.481-23.316 4.7816-26.729-0.3796-1.8527 0.14915-4.7465 1.5417-8.4375 1.4443-3.828 2.0578-7.3041 1.9259-10.912-0.16542-4.5237 0.16953-5.7254 2.3023-8.2601 2.3632-2.8084 2.4311-3.1627 1.2771-6.6593-1.8372-5.5666-3.158-4.5022-5.0146 4.0413-0.92443 4.2539-2.4511 11.109-3.3925 15.234s-2.8278 12.562-4.1918 18.75c-1.364 6.1875-3.2638 14.203-4.2217 17.812-0.95789 3.6094-2.6671 11.625-3.7982 17.812-1.8296 10.008-5.685 27.137-12.661 56.25-1.2355 5.1562-3.167 13.383-4.2922 18.281s-3.2018 13.125-4.6148 18.281-3.0569 11.906-3.6533 15c-0.59634 3.0938-1.9059 9.4219-2.9102 14.062-1.0043 4.6406-2.4706 11.602-3.2585 15.469-0.78795 3.8672-2.0844 10.195-2.881 14.062-0.79657 3.8672-2.0578 10.195-2.8026 14.062-2.2605 11.736-4.9994 23.684-10.315 45-1.5492 6.2121-9.9547 44.03-13.128 59.062-1.2515 5.9297-3.3187 15-4.5937 20.156-2.2825 9.2303-6.0782 27.275-8.5176 40.493-0.68445 3.7086-1.8798 8.7711-2.6564 11.25s-2.1202 8.5149-2.9857 13.413c-0.86557 4.8984-2.3244 12.07-3.242 15.938-0.91752 3.8672-2.3645 10.195-3.2156 14.062-2.8061 12.751-4.2868 19.11-6.5488 28.125-1.2291 4.8984-3.3399 14.18-4.6907 20.625s-3.066 14.039-3.8114 16.875-2.4503 10.641-3.7886 17.344c-1.3382 6.7032-3.2324 15.562-4.2092 19.688-0.97685 4.125-2.6257 11.719-3.6642 16.875-1.0384 5.1563-2.5752 12.328-3.4151 15.938-6.6068 28.393-9.7677 42.301-10.653 46.875-2.6801 13.843-6.6859 31.604-9.8324 43.594-0.74424 2.8359-1.8489 7.8984-2.4548 11.25s-1.6822 8.2031-2.3919 10.781c-0.70964 2.5782-2.5048 10.594-3.9893 17.812-1.4845 7.2188-3.3792 15.867-4.2106 19.219-2.4509 9.8808-6.8691 29.355-10.422 45.938-1.8228 8.5078-3.9656 17.626-4.7618 20.262-1.5018 4.9727-4.2077 17.267-6.4764 29.425-0.7216 3.8672-1.9136 8.7187-2.6489 10.781-0.7353 2.0625-1.6459 5.8351-2.0235 8.3836-0.37763 2.5484-1.5029 7.8219-2.5006 11.719-1.8017 7.0372-4.8122 20.487-8.406 37.554-1.0315 4.8984-2.3008 10.594-2.8208 12.656-1.9463 7.7196-3.7911 16.16-5.0651 23.173-0.72288 3.9795-1.7583 8.065-2.3009 9.0789-1.3207 2.4678-1.303 7.898 0.02302 7.0785 0.5553-0.3432 2.6647-4.19 4.6875-8.5484zm287.11-388.25c17.752-7.4323 21.938-11.16 6.9364-6.1764-5.2734 1.752-11.697 4.2366-14.276 5.5214-2.5781 1.2848-6.2695 2.9483-8.2031 3.6965-2.0539 0.7949-3.5156 1.9914-3.5156 2.8778 0 1.9767 0.77008 1.7375 19.058-5.9193zm-28.744 1.1056c1.6708-3.2991 2.845-4.1633 9.6866-7.1283 6.5548-2.8408 8.651-3.582 12.688-4.4868 2.2614-0.5068 6.4218-1.9781 9.2453-3.2696s5.6942-2.3482 6.3794-2.3482c0.68521 0 2.7162-0.7807 4.5132-1.7347 1.797-0.9541 6.2205-2.6959 9.8299-3.8707 3.6094-1.1747 8.8828-3.1703 11.719-4.4347 2.8359-1.2643 6-2.6281 7.0312-3.0306 1.0312-0.4026 3.3532-1.3669 5.16-2.1429 1.8068-0.77606 4.6496-1.7108 6.3174-2.0771 1.6678-0.36628 3.273-1.0554 3.5672-1.5313 0.29416-0.47597 1.2146-0.86541 2.0454-0.86541 1.7172 0 14.057-5.3995 16.191-7.0851 0.77344-0.61069 3.9375-2.0194 7.0312-3.1304s6.4688-2.4118 7.5-2.8905c1.0312-0.47878 5.4609-2.1964 9.8438-3.8169 4.3828-1.6206 9.8672-3.727 12.188-4.6809 13.405-5.5112 21.46-8.663 24.231-9.4821 1.7255-0.5099 4.8895-1.8991 7.0312-3.0871s5.2549-2.4538 6.9183-2.8131c1.6633-0.35916 5.4727-1.839 8.4652-3.2887 2.9925-1.4496 7.3446-3.2819 9.6712-4.0718 2.3267-0.78994 6.2892-2.531 8.8057-3.869s6.5066-3.0304 8.867-3.7607c2.3604-0.73031 9.9869-3.7112 16.948-6.6242 6.9609-2.913 13.922-5.6784 15.469-6.1453 1.5469-0.46697 4.9219-1.8603 7.5-3.0963s7.9753-3.6474 11.994-5.3586c15.482-6.593 9.3695-7.2175-7.0576-0.72101-5.0195 1.9851-9.3521 3.6092-9.628 3.6092-0.27593 0-2.0753 0.98125-3.9987 2.1806-1.9234 1.1993-5.8173 2.9169-8.6532 3.8169-2.8359 0.89999-8.3203 3.1302-12.188 4.956-10.64 5.0237-12.194 5.6516-18.281 7.3876-3.0938 0.88238-6.1587 2.0251-6.811 2.5394-0.65229 0.51422-5.082 2.3212-9.8438 4.0153-4.7618 1.6942-10.345 3.7281-12.408 4.5198-2.0625 0.79182-4.4967 1.4582-5.4094 1.4808-0.91264 0.0225-5.4262 1.9329-10.03 4.2452-4.6039 2.3122-10.353 4.6483-12.776 5.1913-2.4232 0.5431-5.5686 1.8154-6.9897 2.8273s-3.2628 1.8398-4.0925 1.8398c-0.82974 0-2.2412 0.41297-3.1365 0.91763-2.0919 1.1793-10.412 4.4952-27.351 10.901-7.4443 2.8152-13.987 5.4933-14.539 5.9514-1.0335 0.85772-6.3851 2.9119-13.456 5.1649-2.2164 0.70622-5.1003 1.9854-6.4088 2.8429-1.3085 0.85734-4.5576 2.1988-7.2203 2.981-2.6626 0.78225-6.3177 2.1792-8.1224 3.1044-1.8047 0.9251-5.8125 2.7287-8.9062 4.0077-5.4316 2.2457-8.401 3.3944-22.5 8.7043-14.288 5.3813-31.165 14.338-31.803 16.877-1.2908 5.1431 2.2684 5.7252 4.7725 0.7805zm-18.647 1.3588c-0.20089-0.6027-2.001-1.6621-4.0003-2.3543-4.1397-1.4332-7.0406-3.7464-7.0406-5.6142 0-0.7005-0.51219-2.0938-1.1382-3.0962-2.1777-3.4871 3.6675-7.9365 14.997-11.416 3.4635-1.0637 7.352-2.5005 8.641-3.193 1.2891-0.6924 4.3477-2.1007 6.7969-3.1295 3.8546-1.6191 5.9961-3.851 3.6951-3.851-1.1886 0-16.172 5.536-20.336 7.5136-3.2806 1.5581-10.592 3.8446-17.065 5.3369-2.8564 0.6585-2.0808 11.787 1.0371 14.88 1.0808 1.0721 2.6993 2.8651 3.5966 3.9844 1.8336 2.2872 11.546 3.1306 10.816 0.9392zm135.19-11.052c1.771-3.3092 1.1525-10.023-1.1724-12.726-4.3199-5.0222-13.333 1.3471-11.612 8.2056 1.558 6.2077 10.238 9.277 12.784 4.5203zm-58.104-3.2724c3.8672-1.2489 9.5625-3.5055 12.656-5.0146s6.6797-3.0603 7.9688-3.4472c1.2891-0.3868 5.7188-2.111 9.8438-3.8315s12.562-5.0638 18.75-7.4294c6.1875-2.3658 12.635-4.9187 14.329-5.6732 1.6933-0.7545 3.7344-1.3718 4.5359-1.3718s4.1916-1.2656 7.5336-2.8125 6.2996-2.8125 6.5724-2.8125 1.8254-0.61078 3.4502-1.3572c5.4412-2.4998 24.257-9.8928 25.178-9.8928 0.5006 0 3.5134-1.2049 6.695-2.6775 3.1817-1.4727 6.8358-3.0013 8.1204-3.3969 2.3308-0.71784 6.7642-2.7108 23.251-10.452 4.8005-2.254 8.9222-4.0983 9.1592-4.0983s2.0594-1.028 4.0496-2.2843c1.9902-1.2564 6.0951-3.1185 9.122-4.1381 4.9371-1.663 10.471-4.2221 14.41-6.6636 0.77344-0.47944 5.2031-2.0059 9.8438-3.3921 4.6406-1.3862 9.373-3.0981 10.516-3.8041 1.1434-0.70599 4.2302-2.1316 6.8595-3.1679 2.6293-1.0364 7.6-3.1673 11.046-4.7354 7.4971-3.4115 8.5243-3.8486 15.172-6.4553 2.8359-1.1121 6-2.4067 7.0312-2.8769s4.4062-1.7042 7.5-2.7421c10.486-3.5182 13.722-4.7734 18.35-7.1187 5.5264-2.8005 6.1441-4.6787 1.2357-3.7579-3.3683 0.63191-4.8033 1.217-18.183 7.4142-3.8691 1.7921-8.2988 3.5528-9.8438 3.9127-3.2468 0.75638-12.508 4.5204-17.468 7.0996-1.8749 0.97494-4.0805 1.7726-4.9013 1.7726-0.82082 0-4.5603 1.422-8.3099 3.1601-3.7496 1.738-8.5049 3.6947-10.567 4.3482-2.0625 0.65349-6.4922 2.5454-9.8438 4.2044s-7.2651 3.299-8.6968 3.6446c-3.4752 0.83897-12.446 4.9794-16.952 7.8239-1.9994 1.2622-5.5892 2.8458-7.9774 3.5192-4.1842 1.1798-12.596 4.5629-21.92 8.8155-2.4492 1.117-5.7275 2.2859-7.2851 2.5974-1.5576 0.31153-3.059 0.93375-3.3366 1.3828-0.27751 0.44896-1.3234 0.81637-2.3242 0.81637s-1.8197 0.37491-1.8197 0.83316-1.5742 1.1285-3.4983 1.4895c-1.9241 0.36093-6.0373 1.835-9.1406 3.2756-3.1033 1.4407-7.0958 2.9314-8.8723 3.3128-2.9446 0.63206-9.2885 3.5746-27.708 12.851-8.7382 4.401-12.059 5.8408-18.75 8.1292-7.3345 2.5084-18.746 6.7508-28.125 10.456-4.125 1.6295-9.1875 3.5732-11.25 4.3194-2.0625 0.7463-5.5384 2.1813-7.7242 3.1888-2.1858 1.0077-4.2952 1.8463-4.6875 1.8638-0.39234 0.018-2.4008 0.8469-4.4633 1.8432s-4.3051 1.8257-4.9835 1.8432c-2.617 0.067-5.2013 2.0528-3.815 2.9307 1.7056 1.0801 1.217 1.1563 9.2673-1.4437zm-12.656-21.559c5.1562-1.7613 12.328-4.2777 15.938-5.592 3.6094-1.3142 7.4317-2.3984 8.4941-2.4093 1.0624-0.0113 4.6483-1.1087 7.9688-2.4396 3.3204-1.3309 8.5684-3.2698 11.662-4.3088s7.9453-2.955 10.781-4.2581c2.8359-1.303 7.6875-3.3336 10.781-4.5123s10.055-3.9159 15.469-6.0827c5.4141-2.1668 12.506-4.9155 15.76-6.1082s6.8396-2.7461 7.9688-3.4522 5.217-2.4734 9.0842-3.9276 10.06-3.853 13.762-5.3309c3.7019-1.4778 8.7644-3.1399 11.25-3.6935 2.4856-0.55359 7.2615-2.3046 10.613-3.8914 7.1886-3.4031 16.111-7.1689 27.38-11.556 4.4886-1.7476 11.709-4.8475 16.046-6.8888 4.3367-2.0413 11.211-4.8204 15.276-6.1759 11.2-3.7342 16.514-6.9464 17.432-10.538 0.4202-1.6433 1.8704-3.8582 3.2227-4.9219s2.0854-1.9663 1.6291-2.0057c-5.3086-0.45902-5.3066-0.45519-5.6512-10.471-0.5134-14.92-1.2175-22.291-2.3272-24.364-0.58911-1.1008-1.2054-6.8806-1.3695-12.844-0.38248-13.897-1.0714-22.503-2.7817-34.749-0.75616-5.4141-1.777-14.484-2.2684-20.156-0.49149-5.6719-1.7254-17.273-2.7419-25.781-2.2185-18.567-4.0112-38.093-4.418-48.121-0.16374-4.0368-0.75099-9.7321-1.305-12.656-1.0381-5.4794-1.7005-11.695-4.1634-39.067-0.78872-8.7656-2.2736-23.742-3.2998-33.281s-2.3332-23.582-2.9044-31.207c-0.57128-7.6248-1.4051-17.117-1.8529-21.094-0.44782-3.9768-1.2943-12.504-1.881-18.949-0.58676-6.4453-2.1163-21-3.399-32.344-2.7322-24.163-2.1023-18.421-6.3252-57.656-1.8591-17.273-3.7889-33.305-4.2884-35.625-1.7169-7.9754-5.0067-40.533-6.489-64.219-0.45176-7.2188-1.6687-20.93-2.7043-30.469s-2.3603-22.406-2.9438-28.594c-1.7745-18.818-4.9816-41.188-6.0661-42.311-1.2203-1.2637-11.673-4.6349-16.962-5.4706-4.9109-0.77599-21.948-4.5392-33.75-7.4548-5.1562-1.2738-12.75-2.9863-16.875-3.8055-4.125-0.81922-11.535-2.5283-16.466-3.7978-4.9314-1.2696-10.838-2.6903-13.125-3.1572-2.2873-0.46689-9.2213-2.1412-15.409-3.7208-12.271-3.1326-62.673-14.963-78.015-18.312-5.2676-1.1499-10.33-2.7665-11.25-3.5925-1.0196-0.91557-2.6195-1.3182-4.0984-1.0315-1.3342 0.25872-9.3378-1.2441-17.786-3.3396-17.208-4.2684-17.511-4.2132-15.506 2.8215 1.5792 5.5404 3.6871 24.9 5.2448 48.172 0.55223 8.25 1.3942 17.109 1.8711 19.688 0.47689 2.5781 1.1376 9.5391 1.4682 15.469 0.33063 5.9297 0.95341 12.469 1.3839 14.531s1.4663 11.977 2.3017 22.031 2.1404 23.977 2.9 30.938c1.8608 17.053 3.8123 36.638 5.5112 55.312 0.77403 8.5078 2.2353 22.641 3.2472 31.406 1.012 8.7656 2.045 19.102 2.2956 22.969 0.25061 3.8672 1.0843 11.883 1.8527 17.812 0.76836 5.9297 1.8771 16.898 2.4638 24.375 0.58673 7.4766 1.4823 16.758 1.9902 20.625s1.5345 13.359 2.2813 21.094c1.4563 15.082 2.6749 26.839 4.1782 40.312 0.51777 4.6406 1.3688 13.289 1.8913 19.219s1.1152 11.625 1.3173 12.656c0.64981 3.3155 1.4466 10.658 4.3747 40.312 1.5783 15.984 3.2333 31.997 3.6778 35.583 0.44446 3.5863 0.61201 6.8379 0.37234 7.2257-0.40873 0.66135 0.49585 7.3146 2.4648 18.129 0.79245 4.3524 2.1384 18.289 3.2511 33.663 0.25778 3.5617 0.88723 9.0461 1.3988 12.188 0.51157 3.1414 1.3724 11.618 1.9131 18.837 0.54063 7.2188 1.5825 17.133 2.3153 22.031 0.73278 4.8984 1.3967 11.859 1.4754 15.469 0.0788 3.6094 0.78414 8.8828 1.5676 11.719 0.78347 2.8359 1.5343 9.375 1.6686 14.531s0.90912 15.281 1.7219 22.5c2.4694 21.932 6.1554 55.672 7.2205 66.094 0.55333 5.4141 1.6085 13.641 2.3447 18.281 2.5331 15.966-1.1733 25.596-5.377 13.971l-1.1549-3.1938-2.5706 2.8145c-1.4138 1.548-3.0163 2.8145-3.561 2.8145-1.5164 0-1.1776 2.9267 0.5612 4.8481 1.9392 2.1428 0.98383 2.2629 12.042-1.5145zm-17.13-16.996c2.1419-4.0143 3.9479-5.2852 7.0017-4.9272 4.1453 0.48581 3.9284-6.8886-1.6044-54.536-0.9695-8.3492-3.0622-27.683-4.7184-43.594-0.53676-5.1562-1.5664-14.227-2.2881-20.156-0.7217-5.9297-1.5617-13.945-1.8667-17.812s-0.95136-9.5625-1.4364-12.656c-0.48507-3.0938-1.7481-14.906-2.8067-26.25s-2.3385-23.578-2.8442-27.188c-0.50568-3.6094-1.354-10.992-1.8852-16.406s-1.3545-12.164-1.8297-15c-0.47516-2.8359-1.5256-14.438-2.3344-25.781s-1.8872-22.945-2.3966-25.781c-0.86535-4.8178-2.5562-19.709-4.7371-41.719-3.1438-31.728-6.8904-66.096-10.169-93.281-0.52857-4.3828-1.4051-13.875-1.9479-21.094-0.54277-7.2188-1.3691-15.656-1.8363-18.75-0.46717-3.0938-1.1202-9-1.4511-13.125s-1.4204-14.883-2.421-23.906c-1.0007-9.0234-2.2379-21.469-2.7494-27.656s-1.3441-14.414-1.8502-18.281-1.3655-12.305-1.9096-18.75c-0.5442-6.4453-1.6019-17.203-2.3504-23.906-0.74851-6.7031-1.5704-15.352-1.8265-19.219-0.25606-3.8672-0.90132-10.617-1.4339-15-1.8648-15.346-4.735-41.843-6.0424-55.781-2.6841-28.616-8.6624-78.984-9.5442-80.411-0.66924-1.0829-7.6804-0.23986-14.263 1.7149-4.5743 1.3584-4.7985 1.5766-4.7985 4.6699 0 3.695 1.0726 4.0655 3.966 1.3699 2.9728-2.7695 5.7547-2.3278 9.0619 1.4389 6.4974 7.4001 0.57921 15.165-8.5748 11.25-1.9537-0.83553-2.2491 4.1366-0.75457 12.702 0.48732 2.793 1.5674 11.195 2.4002 18.672 3.148 28.261 2.9248 27.501 7.0585 24.023 6.1698-5.1915 10.589-1.9842 9.3935 6.8171-0.81106 5.9694-2.7193 7.805-7.7453 7.4504-4.5764-0.32292-4.4556-0.63691-3.4844 9.0534 0.46507 4.6406 1.4651 14.766 2.2223 22.5 2.971 30.348 3.5072 35.207 4.1509 37.613l0.66712 2.4944 1.6222-2.4757c2.4396-3.7232 6.3036-3.3644 9.546 0.88654 5.8311 7.6449-1.9246 18.606-8.7315 12.341l-2.2916-2.1094 0.66174 10.204c0.36395 5.6123 1.0516 11.23 1.5281 12.483 0.47649 1.2533 0.87474 4.677 0.88499 7.6083 0.0102 2.9313 0.63468 11.025 1.3876 17.986s1.3774 14.633 1.3876 17.048c0.0102 2.4157 0.47042 5.5797 1.0226 7.0312l1.004 2.6392 2.5117-3.0553c4.8115-5.8529 10.48-3.6753 10.48 4.0258 0 8.0563-3.2113 10.518-9.03 6.9218l-3.1575-1.9515v4.3698c0 4.359 1.0718 15.795 2.812 30.002 0.50524 4.125 1.6009 14.447 2.4348 22.937 0.83392 8.4904 1.893 16.428 2.3534 17.639s0.83724 3.6761 0.83724 5.4777c0 1.945 0.38083 3.0402 0.9375 2.6961 0.51562-0.31867 0.9375-1.384 0.9375-2.3673 0-8.6251 8.4091-11.667 11.292-4.0852 3.712 9.7633-4.2676 18.178-10.342 10.906l-2.9362-3.5156 0.60848 10.312c0.33466 5.6719 0.98046 11.763 1.4351 13.537s0.58754 4.1766 0.29535 5.3408-0.0901 3.5102 0.44901 5.2134c0.53916 1.7032 1.1892 5.6279 1.4446 8.7217 0.25537 3.0938 1.1495 11.53 1.987 18.748 1.4377 12.39 2.152 18.794 2.2749 20.393 0.11779 1.5332 1.5419 0.54786 3.0573-2.1153 3.0199-5.3072 11.997-3.067 11.997 2.9938 0 7.3599-5.0432 12.413-10.379 10.399l-2.7464-1.0367 0.0254 4.3717c0.014 2.4044 0.88057 12.598 1.9258 22.653 1.0452 10.055 2.2626 22.5 2.7052 27.656s1.4602 13.594 2.2612 18.75 2.7589 22.031 4.3509 37.5 3.3052 30.023 3.8071 32.344 1.5576 10.758 2.346 18.75 1.849 18.539 2.357 23.438c0.50797 4.8984 1.3175 13.336 1.799 18.75 1.8826 21.169 3.7389 37.496 5.5958 49.219 0.49007 3.0938 1.5292 12.586 2.3091 21.094 2.6806 29.241 3.306 34.882 4.7128 42.51 0.77561 4.2055 1.6533 9.3338 1.9505 11.396 0.29717 2.0625 1.0083 5.4375 1.5802 7.5 0.57196 2.0625 0.93757 4.3208 0.81245 5.0184-0.12512 0.69759 0.0881 1.9632 0.47392 2.8125 0.47125 1.0373 0.89024 9e-3 1.2768-3.1434 0.31647-2.5781 1.2671-5.9839 2.1125-7.5682zm-7.0957-60.793c-1.4645-0.64748-3.04-1.7734-3.5013-2.502-3.6838-5.8194 4.3533-14.672 8.6499-9.5279 6.3428 7.5942 2.918 15.596-5.1486 12.03zm-12.27-88.269c-2.9595-2.9595-0.83142-13.678 2.9099-14.656 4.6136-1.2065 8.4696 3.3836 7.4424 8.8592-1.1523 6.1423-6.8285 9.3209-10.352 5.7971zm-8.9052-90.059c-4.6386-5.897 1.2205-17.729 7.1956-14.531 2.6822 1.4355 5.4111 10.082 3.8386 12.162-3.9915 5.281-8.057 6.1538-11.034 2.3689zm-144.42 226.06c3.5196-14.851 4.0793-17.296 6.5468-28.594 1.0698-4.8984 2.9777-13.336 4.2398-18.75 1.2621-5.4141 3.1328-13.852 4.1573-18.75 1.0244-4.8984 3.8051-17.555 6.1791-28.125 5.5441-24.685 9.584-43.292 10.686-49.219 0.47941-2.5781 1.5366-7.0078 2.3493-9.8438 1.5909-5.5515 5.745-24.699 7.0172-32.344 0.42901-2.5781 1.4462-7.0078 2.2604-9.8438s2.1522-8.5312 2.9732-12.656 2.0652-9.6094 2.7648-12.188c0.69957-2.5781 1.9428-7.8516 2.7628-11.719s2.5233-11.461 3.785-16.875 2.9567-13.641 3.7665-18.281c1.5029-8.6123 2.4268-12.912 4.734-22.031 0.71752-2.8359 1.7584-8.1094 2.313-11.719 0.55464-3.6094 1.2492-7.3536 1.5435-8.3205 0.34789-1.143 0.17196-1.5336-0.50286-1.1165-0.57086 0.35281-1.0379 1.7978-1.0379 3.2112s-0.4145 2.9842-0.9211 3.4908c-0.50661 0.50661-2.1575 5.759-3.6687 11.672-1.5112 5.9129-3.8389 14.074-5.1726 18.136s-2.4251 9.3066-2.4251 11.655-0.80787 7.4624-1.7953 11.365c-0.9874 3.9023-2.4803 10.892-3.3176 15.533-0.83728 4.6406-1.9481 10.758-2.4685 13.594-0.52039 2.8359-1.9506 8.5312-3.1783 12.656-2.8049 9.4246-4.9299 19.199-5.5401 25.483-0.25944 2.6718-1.3017 6.4846-2.3161 8.4731-1.0144 1.9884-2.7378 7.3772-3.8298 11.975s-2.6527 10.277-3.4684 12.621c-0.81562 2.3436-1.613 5.7376-1.772 7.5423-0.78463 8.9081-9.1328 38.835-11.638 41.719-1.1544 1.329-1.9292 4.878-2.6609 12.188-0.56775 5.6719-1.7408 12-2.6068 14.062-0.86599 2.0625-1.9367 6.6235-2.3794 10.135-0.44268 3.512-1.657 8.3117-2.6984 10.666-1.0831 2.4485-1.9005 6.3362-1.9098 9.0833-0.0258 7.6118-1.7561 22.078-2.8955 24.207-0.57197 1.0687-1.1858 5.1556-1.364 9.0819-0.17825 3.9263-0.76899 8.6153-1.3127 10.42-0.54376 1.8047-1.1895 6.8672-1.4351 11.25-0.52338 9.3427-0.0516 8.2463 4.2355-9.8438zm442.47-22.962c1.5734-3.7985 0.12714-12.523-2.1486-12.961-4.6196-0.88966-11.658 11.188-7.9269 13.602 5.0939 3.2968 8.535 3.0777 10.076-0.64153zm-357.76-363.05c0.76782-2.707 2.0726-8.5078 2.8995-12.891 0.8269-4.3828 1.9585-9.8672 2.5147-12.188 2.0781-8.67 3.355-15 3.0257-15-0.82647 0-3.2439 7.2506-4.5896 13.766-0.80769 3.9103-1.9404 7.9912-2.517 9.0687-0.57668 1.0775-1.408 4.9235-1.8474 8.5467-0.43937 3.6231-1.0531 8.1696-1.3638 10.103-0.82148 5.1123 0.25839 4.3037 1.878-1.4062zm144.46-350.6c-0.37252-3.2097-1.212-6.6902-1.8654-7.7344-0.65345-1.0442-1.4633-3.8539-1.7997-6.2437-0.7905-5.616-4.2791-9.4092-4.2791-4.6528 0 1.6563 0.40737 4.7803 0.90527 6.9422s1.3715 6.3563 1.9413 9.3208c1.8295 9.5176 6.161 11.53 5.0977 2.3679zm9.2892-6.1173c-1.5668-11.567-3.5604-19.884-7.3598-30.703-1.8107-5.1562-3.2965-10.58-3.3017-12.053-6e-3 -1.4731-0.64162-5.4809-1.4143-8.9062s-2.6951-12.319-4.2721-19.763c-1.577-7.4444-3.0967-13.906-3.377-14.36-0.45602-0.73786-1.439-7.5687-4.0802-28.355-1.2721-10.011-4.5428-30.668-5.2402-33.096-0.43772-1.5239-1.2043-2.0752-2.6072-1.875-2.4996 0.3567-2.636 6.401-0.20499 9.0873 1.2993 1.4357 1.4063 2.425 0.6314 5.8375-0.72964 3.2131-0.55215 5.846 0.81416 12.078 0.96096 4.3828 2.2388 13.242 2.8397 19.688 0.60084 6.4453 1.6657 13.828 2.3664 16.406 0.70067 2.5781 1.5776 6.7969 1.9487 9.375 0.37111 2.5781 1.4564 6.5154 2.4118 8.7496 0.95537 2.2342 1.737 5.4831 1.737 7.2199 0 4.8047 2.4711 13.262 4.8521 16.605 1.7687 2.4839 2.1389 4.2589 2.194 10.519 0.0644 7.3148 3.018 19.565 6.5624 27.219 0.71641 1.5469 1.7877 4.7109 2.3807 7.0312 2.6387 10.325 4.5546 9.8934 3.1193-0.70312zm-34.108-0.48337c0-8.3992-4.0993-15.638-6.3946-11.292-4.1357 7.8304-4.0716 15.695 0.13461 16.514 6.1762 1.2023 6.26 1.1323 6.26-5.2213zm-25.744-5.8198c0.35261-2.8222 0.36619-11.365 0.0302-18.984-0.33603-7.6192-0.76785-18.072-0.95961-23.228-0.19177-5.1562-1.0125-12.117-1.8239-15.469s-1.5127-8.625-1.5585-11.719c-0.12623-8.5185-1.2339-14.761-2.0662-11.645-1.3544 5.0705-7.2532 5.1892-7.2532 0.14597 0-5.2296 3.335-7.3592 6.7231-4.2931 2.0134 1.8221 2.5996-3.7709 0.75625-7.2152-0.52702-0.98472-1.1542-7.6015-1.3939-14.704-0.47972-14.22-1.459-19.849-3.6681-21.085-2.7305-1.5281-3.6252-4.4015-2.0969-6.734 0.8979-1.3704 1.0928-2.5947 0.54974-3.4528-0.46283-0.73121-0.84796-2.6757-0.85586-4.321-0.025-5.2202-1.6431-4.2302-2.2304 1.3646-0.31042 2.9573-0.82936 6.9646-1.1532 8.9051-0.55542 3.3279-0.4189 3.5874 2.4059 4.5721 2.4651 0.85935 2.8837 1.396 2.3666 3.0344-0.34546 1.0947-0.94319 3.7609-1.3283 5.9249-0.38509 2.164-1.1362 4.4843-1.6691 5.1562-3.1574 3.9812-2.27 17.275 1.2424 18.61 2.8737 1.0926 2.8284 3.4436-0.12579 6.5271-4.3673 4.5584-4.594 34.678-0.26105 34.678 0.56397 0 0.65977-2.9663 0.25338-7.8451-0.61787-7.4173-0.5399-7.9247 1.4297-9.3043 3.5886-2.5135 4.812-1.1039 4.6155 5.3178-0.0966 3.1558 0.42476 8.48 1.1585 11.832 0.9563 4.3682 1.1298 8.2176 0.61261 13.594-0.95384 9.9157-0.9886 12.508-0.21887 16.325 0.47752 2.3676 0.26675 3.4764-0.81059 4.2642-1.3094 0.95744-1.3136 1.6262-0.0418 6.6441 0.77777 3.0687 1.7459 7.9631 2.1514 10.876 1.2869 9.2463 4.1883 10.485 5.2199 2.2281zm11.562-16.914c3.5534-8.2083 3.7686-13.167 0.60596-13.96-3.9703-0.99648-5.174 0.72728-5.174 7.4094 0 12.265 1.2921 14.118 4.568 6.551zm3.4008-34.478c2.2866-5.7146 2.1358-15.959-0.32385-22.012-1.1046-2.718-2.2715-7.3586-2.5931-10.312-0.32167-2.9539-1.5899-9.2311-2.8184-13.949-1.2284-4.7182-2.2381-9.9916-2.2436-11.719-6e-3 -1.7272-0.65704-5.2497-1.4477-7.8278-2.2766-7.4235-3.7159-36.947-1.8903-38.772 2.8728-2.8728 4.145 3.0831 4.2297 19.802 0.0531 10.472 0.198 11.282 2.8684 16.013 2.1258 3.7666 2.8125 6.1741 2.8125 9.8597 0 2.6819 0.62919 6.382 1.3982 8.2225s1.3694 4.6746 1.3342 6.298c-0.12848 5.9254 1.6488 15.236 3.6385 19.06 2.9501 5.6705 4.1971 6.0554 3.5671 1.1012-0.2857-2.2465-0.96397-7.8814-1.5072-12.522-0.54327-4.6406-1.3821-11.602-1.8641-15.469-0.91526-7.3438-1.9412-18.408-4.2595-45.937-3.5378-42.011-4.9261-46.846-15.381-53.57-7.6756-4.9362-10.033-3.6381-8.1629 4.494 1.3513 5.8747 1.2157 5.7964 7.7618 4.4843 7.6666-1.5367 13.111 18.774 6.8262 25.465-3.4519 3.6744-8.4243 2.892-10.798-1.6991-0.79238-1.5323-1.5957-2.631-1.7852-2.4415-0.43243 0.43243 1.9873 31.48 3.2382 41.548 0.51245 4.125 1.377 14.039 1.9212 22.031 3.5472 52.097 9.2518 73.417 15.48 57.851z" style="fill: inherit;"/></g></svg>