<svg version="1.0" xmlns="http://www.w3.org/2000/svg"
 width="1355.000000pt" height="2400.000000pt" viewBox="0 0 1355.000000 2400.000000"
 preserveAspectRatio="xMidYMid meet">

<g transform="translate(0.000000,2400.000000) scale(0.100000,-0.100000)"
fill="#000000" stroke="none">
<path d="M7641 23963 c-7 -16 -17 -71 -22 -123 -20 -220 -56 -375 -154 -665
-87 -260 -103 -349 -85 -481 13 -100 49 -206 80 -239 12 -13 51 -36 85 -51
l63 -27 6 -56 c13 -129 18 -252 12 -294 l-7 -45 -91 -13 c-81 -12 -91 -16
-101 -39 -8 -17 -11 -221 -12 -675 0 -634 5 -806 50 -1715 3 -63 10 -389 15
-725 6 -380 13 -624 20 -647 6 -21 22 -50 34 -65 22 -25 23 -30 11 -53 -29
-55 -45 -156 -60 -361 -9 -118 -27 -338 -40 -489 -32 -354 -32 -391 0 -455 14
-27 37 -66 51 -85 l26 -35 -5 -215 c-3 -118 -8 -227 -12 -241 -7 -25 -11 -27
-88 -34 -45 -3 -118 -13 -162 -20 -43 -8 -81 -12 -84 -10 -15 16 -74 481 -96
755 -8 107 -19 317 -25 465 -12 318 -19 396 -65 695 -44 284 -61 430 -80 700
-8 118 -17 242 -20 275 -3 33 -10 382 -15 775 -10 842 -22 1002 -94 1287 -38
149 -60 173 -178 188 -38 5 -47 10 -52 29 -15 62 -27 237 -21 311 l7 82 56 16
c111 31 169 111 179 243 10 127 -26 257 -104 372 -68 101 -79 127 -123 289
-23 81 -64 216 -92 298 -28 83 -60 176 -71 208 -22 62 -38 77 -62 57 -11 -9
-15 -35 -15 -105 0 -213 -38 -566 -92 -855 -24 -131 -29 -181 -25 -241 12
-160 79 -262 197 -302 l65 -23 17 -169 c9 -94 15 -178 12 -187 -5 -17 -28 -23
-182 -49 -56 -10 -76 -17 -84 -33 -17 -32 -24 -1067 -9 -1396 15 -328 35 -625
62 -929 l21 -234 -258 -257 -259 -258 -105 40 c-58 22 -107 42 -109 44 -12 12
-46 749 -61 1314 -6 223 -15 693 -19 1045 -10 775 0 722 -138 735 -41 4 -80
13 -86 19 -14 14 -15 370 -3 481 l8 65 76 50 c89 59 152 131 181 210 32 84 54
243 49 350 -3 83 -8 100 -39 161 -112 216 -129 253 -144 326 -19 97 -19 165 0
265 18 92 19 143 4 143 -39 0 -47 -16 -212 -395 -158 -363 -191 -479 -190
-675 1 -171 28 -240 123 -305 27 -18 40 -35 40 -50 0 -12 9 -42 19 -66 16 -37
18 -53 10 -99 -5 -30 -13 -144 -18 -253 -4 -108 -11 -200 -15 -204 -4 -4 -45
-15 -92 -24 -84 -17 -139 -42 -129 -58 2 -5 53 -12 112 -16 85 -6 113 -11 135
-28 l28 -21 24 23 c28 27 72 38 126 33 l37 -4 7 -75 c9 -111 7 -628 -4 -1113
-7 -279 -7 -500 0 -645 38 -873 43 -935 91 -1181 11 -57 11 -63 -11 -92 -13
-17 -36 -36 -52 -43 -27 -11 -32 -9 -61 18 -42 39 -104 80 -202 132 -44 23
-86 48 -94 56 -10 10 -17 81 -27 277 -13 257 -29 532 -79 1348 -34 551 -53
935 -65 1310 -12 341 -29 500 -59 540 -16 22 -27 26 -97 30 -43 3 -84 8 -90
12 -7 5 -14 61 -19 143 l-7 135 66 72 c115 125 151 220 176 460 21 195 -7 321
-105 467 -79 120 -83 135 -115 454 -12 119 -24 161 -43 155 -27 -9 -60 -106
-117 -353 -69 -297 -100 -399 -164 -543 -66 -147 -90 -239 -91 -347 0 -79 3
-97 29 -148 44 -90 121 -143 255 -177 l44 -11 -7 -61 c-3 -34 -6 -112 -6 -174
l0 -112 -50 -17 c-66 -22 -115 -69 -130 -125 -9 -34 -11 -139 -6 -425 4 -209
13 -749 21 -1200 23 -1283 34 -2110 40 -3025 6 -880 14 -1114 41 -1265 9 -49
17 -101 17 -114 l2 -23 -175 -2 c-147 -2 -188 -6 -255 -25 -94 -26 -186 -67
-251 -112 -41 -28 -44 -33 -31 -47 14 -14 26 -11 122 27 270 107 482 127 661
60 30 -12 98 -50 151 -85 118 -79 171 -95 316 -97 100 -2 118 1 167 23 53 24
64 25 250 25 174 0 203 -2 266 -22 38 -12 90 -36 115 -53 82 -58 174 -116 200
-127 25 -11 28 -9 50 25 29 44 83 82 117 82 13 0 48 13 76 29 56 32 192 66
301 76 130 12 309 -16 570 -90 303 -86 405 -85 603 8 193 92 343 126 495 113
110 -9 198 -46 346 -145 143 -96 222 -135 254 -127 13 3 74 40 137 81 146 97
194 122 288 147 109 28 318 35 437 15 124 -22 243 -58 368 -111 59 -26 111
-46 116 -46 5 0 42 30 83 68 145 131 286 209 422 233 86 15 168 7 269 -26 43
-14 95 -25 116 -25 35 0 39 3 50 39 42 141 217 232 476 248 88 5 112 2 202
-21 142 -36 169 -35 229 13 107 84 221 121 368 120 139 -1 150 -5 154 -54 3
-29 14 -51 46 -86 79 -88 100 -170 76 -291 -33 -171 -162 -318 -365 -418 -117
-57 -219 -87 -330 -96 -44 -3 -116 -17 -160 -30 -45 -13 -130 -29 -190 -35
-104 -10 -162 -24 -520 -119 -110 -30 -182 -43 -270 -49 -159 -12 -258 -3
-480 40 l-101 19 -45 -42 c-53 -50 -214 -116 -363 -150 -122 -27 -306 -27
-434 1 -94 21 -220 71 -292 116 l-41 26 22 36 22 35 -44 -7 c-24 -4 -102 -33
-174 -65 -183 -81 -268 -102 -442 -107 -328 -11 -561 51 -708 189 -62 58 -65
59 -65 33 0 -33 12 -56 67 -126 23 -30 43 -58 43 -61 0 -9 -200 -55 -321 -75
-147 -23 -478 -24 -619 -1 -137 22 -286 61 -374 98 -79 33 -189 111 -224 159
-25 34 -42 40 -42 16 0 -23 28 -74 68 -123 45 -56 38 -63 -93 -96 -306 -76
-594 -60 -900 51 -126 46 -160 70 -181 132 -16 43 -20 47 -43 42 -14 -3 -51
-25 -81 -48 -72 -55 -163 -99 -258 -126 -106 -29 -416 -31 -535 -4 -114 27
-205 76 -271 148 l-56 60 -32 -26 c-46 -39 -140 -84 -227 -107 -64 -18 -102
-21 -236 -21 -301 2 -500 68 -560 184 -14 27 -14 29 27 62 30 25 39 39 34 52
-5 13 -13 16 -39 11 -17 -3 -75 -9 -128 -12 -241 -17 -470 98 -560 281 -31 63
-33 76 -38 196 -5 100 -9 127 -19 120 -18 -11 -44 -175 -40 -256 5 -100 33
-151 149 -269 166 -169 197 -254 263 -733 3 -19 0 -33 -7 -36 -7 -2 -51 -2
-98 1 -164 9 -241 -41 -323 -210 -93 -191 -113 -324 -126 -803 -5 -213 -17
-444 -29 -565 -37 -373 -42 -479 -26 -554 31 -147 128 -246 242 -246 73 0 74
-3 53 -95 -30 -126 -43 -269 -36 -385 7 -122 24 -202 67 -318 17 -46 29 -85
26 -88 -2 -3 -40 -14 -83 -26 -87 -24 -423 -188 -594 -290 -266 -159 -511
-367 -633 -536 -94 -131 -237 -438 -286 -612 -60 -219 -86 -528 -78 -943 6
-286 13 -346 60 -482 54 -156 130 -277 256 -408 153 -159 340 -283 583 -385
182 -77 308 -115 643 -196 692 -166 1212 -231 2375 -296 871 -48 1128 -65
1195 -75 l30 -5 0 -257 c0 -284 12 -387 66 -578 109 -391 365 -711 707 -885
l59 -30 7 -422 c4 -233 14 -520 22 -638 22 -290 22 -596 1 -722 -42 -243 -154
-476 -329 -675 -115 -132 -209 -259 -278 -373 -74 -123 -188 -274 -296 -392
-269 -293 -600 -532 -1256 -909 -156 -89 -313 -179 -349 -200 -118 -68 -202
-188 -203 -291 -1 -39 4 -52 28 -77 45 -47 118 -68 349 -101 117 -17 244 -37
284 -45 337 -68 881 -90 1563 -65 146 6 468 15 715 20 248 5 509 15 580 21
168 14 1299 13 1575 -2 119 -7 226 -18 255 -26 27 -8 93 -17 146 -20 114 -6
203 8 492 77 114 28 216 50 226 50 28 0 96 139 87 177 -17 64 -166 220 -307
319 -203 145 -335 209 -539 264 -194 52 -478 202 -646 343 -198 165 -341 343
-665 830 -323 485 -429 619 -502 634 -16 3 -30 11 -32 17 -180 586 -173 556
-190 846 -12 208 -35 999 -35 1240 l0 75 92 60 c122 79 285 241 367 364 149
224 239 467 276 746 23 172 18 465 -10 596 l-6 26 158 16 c160 17 422 41 1058
97 761 66 1256 131 1770 230 83 16 296 57 475 90 649 123 949 203 1280 345
209 89 440 222 558 323 123 104 215 280 251 479 24 131 31 231 42 584 12 417
-1 951 -26 1073 -39 189 -186 372 -447 559 -96 68 -205 129 -383 212 -71 34
-177 91 -234 128 -57 37 -138 84 -179 104 l-74 38 5 230 c7 262 10 275 117
610 108 338 138 482 147 710 7 172 -4 378 -18 352 -5 -9 -14 -67 -19 -129 -25
-283 -32 -341 -56 -458 -56 -273 -245 -824 -313 -915 -75 -99 -181 -154 -317
-162 -75 -5 -82 -4 -102 18 -12 12 -22 30 -22 40 0 9 -9 27 -19 40 l-19 24 -7
-47 c-8 -54 6 -91 48 -122 22 -16 42 -20 100 -20 113 1 213 36 337 118 l55 36
3 -60 c2 -33 -4 -153 -13 -268 -27 -364 -35 -509 -45 -887 -13 -477 -31 -607
-110 -771 -73 -152 -194 -256 -446 -382 -266 -133 -520 -205 -1104 -312 -562
-104 -771 -131 -1155 -150 -250 -13 -727 -10 -732 5 -1 6 22 23 53 39 154 81
245 280 214 469 -15 86 -64 198 -111 251 -18 22 -126 118 -239 214 -113 97
-246 218 -297 269 -50 51 -94 93 -97 93 -10 0 14 -51 46 -98 38 -55 218 -231
374 -365 138 -119 196 -184 237 -267 30 -60 32 -72 31 -165 -1 -130 -25 -198
-98 -270 -149 -146 -415 -119 -633 64 -124 105 -227 257 -427 628 -122 226
-144 286 -233 626 -16 60 -33 108 -38 109 -15 0 -39 -85 -80 -282 -155 -746
-333 -1147 -557 -1259 -55 -28 -71 -31 -152 -31 -158 0 -196 22 -196 116 0 93
42 188 170 384 196 301 320 632 374 1001 9 59 16 124 16 145 0 82 -30 8 -70
-171 -97 -433 -179 -636 -383 -950 -137 -210 -169 -285 -175 -414 l-5 -94
-207 7 c-501 16 -1116 82 -1630 175 -1102 199 -1719 503 -1780 876 -14 87 -13
840 1 868 6 12 29 45 50 73 63 82 70 115 72 324 1 119 -3 206 -12 243 -25 115
-37 66 -51 -223 -10 -203 -18 -235 -72 -286 -31 -30 -97 -70 -102 -62 -1 2
-20 57 -40 123 -21 66 -80 210 -132 321 -124 267 -139 320 -138 499 0 124 4
155 33 273 29 117 39 141 86 213 65 97 89 159 121 307 26 119 30 177 14 187
-14 9 -33 -34 -88 -202 -67 -201 -109 -264 -200 -305 -55 -25 -92 -17 -138 29
-44 44 -70 104 -85 191 -12 74 -9 106 27 392 15 123 28 295 34 465 17 463 30
644 51 749 46 229 132 368 237 385 57 10 208 -6 281 -28 118 -36 168 -99 196
-245 20 -105 19 -198 -4 -288 -18 -69 -29 -88 -119 -205 -54 -70 -105 -129
-114 -131 -8 -1 -35 16 -61 38 -35 31 -54 41 -74 38 -44 -5 -41 -37 8 -73 78
-58 82 -70 77 -283 -4 -168 -7 -195 -31 -267 -43 -131 -59 -139 -131 -68 -54
54 -70 119 -63 257 5 116 28 220 71 328 14 34 23 64 20 67 -13 13 -63 -43 -96
-109 -99 -198 -104 -449 -12 -581 57 -83 160 -114 210 -64 39 39 52 83 79 256
14 88 29 168 34 177 5 10 5 26 -1 41 -5 15 -10 58 -11 97 -3 100 -20 77 446
602 117 132 259 254 337 291 45 21 70 26 135 26 108 0 174 -32 270 -130 129
-131 195 -278 225 -500 17 -127 24 -612 11 -750 -29 -300 -97 -490 -216 -611
-80 -81 -143 -105 -272 -105 -319 1 -481 80 -749 365 -60 64 -112 116 -116
116 -16 0 -7 -24 26 -70 47 -65 59 -90 95 -200 51 -152 206 -436 322 -590 33
-44 111 -131 172 -193 124 -124 167 -191 192 -302 9 -37 15 -87 13 -112 l-3
-44 -86 63 c-47 35 -121 79 -165 98 -108 46 -194 104 -313 211 -216 195 -258
297 -307 758 -14 129 -27 238 -30 243 -3 5 -12 4 -20 -3 -28 -23 -11 -419 27
-602 36 -179 112 -319 244 -453 106 -108 184 -154 388 -228 71 -26 153 -85
242 -175 44 -45 83 -81 87 -81 5 0 8 9 8 21 0 31 18 58 86 131 39 42 67 81 73
105 16 56 13 220 -4 288 -36 141 -141 298 -254 380 -184 132 -261 199 -261
224 0 4 39 2 88 -5 107 -16 291 -17 362 -4 204 39 325 188 391 483 90 404 95
850 14 1162 -67 259 -206 464 -362 538 -60 27 -78 31 -153 31 -188 0 -346 -97
-546 -335 -95 -112 -101 -110 -107 54 -5 159 -22 218 -80 290 -32 38 -63 62
-118 90 -40 20 -79 41 -85 46 -6 5 -14 58 -18 118 -13 206 -35 308 -88 426
-18 40 -28 71 -22 76 11 10 338 -26 342 -38 12 -35 70 -107 107 -133 111 -79
243 -106 520 -110 210 -2 251 7 395 90 l85 50 55 -52 c136 -129 325 -185 618
-186 144 0 228 21 375 95 l129 64 61 -46 c188 -138 420 -199 721 -190 207 6
346 41 479 121 l56 34 114 -49 c225 -97 498 -148 731 -136 192 10 431 60 607
128 l76 29 64 -24 c123 -46 252 -68 404 -69 221 0 384 35 577 125 l86 41 71
-47 c90 -60 218 -119 301 -140 36 -9 113 -21 172 -27 183 -19 379 24 582 129
129 67 153 69 316 33 131 -29 317 -38 431 -22 46 7 154 33 239 58 85 25 200
58 255 75 55 16 145 36 200 44 55 9 143 28 195 44 60 19 137 33 211 40 66 6
142 19 175 31 99 35 133 43 141 36 4 -4 1 -29 -7 -55 -10 -33 -15 -102 -16
-233 l0 -187 -28 -32 c-64 -77 -78 -134 -77 -327 1 -121 -2 -155 -13 -159 -7
-3 -48 20 -90 50 -457 328 -766 311 -937 -49 -49 -104 -75 -195 -111 -392 -29
-163 -31 -468 -4 -593 59 -272 169 -450 323 -523 60 -28 78 -32 153 -32 97 0
143 19 217 86 24 22 49 39 58 39 8 0 15 8 15 17 0 13 3 14 11 6 13 -13 13 -13
-91 -176 -84 -134 -185 -335 -216 -432 -34 -105 -43 -248 -21 -326 21 -72 52
-101 114 -106 41 -4 61 2 129 35 53 26 90 52 106 74 14 18 59 78 100 134 134
180 230 375 295 599 37 129 77 350 88 480 10 133 -15 72 -84 -201 -119 -469
-200 -648 -379 -836 -41 -43 -77 -77 -79 -75 -1 2 33 84 78 183 148 329 244
589 309 838 53 202 46 207 -28 20 -22 -54 -90 -216 -152 -359 -61 -143 -133
-314 -160 -380 -46 -116 -120 -329 -120 -346 0 -5 9 -9 20 -9 32 0 9 -34 -44
-65 -76 -45 -124 -27 -146 56 -28 104 40 295 227 637 121 221 192 377 219 485
25 94 61 130 193 193 77 36 101 52 101 67 0 18 -5 19 -52 13 -73 -10 -121 -34
-208 -105 -41 -33 -79 -61 -85 -61 -5 0 -28 10 -49 23 -79 44 -140 165 -166
328 -17 107 -10 364 12 405 17 30 54 54 86 54 46 0 145 -36 300 -110 93 -44
176 -80 183 -80 8 1 -11 24 -41 51 -103 95 -386 210 -478 196 -48 -8 -79 -31
-101 -75 -40 -80 -50 -193 -31 -352 14 -109 58 -306 77 -345 26 -51 74 -94
125 -111 26 -8 50 -20 54 -25 8 -14 -128 -201 -200 -274 -98 -99 -180 -117
-299 -62 -126 57 -222 212 -272 437 -26 116 -32 454 -11 598 43 293 149 508
284 574 39 19 63 23 137 22 186 0 391 -90 590 -259 88 -74 183 -125 232 -125
26 0 41 11 87 62 62 68 109 156 104 193 -3 21 -9 16 -53 -42 -27 -36 -61 -78
-75 -92 l-25 -26 -3 58 c-6 112 38 226 117 302 23 22 41 43 41 48 0 16 -59 6
-91 -16 -60 -40 -100 -144 -145 -377 l-6 -34 -23 27 c-34 39 -49 125 -41 242
9 149 30 236 62 260 14 11 45 39 67 62 23 23 59 49 79 58 47 19 130 19 167 1
61 -32 117 -119 148 -231 19 -71 116 -910 132 -1148 11 -161 8 -183 -35 -222
-42 -39 -103 -35 -153 10 -64 58 -84 39 -32 -33 66 -91 201 -76 260 29 18 32
21 54 21 160 0 170 -7 246 -90 1029 -25 238 -108 408 -225 461 -45 21 -157 25
-201 8 -16 -5 -39 -7 -52 -4 l-25 6 6 147 c8 214 37 298 129 374 151 126 197
185 246 316 17 48 25 89 26 143 1 71 -2 81 -46 170 -30 61 -50 118 -58 164
-21 130 -122 295 -218 356 -73 46 -112 54 -279 51 l-153 -2 -25 51 c-35 69
-95 125 -146 139 -82 22 -389 -10 -389 -40 0 -17 97 -30 217 -30 162 0 178 -7
252 -116 l53 -79 117 4 c231 7 343 -44 416 -190 19 -36 22 -51 13 -54 -7 -2
-67 -6 -133 -8 -157 -6 -244 -35 -366 -124 -26 -18 -52 -33 -59 -33 -7 0 -50
12 -97 26 -106 32 -150 34 -336 11 -82 -10 -151 -16 -154 -13 -7 7 20 393 58
831 37 438 89 949 178 1775 91 829 134 1246 171 1653 27 293 30 365 29 675 0
191 -4 380 -8 420 -9 96 -21 107 -114 108 l-72 1 -5 185 c-4 154 -8 188 -23
211 -13 21 -15 28 -5 32 141 49 197 89 229 160 28 64 42 185 36 303 -8 163
-53 287 -153 422 -63 85 -123 200 -174 330 -58 150 -68 170 -84 170 -22 0 -34
-52 -40 -175 -6 -114 -28 -216 -90 -420 -19 -60 -42 -137 -52 -170 -14 -44
-19 -94 -19 -190 0 -125 1 -132 31 -196 23 -47 58 -95 122 -161 99 -104 114
-129 130 -204 16 -72 26 -225 18 -267 l-7 -35 -68 -7 c-67 -7 -69 -8 -84 -43
-23 -54 -23 -55 -67 -592 -22 -272 -51 -598 -65 -725 -13 -126 -42 -417 -64
-645 -22 -228 -58 -606 -81 -840 -51 -536 -120 -1157 -165 -1500 -38 -280 -94
-663 -100 -668 -20 -20 -16 1061 5 1618 28 717 118 2181 165 2680 39 411 41
814 5 893 -17 35 -50 43 -114 29 -114 -27 -173 -35 -199 -28 l-27 6 0 180 0
181 41 52 c69 86 99 160 99 243 0 76 -48 342 -81 451 -29 94 -90 208 -145 271
-95 109 -114 95 -114 -84 0 -196 -19 -345 -66 -516 -16 -59 -17 -76 -6 -125 6
-32 26 -87 44 -123 27 -53 44 -73 96 -108 l62 -43 -1 -162 c-1 -89 -4 -175 -8
-192 -6 -29 -9 -30 -75 -37 -44 -4 -79 -14 -95 -26 -59 -43 -55 18 -62 -1162
-4 -646 -11 -1146 -18 -1235 -25 -337 -48 -546 -87 -797 l-17 -108 -41 0 c-96
0 -190 -39 -358 -148 -109 -70 -265 -157 -270 -150 -1 2 -4 626 -7 1386 l-6
1384 -28 24 c-22 18 -40 24 -80 24 -53 1 -134 13 -143 22 -9 10 18 284 33 327
10 28 43 73 95 128 44 46 88 104 99 128 39 88 34 255 -11 390 -11 33 -76 152
-144 265 -148 247 -157 253 -168 113 -9 -115 -20 -158 -65 -247 -47 -93 -51
-150 -23 -296 13 -68 23 -168 26 -245 5 -160 7 -182 46 -376 17 -86 29 -163
25 -172 -3 -8 -24 -18 -46 -22 -51 -8 -52 -22 -3 -41 62 -24 67 -29 78 -80
l11 -49 15 36 c9 20 26 44 39 53 31 21 127 22 157 0 l22 -15 0 -1173 c0 -645
-3 -1275 -7 -1401 l-6 -228 -63 -28 c-81 -37 -198 -76 -252 -85 l-42 -7 0 184
c0 101 7 297 15 434 18 299 20 1297 4 1630 -15 337 -54 711 -70 683 -15 -26
-14 -424 0 -983 14 -546 10 -1073 -9 -1210 -5 -38 -13 -206 -16 -371 l-7 -302
-66 -6 c-36 -4 -98 -18 -138 -32 -41 -13 -77 -24 -82 -24 -5 0 -82 80 -170
178 -211 233 -322 327 -459 391 -28 13 -54 31 -59 40 -4 9 -10 734 -14 1611
-4 877 -10 1627 -14 1665 -3 39 -10 140 -16 225 -5 85 -14 172 -20 192 -15 59
-54 84 -144 92 -131 12 -125 3 -125 185 l0 156 59 28 c109 53 227 180 287 311
32 70 42 186 25 278 -16 80 -75 203 -142 293 -114 155 -188 357 -225 623 -20
143 -37 173 -63 115z m54 -501 c12 -51 82 -178 157 -288 91 -133 118 -201 125
-310 5 -66 2 -93 -16 -147 -37 -111 -182 -291 -241 -299 -23 -3 -25 0 -22 32
2 19 12 87 23 150 37 217 35 409 -5 505 l-13 30 -16 -31 c-11 -21 -21 -92 -31
-231 -14 -181 -32 -306 -51 -355 -19 -49 -90 7 -125 97 -20 51 -23 79 -23 185
0 121 1 128 42 245 23 66 64 194 92 285 27 91 52 171 55 179 6 20 40 -12 49
-47z m-3109 -249 c21 -72 50 -131 113 -227 62 -96 76 -151 75 -301 -1 -131
-18 -216 -59 -301 -24 -49 -60 -92 -70 -82 -12 11 -25 155 -25 278 0 74 -3
152 -6 172 -6 32 -9 36 -25 28 -64 -35 -67 -311 -5 -514 8 -27 13 -53 11 -57
-9 -14 -76 -20 -115 -9 -23 6 -59 27 -80 46 -116 105 -107 239 35 578 20 48
57 169 82 267 25 99 47 179 49 179 2 0 11 -26 20 -57z m739 -350 c16 -43 52
-130 81 -193 38 -83 56 -136 64 -189 26 -187 -51 -397 -174 -472 -29 -17 -30
-17 -75 6 -60 30 -104 78 -133 140 -30 68 -30 205 1 324 38 144 181 478 200
467 5 -3 21 -41 36 -83z m1116 -241 c38 -166 76 -271 129 -346 79 -112 110
-205 110 -322 -1 -90 -26 -147 -75 -171 -22 -10 -39 -13 -45 -7 -5 5 -18 83
-30 173 -28 224 -33 241 -58 186 -18 -39 -15 -93 13 -222 14 -65 28 -130 31
-145 6 -24 3 -28 -35 -39 -59 -17 -110 0 -155 53 -79 92 -83 195 -22 538 47
265 66 391 66 433 0 19 3 43 7 53 10 28 29 -24 64 -184z m5038 97 c13 -24 66
-109 116 -189 122 -192 155 -295 155 -485 0 -106 -19 -180 -57 -226 -26 -30
-90 -66 -100 -55 -3 3 -7 36 -9 73 -19 294 -42 444 -78 495 -15 21 -15 21 -22
-6 -3 -15 -1 -76 5 -137 16 -153 26 -469 15 -469 -16 0 -68 36 -103 71 -100
102 -146 258 -122 412 7 37 34 137 61 223 27 85 56 190 64 232 25 130 34 137
75 61z m-880 -154 c47 -94 64 -159 91 -332 32 -204 25 -268 -35 -347 -21 -27
-30 -34 -37 -24 -4 7 -5 76 -2 153 6 136 -4 225 -25 225 -16 0 -21 -45 -21
-197 0 -173 -2 -177 -66 -120 -79 68 -96 156 -61 312 33 145 36 167 46 316 5
70 12 132 16 139 11 18 48 -30 94 -125z m-2950 -683 c24 -17 25 -17 47 5 20
20 33 23 92 23 54 0 75 -4 93 -19 l24 -19 6 -1499 c4 -826 11 -1594 17 -1711
6 -117 14 -270 18 -339 l7 -126 -81 7 c-75 6 -90 4 -177 -25 -53 -18 -99 -29
-103 -25 -4 4 -8 175 -9 379 -4 451 -17 924 -43 1517 -38 845 -50 1175 -57
1506 l-6 333 29 6 c16 4 34 8 39 11 20 7 80 -6 104 -24z m1658 -114 c79 -122
121 -240 130 -368 7 -102 -10 -173 -59 -246 -28 -40 -124 -121 -134 -111 -2 1
10 43 25 92 51 165 59 249 29 343 -6 22 -15 32 -25 30 -13 -2 -16 -23 -18
-113 -2 -80 -8 -128 -24 -177 -23 -70 -41 -95 -41 -56 -2 83 -22 234 -41 293
-27 89 -22 145 25 262 19 48 40 101 46 117 9 25 12 27 27 15 9 -8 36 -44 60
-81z m-4527 -235 c0 -398 47 -1342 125 -2538 22 -334 29 -543 21 -607 l-7 -56
-119 -4 c-116 -3 -120 -4 -149 -32 -36 -35 -61 -98 -97 -244 -15 -59 -30 -110
-33 -115 -16 -17 -87 2099 -106 3143 -3 168 -8 357 -11 420 l-5 115 41 24 c31
17 57 23 103 23 34 0 68 4 74 10 18 15 125 57 146 58 16 0 17 -16 17 -197z
m6151 -293 c14 -145 7 -305 -31 -660 -88 -822 -153 -2252 -182 -3982 l-12
-757 -48 -11 c-177 -37 -413 46 -457 161 -5 15 -13 132 -17 262 l-7 235 70 69
c184 185 257 501 208 915 -23 196 -58 345 -104 444 -23 48 -44 104 -47 125 -4
20 1 93 10 161 80 615 94 1027 71 2171 -9 461 -14 854 -11 872 12 64 34 72
228 78 128 4 190 10 238 25 36 10 68 16 72 13 4 -3 12 -58 19 -121z m-4298
-67 c72 -11 86 -68 116 -453 27 -349 30 -407 41 -870 15 -578 33 -902 81
-1430 21 -242 40 -363 76 -497 41 -154 41 -159 34 -803 -2 -140 2 -318 9 -395
13 -158 52 -460 75 -578 16 -86 9 -123 -33 -161 -21 -18 -22 -18 -117 43 -52
34 -115 71 -138 81 -57 25 -153 50 -194 50 -39 0 -37 -8 -53 244 l-11 179 79
81 c95 98 121 140 129 204 10 88 -22 140 -221 355 -89 97 -115 132 -107 140 8
8 69 12 189 12 149 0 184 3 220 19 52 23 88 64 103 119 14 52 6 201 -22 387
-11 74 -27 184 -35 245 -32 227 -85 377 -179 504 -25 34 -60 70 -78 81 -45 28
-119 26 -184 -5 -29 -13 -53 -23 -53 -21 0 2 -7 68 -15 147 -34 334 -54 705
-80 1534 -8 259 -18 531 -21 606 l-7 135 31 13 c75 31 272 50 365 34z m5082
-225 c14 -436 -18 -846 -145 -1853 -33 -258 -73 -607 -90 -775 -17 -168 -57
-537 -90 -820 -84 -730 -116 -1063 -141 -1445 -9 -154 -13 -174 -35 -208 l-25
-38 28 -51 28 -51 -35 -26 c-68 -51 -122 -105 -146 -147 l-25 -43 -52 16
c-107 31 -127 43 -127 72 0 34 71 732 165 1621 187 1774 271 2679 335 3620 12
173 23 316 24 317 2 3 224 19 287 22 l37 1 7 -212z m-2495 28 c0 -3 -4 -8 -10
-11 -5 -3 -10 -1 -10 4 0 6 5 11 10 11 6 0 10 -2 10 -4z m-2646 -2320 c46 -48
101 -158 131 -261 46 -158 135 -688 135 -801 0 -52 -21 -98 -53 -116 -23 -13
-245 -14 -522 -2 -151 6 -207 19 -324 77 l-65 32 3 65 c2 80 -19 204 -54 315
l-27 84 33 28 c66 54 157 140 364 343 116 114 228 221 250 238 53 43 88 42
129 -2z m-1678 -407 c65 -20 193 -82 384 -185 47 -25 86 -47 88 -49 5 -4 -20
-139 -27 -147 -3 -3 -69 5 -146 18 -77 13 -164 24 -193 24 -50 0 -53 -2 -50
-22 2 -16 14 -27 39 -35 55 -18 181 -33 275 -33 83 0 84 0 90 -27 18 -86 50
-177 85 -242 l39 -73 -41 -82 c-48 -94 -97 -168 -184 -281 -98 -127 -169 -165
-305 -165 -169 0 -174 5 -262 266 -81 241 -93 316 -85 534 7 174 45 411 73
459 37 62 107 75 220 40z m3063 -144 c182 -48 295 -124 478 -322 59 -65 139
-150 176 -189 l68 -71 -15 -94 c-27 -172 -36 -265 -37 -395 l-1 -129 -44 -42
c-119 -115 -287 -214 -431 -255 -91 -26 -268 -30 -343 -9 -79 22 -186 79 -228
121 -62 63 -76 110 -69 233 49 808 60 937 87 1011 23 61 82 122 136 141 51 18
155 18 223 0z m-2293 -40 c68 -52 127 -222 127 -366 0 -72 -4 -93 -24 -129
-51 -92 -125 -102 -203 -26 -75 74 -125 197 -142 354 l-7 63 44 46 c85 88 144
105 205 58z m4579 -115 c71 -69 97 -180 116 -503 29 -499 -17 -682 -211 -840
-124 -101 -251 -142 -420 -135 -94 4 -113 8 -180 40 -41 19 -100 56 -130 82
-30 26 -79 60 -109 77 -30 17 -77 54 -104 82 -56 57 -157 190 -157 206 0 22
51 171 59 171 4 0 46 -23 92 -52 250 -153 322 -186 430 -195 39 -3 88 0 118 7
51 12 51 13 31 27 -12 9 -68 29 -124 45 -62 18 -179 67 -307 128 -113 55 -211
100 -217 100 -17 0 -25 95 -17 216 7 113 7 114 33 120 254 55 400 119 612 265
293 202 403 238 485 159z m-1252 -408 c29 -26 40 -89 33 -204 -7 -134 -39
-295 -71 -359 -61 -119 -162 -183 -207 -131 -41 46 -48 78 -48 209 1 176 22
343 48 385 12 18 28 47 35 64 27 58 159 81 210 36z m-3037 -67 c87 -58 156
-83 246 -92 l71 -6 107 -111 c270 -279 332 -376 285 -443 -27 -38 -354 -272
-389 -279 -44 -8 -81 12 -149 79 -66 64 -89 107 -117 218 -12 46 -48 172 -80
280 -87 290 -103 356 -90 379 16 30 40 25 116 -25z m-182 -117 c56 -212 133
-529 186 -763 106 -466 230 -936 267 -1009 31 -63 75 -87 90 -51 12 33 -89
481 -205 908 -29 104 -29 107 -10 107 12 0 38 -15 59 -34 63 -58 125 -59 237
-6 l62 29 0 -184 0 -184 -73 -35 c-80 -38 -127 -76 -127 -102 0 -19 15 -17
105 17 82 31 230 31 325 -1 88 -29 181 -81 260 -144 100 -80 120 -79 120 5 0
40 4 44 55 40 15 -1 26 9 38 33 10 22 31 43 56 55 38 20 66 25 218 36 l71 5
26 -45 c44 -75 86 -79 86 -8 0 19 5 33 13 34 38 3 75 -6 130 -32 34 -16 75
-29 91 -29 l30 0 -35 36 c-34 36 -114 81 -181 103 -20 7 -39 20 -43 29 -10 23
-19 334 -11 365 l6 25 75 -24 c41 -13 128 -31 195 -41 140 -20 134 -1 56 -173
-42 -95 -51 -124 -51 -171 0 -69 12 -84 130 -168 276 -195 321 -212 395 -145
45 41 107 135 141 214 30 73 48 100 65 100 10 0 13 -7 9 -22 -16 -72 -37 -240
-56 -457 -21 -232 -21 -248 -5 -285 15 -35 18 -38 31 -25 21 21 42 141 65 367
11 106 38 313 59 460 22 147 45 314 51 372 17 162 18 166 46 178 39 19 63 15
69 -11 8 -30 -97 -795 -173 -1263 -10 -61 -16 -116 -14 -123 7 -22 50 -12 69
17 43 63 60 126 108 406 19 115 37 211 39 213 2 3 14 -26 27 -64 41 -126 62
-140 221 -149 237 -14 401 31 455 124 26 44 28 54 28 166 l0 119 50 18 c74 26
126 23 206 -11 38 -16 69 -25 69 -19 0 28 -34 69 -73 88 -52 25 -99 26 -203 5
l-78 -16 -22 28 c-21 26 -46 98 -37 107 2 3 21 1 41 -4 95 -22 296 -3 416 40
44 15 63 18 73 10 10 -9 13 -57 13 -214 0 -154 4 -213 15 -245 32 -90 113
-159 235 -200 56 -19 79 -21 170 -16 58 3 116 6 129 8 18 2 28 -4 37 -21 7
-13 20 -28 29 -33 23 -14 34 -49 26 -88 -6 -32 -7 -33 -131 -66 -171 -47 -231
-78 -349 -184 -81 -73 -106 -90 -131 -90 -18 0 -83 23 -146 50 -132 59 -231
86 -364 101 -269 30 -577 -65 -769 -237 l-50 -45 -46 20 c-25 11 -99 58 -164
105 -205 147 -273 171 -471 163 -158 -6 -257 -34 -435 -122 -83 -41 -148 -66
-180 -70 -68 -9 -216 17 -356 60 -260 82 -380 101 -574 91 -73 -3 -181 -17
-245 -30 -63 -13 -118 -21 -121 -18 -14 14 -151 419 -238 702 -50 162 -158
529 -240 815 -166 577 -161 544 -77 546 23 0 50 4 61 9 11 5 23 9 26 9 4 1 14
-27 23 -61z m-1195 -84 c26 -65 58 -150 71 -189 49 -152 73 -175 213 -209 l92
-23 21 -144 c51 -346 89 -930 65 -1009 -14 -47 -36 -56 -166 -64 -73 -5 -313
8 -321 17 -8 8 -36 340 -45 527 -12 260 -2 1237 13 1222 5 -5 30 -62 57 -128z
m1028 -170 c69 -318 73 -370 52 -608 -13 -147 -17 -157 -67 -149 -72 10 -249
74 -337 122 l-90 49 3 48 c7 112 61 294 134 454 70 153 211 384 231 377 7 -2
38 -125 74 -293z m-447 -228 c0 -23 -44 -164 -62 -199 -15 -30 -25 -11 -43 84
-18 102 -16 108 50 128 47 14 55 13 55 -13z m3919 -86 c77 -111 155 -196 237
-256 92 -68 114 -97 163 -214 57 -139 80 -216 87 -290 6 -61 5 -68 -20 -97
-43 -51 -86 -61 -274 -69 -93 -4 -181 -4 -195 0 -31 7 -49 56 -71 191 -8 50
-22 130 -31 179 -13 71 -16 142 -13 342 3 252 3 252 27 278 14 15 28 23 31 19
4 -5 31 -42 59 -83z m-408 17 c8 -7 30 -24 47 -38 l31 -27 -39 -213 c-25 -136
-44 -215 -52 -218 -32 -10 -98 -98 -158 -210 -36 -68 -84 -143 -108 -167 l-43
-45 -47 27 c-102 59 -281 184 -301 210 -27 35 -26 38 47 222 l58 143 82 28
c115 40 209 97 342 206 63 52 117 95 120 95 3 0 12 -6 21 -13z m-2732 -929
c100 -306 181 -563 181 -570 0 -8 -27 -38 -61 -67 l-61 -54 -31 24 c-228 170
-326 200 -573 174 -94 -9 -164 -22 -201 -37 -48 -18 -77 -22 -168 -22 -137 1
-185 18 -331 116 -152 103 -153 98 27 98 247 1 361 26 393 87 37 73 44 364 15
629 -7 60 -10 118 -6 127 10 27 40 21 175 -37 164 -69 221 -86 299 -86 83 0
103 19 128 119 9 40 21 69 25 64 4 -4 89 -259 189 -565z m2698 305 c-3 -10 -5
-4 -5 12 0 17 2 24 5 18 2 -7 2 -21 0 -30z m-5692 -4168 c49 -50 134 -138 187
-196 53 -58 129 -132 170 -164 40 -32 92 -81 115 -108 95 -112 150 -265 140
-387 -6 -72 -36 -162 -52 -157 -12 4 -26 46 -48 140 -30 124 -60 171 -192 302
-220 219 -475 579 -475 673 0 23 0 23 32 5 18 -10 73 -59 123 -108z m-657
-1175 c35 -69 62 -142 80 -214 l27 -109 48 -31 48 -31 -5 -95 c-3 -52 -6 -141
-6 -198 l0 -102 -56 -36 c-30 -19 -112 -58 -182 -85 -180 -71 -402 -224 -600
-413 -161 -154 -281 -338 -327 -499 l-17 -58 -66 37 c-178 98 -337 242 -399
360 -139 262 -47 566 266 887 193 198 466 393 752 538 149 75 348 160 369 156
8 -1 39 -49 68 -107z m10066 -4 c61 -41 194 -120 296 -177 305 -168 414 -243
532 -365 117 -122 155 -178 189 -276 29 -88 23 -249 -14 -356 -63 -182 -223
-380 -389 -483 l-48 -29 0 63 c-1 211 -67 375 -207 508 -52 50 -142 114 -210
148 -59 30 -196 68 -275 76 -37 4 -74 12 -83 19 -13 10 -14 63 -6 484 6 259
12 476 16 481 10 18 86 -18 199 -93z m-9889 -883 c5 -10 11 -99 15 -198 6
-151 10 -189 29 -236 97 -251 401 -478 816 -609 863 -275 1830 -420 3060 -460
182 -6 607 -19 945 -30 673 -22 1480 -26 1802 -10 440 23 751 60 1213 145 724
133 1026 234 1361 454 173 113 261 215 326 381 39 100 70 245 84 398 6 67 8
73 33 79 38 10 256 -48 349 -93 111 -53 233 -177 290 -294 51 -104 71 -178 79
-291 l6 -87 -104 -62 c-169 -101 -510 -265 -724 -349 -922 -363 -1950 -543
-3420 -601 -357 -14 -1643 -33 -1735 -26 -41 4 -457 11 -925 16 -937 11 -1422
28 -1860 65 -873 74 -1550 226 -2185 491 -113 47 -469 223 -522 258 -33 22
-37 63 -12 147 38 128 123 251 297 428 176 179 307 270 603 420 87 44 162 81
165 81 4 0 10 -8 14 -17z m4845 -238 c135 -458 347 -816 603 -1023 85 -68 110
-85 200 -133 l68 -36 -218 -6 c-393 -12 -879 -3 -1130 21 l-72 7 65 100 c160
243 259 515 375 1023 38 167 55 227 60 210 4 -12 26 -86 49 -163z m6100 -740
c-25 -552 -46 -717 -110 -850 -61 -128 -219 -267 -430 -378 -312 -164 -1106
-392 -1800 -516 -719 -129 -1356 -206 -2450 -296 -168 -14 -372 -32 -455 -40
-377 -36 -486 -40 -1100 -40 -341 0 -776 4 -966 9 l-346 8 -17 34 c-19 41 -31
43 -48 7 l-13 -28 -150 3 c-413 8 -770 26 -1770 92 -527 34 -702 59 -1372 194
-392 79 -652 148 -842 223 -605 239 -866 547 -922 1093 -16 150 -6 474 20 695
28 233 33 265 41 265 3 0 14 -17 24 -37 155 -330 598 -655 1236 -906 726 -286
1492 -432 2570 -492 788 -44 2957 -70 3710 -46 1852 60 3176 292 4105 718 233
107 467 247 655 392 109 84 310 285 380 380 l55 74 3 -154 c2 -85 -1 -266 -8
-404z m-6338 -2232 l736 -6 13 -26 c16 -33 24 -247 10 -283 -19 -50 -49 -60
-244 -79 -160 -16 -246 -18 -712 -13 -291 2 -568 9 -615 15 -118 14 -347 72
-439 111 l-76 33 -3 128 -3 127 299 0 c164 0 630 -3 1034 -7z m-1239 -382 c71
-31 253 -79 382 -102 170 -29 528 -38 676 -15 114 17 197 20 274 10 l47 -7 -7
-46 c-64 -460 -107 -624 -211 -801 -64 -109 -202 -280 -248 -307 -34 -20 -80
-15 -170 18 -143 52 -306 162 -448 303 -194 192 -320 484 -357 828 -17 156
-19 153 62 119z m1997 -158 c-1 -169 -55 -359 -161 -562 -80 -153 -156 -259
-258 -362 -75 -74 -175 -148 -186 -137 -2 2 35 55 82 118 239 321 361 606 393
919 6 52 12 97 15 99 6 6 66 20 93 21 21 1 22 -2 22 -96z m-224 -30 c-20 -259
-103 -477 -291 -758 -126 -188 -216 -300 -273 -336 -42 -27 -53 -30 -104 -26
-96 8 -96 9 3 132 181 226 239 359 289 665 11 69 32 187 46 262 l26 137 77 4
c42 1 111 4 155 5 l79 2 -7 -87z m-643 -1239 c135 -7 139 -8 148 -31 6 -15 5
-95 -2 -211 -15 -247 -15 -764 0 -927 23 -253 52 -421 107 -604 86 -292 115
-423 121 -543 l6 -117 -30 -30 c-16 -16 -49 -35 -72 -41 -71 -19 -496 6 -636
37 -73 16 -192 70 -214 97 -21 25 -7 65 63 175 151 238 193 434 183 855 -10
438 -26 908 -38 1108 l-11 197 28 26 c28 25 33 26 119 21 50 -3 152 -9 228
-12z m532 -2286 c8 -13 89 -133 178 -268 90 -135 208 -308 262 -385 55 -77
148 -209 208 -294 177 -251 328 -415 505 -549 196 -148 351 -223 642 -313 136
-42 370 -161 487 -246 63 -46 114 -95 159 -151 66 -81 67 -83 48 -101 -52 -50
-615 -114 -814 -94 l-74 8 -9 42 c-7 36 -19 52 -80 104 -149 127 -401 368
-490 468 -141 159 -242 302 -361 513 -293 518 -438 752 -606 978 -51 67 -97
136 -102 152 -6 17 -7 56 -3 93 7 70 22 83 50 43z m-1195 -152 c53 -58 139
-102 257 -132 54 -13 102 -29 107 -34 6 -6 -4 -39 -26 -87 -46 -100 -72 -186
-157 -528 -112 -451 -276 -991 -425 -1400 l-43 -120 -307 -3 c-354 -3 -351 -4
-274 76 79 81 231 274 335 423 249 356 490 817 757 1443 42 98 74 181 72 183
-9 10 -65 -9 -81 -27 -9 -10 -62 -125 -119 -256 -338 -785 -633 -1287 -1011
-1719 l-96 -110 -57 -7 c-117 -15 -421 7 -446 32 -6 6 82 100 220 237 712 707
1154 1282 1348 1755 39 95 43 120 22 137 -25 21 -40 2 -90 -105 -130 -279
-310 -560 -553 -866 -185 -232 -387 -454 -945 -1036 l-118 -124 -182 27 c-280
40 -538 84 -559 95 -45 25 -23 103 48 172 21 20 164 109 318 199 502 292 773
469 1110 728 238 182 355 320 580 681 109 175 265 410 272 410 2 0 21 -20 43
-44z m1247 -228 c50 -84 173 -303 273 -487 269 -493 419 -733 575 -920 172
-205 413 -443 557 -551 l78 -57 -858 -7 c-471 -3 -878 -9 -903 -12 -75 -9 -73
-32 -59 633 15 728 3 1018 -55 1325 -21 113 -16 123 66 132 113 11 104 17 138
-86 17 -51 64 -208 105 -348 183 -625 227 -719 598 -1285 115 -174 181 -237
286 -269 38 -12 26 26 -24 74 -66 64 -112 133 -286 421 -220 363 -283 499
-423 909 -36 107 -100 292 -141 410 -41 118 -74 220 -74 227 0 15 28 43 44 43
6 0 53 -69 103 -152z m-684 -49 c-4 -192 -49 -483 -178 -1159 -78 -410 -125
-693 -125 -754 0 -66 25 -91 63 -63 39 28 184 816 262 1417 25 194 75 624 75
648 0 8 17 12 53 12 l54 0 11 -82 c32 -231 36 -329 32 -733 -3 -225 -5 -607
-5 -847 l0 -437 -70 -5 c-184 -14 -931 -23 -943 -11 -3 2 23 80 57 172 156
417 298 887 437 1451 47 189 94 368 105 396 31 84 84 122 149 105 25 -6 25 -6
23 -110z"/>
<path d="M5224 22479 c-16 -18 -19 -37 -19 -143 0 -137 20 -216 56 -216 18 0
19 9 19 144 0 226 -10 265 -56 215z"/>
<path d="M6005 18040 c-22 -5 -60 -16 -84 -26 l-43 -17 26 -14 c22 -11 47 -11
171 5 152 19 190 33 141 52 -31 12 -152 12 -211 0z"/>
<path d="M6001 17842 c-14 -4 -26 -13 -28 -19 -9 -26 42 -35 191 -37 129 -1
157 2 191 18 l40 19 -35 9 c-45 12 -328 20 -359 10z"/>
<path d="M5015 17621 c-83 -24 -158 -59 -151 -70 12 -19 66 -22 125 -7 75 19
191 71 191 85 0 17 -97 12 -165 -8z"/>
<path d="M8074 17527 c-8 -22 21 -72 59 -101 88 -68 374 -140 425 -108 17 12
-55 50 -204 108 -65 25 -144 59 -174 74 -78 39 -99 44 -106 27z"/>
<path d="M7910 17180 c0 -26 75 -90 127 -110 124 -46 335 -49 437 -6 37 15 39
18 23 33 -13 14 -41 17 -139 20 -149 3 -247 17 -340 49 -77 26 -108 30 -108
14z"/>
<path d="M9327 17343 c-4 -3 -7 -19 -7 -35 0 -59 123 -105 254 -95 89 7 138
21 173 52 l28 23 -27 7 c-14 4 -58 2 -97 -4 -141 -22 -222 -10 -265 38 -19 21
-46 27 -59 14z"/>
<path d="M9807 15979 c-33 -19 -3 -37 166 -100 55 -20 77 -25 77 -16 0 22 -67
93 -104 111 -38 18 -112 21 -139 5z"/>
<path d="M7444 15866 c-124 -28 -226 -106 -240 -183 -12 -65 2 -69 50 -16 82
91 155 116 379 129 133 8 147 19 66 54 -65 28 -173 34 -255 16z"/>
<path d="M6406 15849 c-46 -36 -35 -49 43 -49 61 0 78 -5 147 -41 152 -79 176
-91 181 -85 18 17 -130 151 -200 181 -54 22 -138 20 -171 -6z"/>
<path d="M7520 15631 c-76 -24 -160 -90 -160 -127 0 -21 31 -17 96 14 62 28
95 30 379 19 49 -2 60 1 63 15 8 42 -136 88 -268 87 -47 0 -96 -4 -110 -8z"/>
<path d="M3591 22696 c-9 -10 -9 -32 0 -85 19 -124 -10 -324 -79 -546 -33
-107 -37 -131 -36 -225 0 -85 5 -116 23 -164 31 -77 99 -147 166 -170 84 -30
79 -20 88 -162 10 -166 8 -174 -43 -174 -67 0 -86 -13 -98 -67 -6 -26 -14
-115 -17 -198 -10 -248 -34 -627 -55 -860 -11 -121 -24 -308 -29 -415 -16
-313 -35 -2290 -29 -3076 l6 -721 -102 -17 c-259 -45 -320 -73 -351 -163 -20
-57 -2 -71 36 -29 35 41 99 69 200 90 72 15 232 66 272 88 10 5 91 10 180 11
142 2 166 4 196 22 67 39 72 56 82 236 35 669 45 1593 29 2709 -6 487 -15
1187 -19 1555 -6 663 -7 670 -28 711 -23 43 -59 77 -110 105 -29 16 -30 19
-36 115 -4 55 -7 140 -7 190 l0 91 59 37 c72 44 116 93 149 165 23 49 24 62
19 145 -11 160 -60 319 -133 433 -18 29 -78 100 -133 159 -55 58 -113 132
-131 165 -31 60 -48 70 -69 45z m175 -307 c86 -100 157 -232 190 -354 19 -69
18 -191 -3 -250 -15 -45 -89 -135 -112 -135 -16 0 -21 42 -31 226 -6 127 -14
193 -25 222 -18 45 -22 47 -45 32 -13 -8 -15 -47 -12 -275 l4 -265 -36 0 c-51
0 -109 54 -132 123 -27 80 -24 202 9 312 32 108 63 264 73 360 3 39 11 76 16
82 13 16 45 -8 104 -78z m102 -1346 c15 -11 36 -35 47 -54 19 -32 20 -59 27
-414 22 -1340 -6 -4509 -43 -4617 -9 -28 -18 -37 -42 -42 -38 -8 -159 -6 -217
2 -40 6 -46 11 -56 42 -9 25 -12 457 -13 1570 -2 1910 9 2377 75 3285 8 116
17 221 20 234 5 23 7 23 90 19 64 -3 91 -9 112 -25z"/>
<path d="M2991 16375 c-213 -48 -310 -186 -311 -441 l0 -81 -107 23 c-60 13
-129 24 -155 24 -119 0 -282 -94 -345 -200 -56 -93 -42 -101 41 -23 46 43 103
84 150 108 66 33 88 39 160 43 98 5 157 -11 226 -62 l45 -33 0 -70 c0 -60 4
-75 27 -109 51 -72 139 -114 283 -133 79 -11 114 -9 300 18 119 18 248 14 316
-9 34 -12 64 -19 66 -16 15 14 -10 54 -44 71 -48 23 -187 31 -298 16 -308 -42
-365 -39 -483 21 -88 44 -105 72 -99 163 3 45 -1 87 -10 120 -34 112 4 295 79
380 53 60 113 89 216 105 133 20 206 5 320 -65 l42 -26 0 27 c0 38 -82 116
-146 138 -68 24 -194 29 -273 11z"/>
<path d="M11433 16169 c-24 -6 -43 -14 -43 -19 0 -14 35 -30 63 -30 51 0 154
-41 227 -89 71 -48 124 -70 137 -57 11 11 -68 95 -128 135 -86 58 -176 79
-256 60z"/>
<path d="M3113 16072 c-66 -24 -114 -61 -154 -119 -71 -103 -90 -218 -44 -270
l24 -28 1 40 c0 63 27 152 60 200 49 71 154 126 276 143 l49 7 -40 19 c-56 27
-111 29 -172 8z"/>
<path d="M11903 16015 c-28 -20 -29 -41 -4 -55 11 -6 87 -10 176 -10 149 0
155 1 146 19 -20 36 -80 55 -191 59 -85 3 -109 0 -127 -13z"/>
<path d="M12275 15652 c-75 -36 -159 -124 -169 -178 -4 -20 -5 -39 -2 -42 4
-3 38 29 77 71 39 43 102 97 140 122 38 24 69 47 69 50 0 14 -62 2 -115 -23z"/>
<path d="M2462 15538 c69 -131 214 -235 357 -258 36 -5 66 -8 69 -6 2 2 -52
31 -120 64 -96 47 -139 74 -195 126 -40 37 -82 82 -93 101 -12 19 -28 35 -36
35 -11 0 -7 -16 18 -62z"/>
<path d="M2265 15567 c-33 -82 123 -306 259 -372 70 -34 216 -50 216 -23 0 9
-18 19 -51 26 -73 17 -187 73 -243 119 -59 50 -119 134 -151 210 -18 44 -25
54 -30 40z"/>
<path d="M11507 15514 c-64 -15 -107 -35 -126 -58 -17 -20 -2 -20 139 -5 123
13 169 4 293 -57 66 -34 87 -41 87 -29 0 46 -98 123 -189 149 -66 19 -126 19
-204 0z"/>
<path d="M10745 15306 c-128 -29 -228 -80 -308 -155 -42 -39 -77 -87 -77 -105
0 -3 28 17 62 44 75 60 219 133 308 156 36 9 103 22 150 29 81 11 84 13 55 24
-46 19 -124 22 -190 7z"/>
<path d="M11539 15273 c-26 -10 -56 -25 -68 -33 -20 -14 -12 -15 97 -15 l119
0 87 -44 c48 -24 89 -41 93 -37 10 10 -84 92 -132 115 -64 30 -140 35 -196 14z"/>
<path d="M3525 15144 c-40 -9 -109 -13 -203 -12 l-143 3 25 -22 c77 -65 300
-55 379 18 36 32 30 33 -58 13z"/>
<path d="M9475 15146 c-135 -24 -230 -66 -269 -119 -35 -48 -10 -53 90 -19
142 49 197 56 378 49 165 -6 276 -1 276 14 0 4 -20 20 -45 34 -83 49 -276 67
-430 41z"/>
<path d="M10803 15145 c-76 -21 -129 -50 -185 -103 -42 -40 -88 -106 -88 -127
0 -4 23 13 50 38 94 81 250 142 450 174 l55 9 -40 12 c-53 16 -177 14 -242 -3z"/>
<path d="M6627 15105 c42 -30 147 -74 228 -96 59 -16 117 -22 225 -25 l145 -3
-105 25 c-58 14 -177 44 -265 66 -88 22 -180 42 -205 45 -44 4 -44 4 -23 -12z"/>
<path d="M4303 15065 c72 -66 154 -89 319 -89 232 -1 177 33 -162 99 -96 19
-181 35 -190 35 -9 -1 5 -19 33 -45z"/>
<path d="M7976 15042 c-8 -14 75 -62 149 -85 62 -20 92 -22 268 -22 163 0 199
3 207 15 5 8 8 15 7 16 -1 1 -106 14 -232 28 -127 14 -257 33 -290 41 -69 16
-102 19 -109 7z"/>
<path d="M11725 15034 c-142 -19 -245 -49 -245 -73 0 -14 120 -14 179 0 65 15
142 50 138 63 -4 12 -27 15 -72 10z"/>
<path d="M5510 15019 c0 -5 23 -35 51 -64 64 -68 130 -95 227 -94 37 0 85 6
107 13 l40 12 -115 22 c-118 24 -186 49 -254 95 -42 29 -56 33 -56 16z"/>
<path d="M5230 14989 c0 -38 51 -108 121 -168 133 -112 212 -141 399 -148 109
-4 142 -2 173 10 71 30 53 37 -143 52 -202 17 -338 74 -466 198 -76 74 -84 80
-84 56z"/>
<path d="M4060 15001 c0 -21 123 -120 191 -153 90 -44 154 -58 263 -58 83 0
186 22 186 40 0 6 -38 10 -87 10 -198 1 -362 47 -500 141 -44 31 -53 34 -53
20z"/>
<path d="M11023 14971 c-45 -15 -154 -88 -169 -112 -21 -34 140 42 201 95 46
40 41 43 -32 17z"/>
<path d="M3630 14934 c-91 -62 -135 -77 -230 -77 -94 0 -187 21 -263 59 -67
34 -80 25 -32 -23 72 -72 264 -120 381 -95 67 14 153 70 188 122 42 64 32 67
-44 14z"/>
<path d="M6450 14944 c0 -13 176 -117 252 -148 121 -50 196 -66 319 -66 109 0
179 14 253 52 54 28 33 39 -44 22 -85 -18 -246 -18 -352 1 -91 16 -235 62
-355 113 -40 17 -73 29 -73 26z"/>
<path d="M7850 14870 c31 -44 100 -88 193 -123 79 -30 89 -31 237 -31 138 -1
160 1 200 20 25 12 54 29 65 39 19 16 17 16 -35 11 -276 -30 -351 -18 -628 93
l-54 21 22 -30z"/>
<path d="M9455 14830 c-56 -6 -112 -26 -102 -36 6 -6 420 16 426 22 23 22
-178 31 -324 14z"/>
<path d="M2333 14003 c-18 -7 -16 -28 4 -44 34 -29 74 -106 109 -213 45 -137
72 -192 86 -178 8 8 7 34 -1 89 -25 159 -58 242 -124 311 -40 41 -49 46 -74
35z"/>
<path d="M3498 13924 c-3 -3 6 -44 19 -92 34 -117 42 -353 19 -561 -19 -168
-19 -181 -6 -181 12 0 65 167 81 260 18 103 16 289 -4 372 -34 140 -82 229
-109 202z"/>
<path d="M11545 13916 c-16 -7 -38 -22 -47 -33 -17 -18 -16 -19 45 -15 46 3
89 -3 161 -22 108 -29 126 -31 126 -16 0 17 -160 88 -210 94 -28 4 -56 1 -75
-8z"/>
<path d="M2132 13804 c-14 -9 -22 -26 -22 -43 l0 -28 49 11 c35 7 57 6 74 -1
31 -14 66 -90 113 -242 21 -67 40 -121 43 -121 3 0 12 4 20 9 13 8 11 28 -12
137 -28 138 -71 240 -114 274 -32 25 -118 28 -151 4z"/>
<path d="M3184 13790 c-30 -12 -157 -103 -222 -159 -47 -40 -92 -96 -92 -114
0 -3 62 37 138 89 159 111 200 134 240 134 69 0 140 -92 162 -210 6 -30 14
-125 17 -210 4 -97 11 -162 18 -173 10 -15 14 -15 18 -3 17 43 29 193 25 305
-5 137 -23 196 -83 275 -48 62 -153 94 -221 66z"/>
<path d="M11327 13713 c-46 -92 -82 -314 -74 -462 6 -122 25 -200 68 -289 32
-65 132 -183 144 -170 4 4 -11 49 -33 100 -95 218 -112 334 -93 635 7 113 10
207 7 210 -2 3 -11 -8 -19 -24z"/>
<path d="M12455 13659 c10 -33 40 -91 86 -169 50 -84 65 -156 50 -225 -15 -67
-48 -100 -101 -100 -83 0 -104 54 -98 241 4 106 2 134 -8 134 -18 0 -38 -34
-57 -95 -24 -79 -28 -135 -13 -197 24 -105 86 -158 181 -158 88 0 135 44 162
155 13 55 14 77 5 128 -20 108 -80 204 -173 278 -40 32 -41 32 -34 8z"/>
<path d="M11483 13612 c-23 -14 -54 -155 -60 -268 -6 -124 9 -193 50 -232 l23
-22 -4 178 c-2 97 0 216 5 265 9 87 8 93 -14 79z"/>
<path d="M2968 13348 c-74 -42 -347 -259 -348 -275 0 -33 60 3 235 138 130 99
163 119 203 119 28 0 37 -7 61 -46 41 -63 77 -157 95 -247 48 -231 -28 -323
-211 -256 -53 20 -234 118 -293 159 -31 22 -144 80 -155 80 -13 0 35 -48 100
-99 207 -164 376 -238 482 -212 61 16 89 36 118 86 65 109 6 408 -103 526 -63
68 -103 74 -184 27z"/>
<path d="M3661 12908 c-6 -29 -15 -120 -21 -201 -12 -172 -29 -267 -63 -341
-28 -60 -87 -130 -128 -152 -94 -48 -324 36 -513 188 -48 39 -133 121 -188
182 -101 113 -118 128 -118 105 0 -18 75 -143 126 -210 190 -249 520 -404 706
-333 164 64 252 315 233 672 -4 72 -11 134 -15 137 -5 3 -13 -18 -19 -47z"/>
<path d="M12480 12762 c0 -16 7 -129 15 -253 46 -689 122 -1054 241 -1158 88
-78 144 -39 164 115 19 145 -4 278 -95 554 -58 177 -77 249 -125 458 -26 116
-52 192 -65 192 -2 0 -2 -15 0 -32 3 -18 9 -78 16 -133 17 -159 55 -330 114
-516 73 -230 89 -315 82 -457 -2 -62 -7 -115 -10 -119 -9 -9 -54 23 -73 52
-42 64 -100 349 -144 700 -49 401 -90 625 -114 625 -4 0 -6 -13 -6 -28z"/>
<path d="M3366 12537 c-44 -47 -95 -94 -114 -103 -46 -22 -98 -11 -191 39
-119 63 -153 79 -158 73 -11 -10 98 -113 158 -148 111 -66 195 -61 278 17 60
57 113 145 109 181 -3 27 -7 24 -82 -59z"/>
<path d="M2135 12415 c-34 -54 -68 -93 -90 -106 -39 -23 -42 -31 -21 -48 20
-17 77 9 104 47 26 36 82 158 82 178 0 31 -23 10 -75 -71z"/>
<path d="M8222 12444 c-136 -36 -279 -130 -410 -269 -145 -153 -254 -345 -387
-680 -37 -93 -90 -222 -117 -287 l-50 -116 -51 -17 c-116 -37 -217 -130 -273
-251 -61 -131 -65 -268 -11 -383 45 -98 201 -208 327 -231 183 -35 354 79 421
279 12 33 23 61 26 61 3 0 30 -16 60 -36 109 -72 233 -112 374 -121 117 -7
182 7 233 49 52 43 83 95 105 180 61 226 50 413 -32 534 -58 86 -76 60 -36
-51 16 -43 23 -92 27 -171 4 -97 1 -124 -23 -220 -30 -121 -42 -149 -77 -181
-89 -84 -309 -74 -496 21 -113 59 -120 67 -137 174 -19 118 -30 143 -94 219
-60 73 -60 79 -27 218 60 247 170 468 363 732 77 104 113 172 75 141 -42 -35
-200 -223 -253 -301 -109 -163 -192 -370 -239 -597 -11 -57 -22 -106 -24 -107
-2 -2 -107 31 -163 52 -9 3 0 31 28 92 22 48 87 196 144 328 150 349 241 507
372 645 145 154 320 250 457 250 164 0 300 -144 375 -395 30 -102 147 -553
176 -681 69 -304 71 -535 4 -665 -12 -24 -67 -101 -121 -172 -55 -70 -98 -133
-96 -138 11 -34 265 263 301 351 20 51 22 70 21 250 0 168 -4 214 -27 330 -35
181 -75 350 -130 550 -59 216 -71 249 -120 350 -56 114 -165 227 -250 259 -68
25 -165 27 -245 5z m-891 -1448 c130 -28 230 -98 269 -189 20 -45 22 -63 17
-142 -16 -254 -159 -406 -344 -366 -88 19 -158 55 -217 111 -97 92 -119 188
-82 360 18 85 37 116 88 145 20 11 51 32 69 47 32 24 84 45 119 47 8 0 45 -6
81 -13z"/>
<path d="M8674 12328 c341 -474 517 -968 476 -1338 -35 -321 -202 -678 -390
-836 -129 -109 -218 -137 -420 -137 -274 0 -514 71 -687 203 l-53 40 0 -31 c0
-22 12 -41 48 -76 148 -145 360 -217 642 -218 229 0 377 47 517 167 137 117
213 252 321 573 89 262 102 317 102 434 0 219 -118 591 -277 875 -90 161 -245
366 -277 366 -17 0 -17 -1 -2 -22z"/>
<path d="M8260 12253 c0 -5 34 -28 76 -53 41 -25 110 -73 152 -107 42 -34 80
-59 84 -57 21 13 -132 169 -200 203 -40 20 -112 29 -112 14z"/>
<path d="M5816 12145 c-269 -68 -483 -354 -553 -739 -25 -137 -23 -363 5 -496
12 -58 35 -195 51 -305 66 -448 134 -646 271 -786 38 -39 80 -69 122 -89 120
-55 362 -77 492 -44 132 34 387 209 487 335 l30 39 -39 -14 c-62 -22 -99 -43
-212 -121 -146 -100 -206 -132 -281 -150 -129 -30 -359 -11 -456 38 -98 50
-175 162 -232 337 -30 95 -101 412 -140 630 -62 351 -52 619 33 843 50 134 97
208 186 298 98 99 173 141 288 161 177 30 394 -54 602 -233 117 -100 330 -299
506 -471 146 -143 184 -174 184 -150 0 61 -556 616 -775 774 -175 125 -406
184 -569 143z"/>
<path d="M8402 11945 c45 -46 83 -98 119 -164 28 -53 59 -107 68 -121 14 -23
16 -23 19 -5 2 10 -1 44 -8 75 -34 153 -119 257 -225 275 l-40 7 67 -67z"/>
<path d="M5799 11857 c-19 -7 -45 -20 -56 -28 -18 -12 -10 -14 78 -11 190 7
332 -48 482 -187 50 -47 119 -107 152 -132 82 -62 306 -214 328 -222 16 -6 16
-4 3 22 -17 32 -89 96 -226 199 -52 39 -141 113 -198 165 -155 142 -267 195
-432 203 -65 3 -106 0 -131 -9z"/>
<path d="M8099 11806 c-185 -122 -371 -388 -415 -595 -7 -36 -13 -77 -13 -91
l0 -25 11 25 c50 113 172 356 203 405 21 33 97 120 168 193 72 72 127 132 122
132 -6 -1 -40 -20 -76 -44z"/>
<path d="M5867 11630 c-50 -16 -96 -58 -107 -99 -17 -66 -30 -268 -30 -496 0
-183 3 -233 19 -300 24 -98 58 -177 116 -265 43 -68 170 -210 186 -210 22 0 4
43 -56 135 -140 215 -186 340 -204 549 l-11 119 30 61 c17 33 30 66 30 73 0 7
14 28 31 47 68 78 139 54 294 -97 226 -221 527 -370 664 -328 23 6 41 15 41
20 0 13 -42 28 -133 50 -243 58 -359 124 -558 317 -54 53 -115 102 -140 114
-82 37 -148 20 -204 -54 -51 -67 -62 -49 -72 117 -6 104 -5 108 18 134 34 36
96 63 150 63 77 0 152 -46 300 -185 197 -186 362 -296 465 -312 49 -7 55 -13
-146 142 -186 145 -279 223 -362 306 -75 75 -133 103 -223 106 -38 1 -83 -2
-98 -7z"/>
<path d="M8240 11617 c-45 -13 -125 -56 -117 -63 2 -2 35 3 73 11 95 20 131
19 189 -9 61 -28 127 -98 184 -194 69 -115 83 -84 20 45 -78 161 -219 246
-349 210z"/>
<path d="M5535 11305 c-17 -51 -20 -87 -20 -245 1 -156 5 -210 29 -344 35
-205 68 -334 105 -413 49 -104 130 -213 157 -213 17 0 2 42 -60 171 -35 75
-58 145 -96 304 -71 292 -82 364 -89 595 l-7 205 -19 -60z"/>
<path d="M8660 11120 c0 -8 -9 -91 -20 -185 -22 -190 -26 -290 -10 -280 6 4
20 25 31 47 39 76 44 357 8 418 -7 13 -8 13 -9 0z"/>
<path d="M6671 10655 c-74 -53 -153 -107 -176 -120 -51 -31 -139 -53 -233 -59
-41 -2 -76 -7 -78 -9 -13 -12 84 -37 144 -37 88 0 177 32 272 97 91 62 213
184 208 207 -2 13 -34 -5 -137 -79z"/>
<path d="M6754 10477 c-27 -19 -92 -64 -145 -100 -90 -62 -229 -137 -278 -150
-12 -3 -21 -11 -21 -18 0 -9 19 -10 74 -6 60 4 89 13 144 41 83 44 178 122
250 205 60 68 50 79 -24 28z"/>
<path d="M8456 10284 c-178 -61 -386 -73 -606 -35 -63 11 -116 18 -119 16 -2
-3 2 -12 9 -20 42 -50 195 -85 374 -85 91 0 129 5 201 26 131 38 238 97 214
118 -2 2 -35 -7 -73 -20z"/>
<path d="M6475 10085 c-185 -114 -236 -156 -188 -155 37 1 120 37 189 81 90
59 214 166 214 184 0 8 -3 15 -7 14 -5 -1 -98 -56 -208 -124z"/>
<path d="M7410 10099 c0 -63 95 -291 241 -579 149 -295 292 -477 472 -599 49
-33 209 -112 215 -106 10 10 -29 46 -101 95 -44 30 -120 93 -169 139 -161 152
-251 290 -471 718 -157 307 -187 360 -187 332z"/>
<path d="M6905 9903 c-57 -204 -147 -440 -349 -920 -58 -139 -106 -259 -106
-267 0 -41 26 0 123 197 190 382 293 658 345 928 28 144 30 159 22 159 -4 0
-20 -44 -35 -97z"/>
<path d="M7604 9975 c13 -60 136 -293 224 -425 198 -296 400 -509 576 -605 37
-21 70 -35 73 -31 4 3 -49 61 -117 128 -162 160 -221 225 -355 393 -125 157
-235 309 -338 465 -47 71 -67 95 -63 75z"/>
<path d="M7065 9923 c-10 -58 -78 -261 -186 -560 -96 -266 -163 -473 -155
-480 9 -9 291 735 327 862 19 68 37 215 27 215 -3 0 -9 -17 -13 -37z"/>
</g>
</svg>
