<svg xmlns="http://www.w3.org/2000/svg" xmlns:xlink="http://www.w3.org/1999/xlink" preserveAspectRatio="xMidYMid meet" version="1.0" viewBox="-0.2 -0.2 1889.7 138.9" zoomAndPan="magnify" style="fill: rgb(73, 88, 101);" original_string_length="10458" width="221.84581352659353px" height="16.315644486876455px"><g data-name="Layer 2"><g data-name="Layer 1" id="__id129_snyoekyku7"><path d="M917.61,56.44a20.15,20.15,0,0,1,4-11.39A26.09,26.09,0,0,1,931,37.43a30.56,30.56,0,0,1,23.73-1.57,24.28,24.28,0,0,1,5.46,2.91,23.84,23.84,0,0,1,2.38,2c.38.34.78.67,1.15,1l1,1.14a32.37,32.37,0,0,1,6.3,10.45,40.49,40.49,0,0,1,2.34,11.95,43.19,43.19,0,0,1-1.12,12.1,45.14,45.14,0,0,1-4.36,11.39l-1.58,2.64-1.77,2.48a51.32,51.32,0,0,1-4,4.63,60.11,60.11,0,0,1-9.21,7.88,75.53,75.53,0,0,1-10.47,6,98.19,98.19,0,0,1-22.81,7.37,129.22,129.22,0,0,1-23.78,2.47,134,134,0,0,1-47-8,133.19,133.19,0,0,1-21.73-10.2c-6.9-4.06-13.38-8.63-19.79-13.11C793,82,780.2,73.25,765.65,69.7A62.91,62.91,0,0,0,754.73,68a43.38,43.38,0,0,0-10.82.57,37.41,37.41,0,0,0-10,3.3c-.77.43-1.56.83-2.31,1.26l-1,.68-1,.75a26.27,26.27,0,0,0-3.67,3.49,30.1,30.1,0,0,0-7.23,18.89,21.38,21.38,0,0,0,1.95,9.54,16.55,16.55,0,0,0,6.11,6.91c5.19,3.44,12.16,3.11,18.24.22a31.46,31.46,0,0,0,14.39-14A28.52,28.52,0,0,0,761.1,95a25.54,25.54,0,0,0,.82-4.79,39.88,39.88,0,0,0-.86-10.32,51.5,51.5,0,0,0-9.32-19.12A87.08,87.08,0,0,0,736.15,45a151.35,151.35,0,0,0-18.88-12.46,161.78,161.78,0,0,0-42.4-16,206,206,0,0,0-45.37-4.87c-30.61,0-61.2,5.71-90.51,15-7.33,2.36-14.57,4.91-21.78,7.76l-5.41,2.09c-1.8.7-3.58,1.47-5.37,2.21-3.57,1.5-7.17,2.91-10.72,4.5-14.25,6.12-28.3,12.84-42.34,19.66L411.2,83.73c-14.13,6.89-28.4,13.64-42.94,19.94s-29.42,12-44.63,16.92q-11.34,3.78-23.25,6.59c-4,.9-8,1.75-12.05,2.4-2,.36-4.09.61-6.14.89s-4.13.47-6.22.6c-4.16.34-8.38.38-12.61.31a107.38,107.38,0,0,1-12.72-1.17c-1.06-.14-2.12-.34-3.17-.55s-2.11-.4-3.17-.65c-2.11-.55-4.26-1-6.33-1.74a77.7,77.7,0,0,1-12.1-5,74.68,74.68,0,0,1-21-15.87,61.65,61.65,0,0,1-8-10.83l-1.64-3c-.53-1-1-2.08-1.42-3.12A59.91,59.91,0,0,1,191.53,83c-.29-1.11-.53-2.24-.79-3.36L190.36,78c-.11-.6-.19-1.24-.28-1.87a36.63,36.63,0,0,1-.18-7.47,31.71,31.71,0,0,1,4.75-14.8,21.74,21.74,0,0,1,6.47-6.41,19.67,19.67,0,0,1,4.37-2.07c.77-.22,1.55-.42,2.33-.6a24.47,24.47,0,0,1,2.45-.3,19,19,0,0,1,9.56,1.95,23,23,0,0,1,6.93,5.52A27.1,27.1,0,0,1,233,66.77a25.15,25.15,0,0,1-.67,8.39,32.22,32.22,0,0,1-2.83,7.08,42.42,42.42,0,0,1-8.87,11A79.25,79.25,0,0,1,210.33,101a242.06,242.06,0,0,1-43.15,21.76,240.06,240.06,0,0,1-46.48,12.51A240.23,240.23,0,0,1,72.8,138l-6-.4-3-.2-3-.28c-4-.4-8-.94-12-1.69a81.45,81.45,0,0,1-23.33-7.77,59.25,59.25,0,0,1-5.35-3.22c-.87-.59-1.71-1.24-2.56-1.85s-1.63-1.35-2.43-2a49.2,49.2,0,0,1-8.25-9.45A43.07,43.07,0,0,1,1.53,99.83,34.41,34.41,0,0,1,.09,87.31c0-1,.26-2.1.39-3.14S1,82.08,1.22,81s.74-2,1.11-3,.95-1.89,1.45-2.82a30.61,30.61,0,0,1,8.37-9.17,27.53,27.53,0,0,1,11.29-4.85,20.84,20.84,0,0,1,12.09,1.37l-.6,1.49a19.08,19.08,0,0,0-11-.45,24.6,24.6,0,0,0-9.79,5,26.89,26.89,0,0,0-6.85,8.5A22.57,22.57,0,0,0,4.82,87.53a33.48,33.48,0,0,0,7.06,20.15,42.27,42.27,0,0,0,7.59,7.82l2.19,1.62c.76.49,1.5,1,2.28,1.47a52.5,52.5,0,0,0,4.86,2.58,74.72,74.72,0,0,0,21.41,6c3.73.53,7.52.86,11.33,1.08l2.87.14,2.88.05,5.75.12a237.7,237.7,0,0,0,45.66-4.44c7.47-1.61,14.93-3.33,22.2-5.65,3.67-1,7.26-2.34,10.87-3.57,1.82-.59,3.57-1.34,5.35-2s3.57-1.35,5.32-2.1A227.87,227.87,0,0,0,202.49,89.2a69.25,69.25,0,0,0,8.33-6.58,27.71,27.71,0,0,0,5.74-7.28A17.68,17.68,0,0,0,218,71.5c.09-.33.07-.53.13-.79l.07-.38v-.41c0-.27.05-.53,0-.82s-.05-.57-.07-.86a13,13,0,0,0-1-3.48,12.13,12.13,0,0,0-1.88-3,8.22,8.22,0,0,0-2.21-1.73,3.56,3.56,0,0,0-1.83-.31c-.15,0-.3,0-.46,0a2.46,2.46,0,0,1-.51.15,4.58,4.58,0,0,0-.9.48,6.64,6.64,0,0,0-1.74,1.87,14.89,14.89,0,0,0-1.4,3.33,20.64,20.64,0,0,0-.66,4.11,21.45,21.45,0,0,0,.19,4.25l.17,1,.31,1.17c.2.78.37,1.57.59,2.35a43.36,43.36,0,0,0,10,16.88,58.22,58.22,0,0,0,16.46,12.16,67.29,67.29,0,0,0,9.63,3.88c1.64.58,3.33.92,5,1.37.85.2,1.73.34,2.59.52s1.73.34,2.62.45a89.45,89.45,0,0,0,10.66,1c3.61,0,7.23,0,10.87-.3,14.6-1.15,29.33-4.81,44-9.53q22-6.84,43.43-15.85c28.65-11.8,56.68-25.61,85.15-38.93S504.68,24,535.18,14.51Q546.6,11,558.27,8.28c7.77-1.8,15.59-3.4,23.49-4.63A281.06,281.06,0,0,1,629.58,0a217,217,0,0,1,47.83,5.69,173,173,0,0,1,45.08,17.57A162,162,0,0,1,742.6,37,96.62,96.62,0,0,1,759.76,54.8a61,61,0,0,1,10.73,23,49.93,49.93,0,0,1,.9,13,35.42,35.42,0,0,1-1.26,6.75,39.47,39.47,0,0,1-2.55,6.26,41.48,41.48,0,0,1-3.58,5.62,43.75,43.75,0,0,1-4.42,4.91,39.92,39.92,0,0,1-10.93,7.4,33.5,33.5,0,0,1-6.4,2.17,27.57,27.57,0,0,1-6.87.75,26.1,26.1,0,0,1-7-1,25.09,25.09,0,0,1-15.55-13.6,29.83,29.83,0,0,1-2.58-13.3,38.2,38.2,0,0,1,9.56-24,34.34,34.34,0,0,1,4.9-4.5l1.37-1,1.43-.89c1-.53,1.92-1,2.88-1.51a44.5,44.5,0,0,1,12.24-3.82,50.77,50.77,0,0,1,12.6-.47,69.67,69.67,0,0,1,12.23,2.11,88.37,88.37,0,0,1,22.37,9.69c6.92,4.09,13.38,8.73,19.72,13.32s12.62,9.17,19.17,13.16A126.63,126.63,0,0,0,849.32,109a128.55,128.55,0,0,0,45,8.38,125.18,125.18,0,0,0,22.94-2,93,93,0,0,0,21.91-6.68,71.2,71.2,0,0,0,10-5.5,56.12,56.12,0,0,0,8.73-7.22,48.58,48.58,0,0,0,3.74-4.25l1.68-2.27L964.81,87A42.2,42.2,0,0,0,969,76.61a39.88,39.88,0,0,0,1.24-11.2,37.41,37.41,0,0,0-1.93-11.06,29.53,29.53,0,0,0-5.58-9.64l-.91-1.07c-.33-.32-.69-.63-1-.94a21.15,21.15,0,0,0-2.11-1.82,21.71,21.71,0,0,0-4.83-2.69,28.29,28.29,0,0,0-21.94,1.08,24,24,0,0,0-8.82,6.88,18.33,18.33,0,0,0-3.88,10.35Z" style="fill: inherit;"/><path d="M970.07,56.5a18.31,18.31,0,0,0-3.87-10.35,24,24,0,0,0-8.83-6.88,28.28,28.28,0,0,0-21.94-1.08,21.65,21.65,0,0,0-4.82,2.69,20.19,20.19,0,0,0-2.12,1.82c-.34.31-.69.62-1,.94l-.92,1.07A29.51,29.51,0,0,0,921,54.35,37.74,37.74,0,0,0,919,65.41a39.88,39.88,0,0,0,1.25,11.2A42.2,42.2,0,0,0,924.48,87L926,89.4l1.68,2.27a48.46,48.46,0,0,0,3.73,4.25,57.07,57.07,0,0,0,8.73,7.22,72.34,72.34,0,0,0,10,5.5A93,93,0,0,0,972,115.32a125.1,125.1,0,0,0,22.94,2,128.6,128.6,0,0,0,45-8.38,127,127,0,0,0,20.59-10.08c6.54-4,12.82-8.56,19.17-13.16s12.8-9.23,19.72-13.32a88.37,88.37,0,0,1,22.37-9.69,69.51,69.51,0,0,1,12.23-2.11,50.79,50.79,0,0,1,12.6.47,44.61,44.61,0,0,1,12.24,3.82c1,.5,1.92,1,2.88,1.51l1.43.89,1.36,1a34.42,34.42,0,0,1,4.91,4.5,38.19,38.19,0,0,1,9.55,24,29.82,29.82,0,0,1-2.57,13.3,25.15,25.15,0,0,1-15.55,13.6,26.1,26.1,0,0,1-7,1A27.52,27.52,0,0,1,1147,124a33,33,0,0,1-6.4-2.17,40.12,40.12,0,0,1-10.94-7.4,44.66,44.66,0,0,1-4.41-4.91,41.48,41.48,0,0,1-3.58-5.62,38.55,38.55,0,0,1-2.55-6.26,35.42,35.42,0,0,1-1.26-6.75,49.5,49.5,0,0,1,.9-13,61.16,61.16,0,0,1,10.72-23A97,97,0,0,1,1146.69,37a162,162,0,0,1,20.11-13.7,172.83,172.83,0,0,1,45.08-17.57A217,217,0,0,1,1259.71,0a281.13,281.13,0,0,1,47.82,3.62c7.89,1.23,15.72,2.83,23.49,4.63s15.47,3.88,23.09,6.23c30.5,9.46,59.47,22.28,87.92,35.64s56.51,27.13,85.16,38.93q21.42,9,43.42,15.85c14.63,4.72,29.37,8.38,44,9.53,3.65.31,7.27.34,10.88.3a89.83,89.83,0,0,0,10.66-1c.88-.11,1.75-.28,2.62-.45s1.74-.32,2.59-.52c1.66-.45,3.36-.79,5-1.37a67.41,67.41,0,0,0,9.64-3.88,58.22,58.22,0,0,0,16.46-12.16,43.36,43.36,0,0,0,10-16.88c.21-.78.39-1.57.59-2.35l.3-1.17.17-1a20.68,20.68,0,0,0-.47-8.36,14.44,14.44,0,0,0-1.4-3.33,6.5,6.5,0,0,0-1.74-1.87A4.51,4.51,0,0,0,1679,60a2.29,2.29,0,0,1-.51-.15c-.17,0-.31,0-.46,0a3.56,3.56,0,0,0-1.83.31,8.07,8.07,0,0,0-2.21,1.73,12.13,12.13,0,0,0-1.88,3,13,13,0,0,0-1,3.48c0,.29,0,.57-.06.86s0,.55,0,.82v.41l.08.38a7.57,7.57,0,0,0,.13.79,17.64,17.64,0,0,0,1.45,3.84,28,28,0,0,0,5.75,7.28,69.92,69.92,0,0,0,8.32,6.58,228,228,0,0,0,40.06,21.61c1.75.75,3.54,1.4,5.31,2.1s3.54,1.42,5.36,2c3.6,1.23,7.2,2.52,10.87,3.57,7.27,2.32,14.72,4,22.2,5.65a237.63,237.63,0,0,0,45.66,4.44l5.75-.12,2.88-.05,2.87-.14c3.81-.22,7.6-.55,11.33-1.08a74.72,74.72,0,0,0,21.41-6,52.5,52.5,0,0,0,4.86-2.58c.78-.47,1.52-1,2.28-1.47l2.19-1.62a42.59,42.59,0,0,0,7.59-7.82,33.48,33.48,0,0,0,7.06-20.15A22.57,22.57,0,0,0,1882,77.16a26.78,26.78,0,0,0-6.86-8.5,24.56,24.56,0,0,0-9.78-5,19.08,19.08,0,0,0-11,.45l-.6-1.49a20.8,20.8,0,0,1,12.08-1.37,27.42,27.42,0,0,1,11.29,4.85,30.52,30.52,0,0,1,8.38,9.17c.5.93,1,1.87,1.45,2.82s.78,2,1.11,3,.57,2.08.74,3.13.35,2.09.39,3.14a34.63,34.63,0,0,1-1.44,12.52,42.79,42.79,0,0,1-5.4,11.33,48.81,48.81,0,0,1-8.24,9.45c-.81.67-1.61,1.36-2.43,2s-1.69,1.26-2.56,1.85a60.67,60.67,0,0,1-5.35,3.22,81.45,81.45,0,0,1-23.33,7.77c-4,.75-8,1.29-12,1.69l-3,.28-3,.2-6,.4a240.13,240.13,0,0,1-47.89-2.82,239.87,239.87,0,0,1-46.48-12.51A241.73,241.73,0,0,1,1679,101a78.57,78.57,0,0,1-10.28-7.74,42.42,42.42,0,0,1-8.87-11,32.22,32.22,0,0,1-2.83-7.08,24.89,24.89,0,0,1-.67-8.39,27.16,27.16,0,0,1,6.21-14.84,23.08,23.08,0,0,1,6.94-5.52,19,19,0,0,1,9.56-1.95c.81.08,1.66.14,2.45.3s1.56.38,2.33.6a20.1,20.1,0,0,1,4.37,2.07,21.82,21.82,0,0,1,6.46,6.41,31.73,31.73,0,0,1,4.76,14.8,37.36,37.36,0,0,1-.18,7.47c-.09.63-.18,1.27-.28,1.87l-.38,1.69c-.26,1.12-.5,2.25-.79,3.36a59.91,59.91,0,0,1-2.35,6.46c-.48,1-.89,2.11-1.42,3.12l-1.64,3a61.21,61.21,0,0,1-8,10.83,74.5,74.5,0,0,1-20.94,15.87,77.41,77.41,0,0,1-12.11,5c-2.06.72-4.21,1.19-6.33,1.74-1.06.25-2.11.43-3.16.65s-2.11.41-3.17.55a107.36,107.36,0,0,1-12.73,1.17c-4.22.07-8.44,0-12.6-.31-2.09-.13-4.15-.39-6.22-.6s-4.11-.53-6.14-.89c-4.08-.65-8.08-1.5-12.06-2.4q-11.88-2.81-23.24-6.59c-15.21-4.9-30.09-10.62-44.63-16.92s-28.81-13-43-19.94L1435.92,63c-14-6.82-28.09-13.54-42.35-19.66-3.54-1.59-7.14-3-10.71-4.5-1.79-.74-3.57-1.51-5.38-2.21l-5.41-2.09c-7.2-2.85-14.44-5.4-21.77-7.76-29.31-9.28-59.9-15-90.51-15a205.91,205.91,0,0,0-45.37,4.87,161.65,161.65,0,0,0-42.4,16A151.35,151.35,0,0,0,1153.14,45a87.08,87.08,0,0,0-15.59,15.7,51.35,51.35,0,0,0-9.32,19.12,40.33,40.33,0,0,0-.87,10.32,25.56,25.56,0,0,0,.83,4.79,28.47,28.47,0,0,0,1.81,4.63,31.51,31.51,0,0,0,14.39,14c6.09,2.89,13,3.22,18.25-.22a16.55,16.55,0,0,0,6.11-6.91,21.52,21.52,0,0,0,2-9.54,30.16,30.16,0,0,0-7.23-18.89,25.8,25.8,0,0,0-3.68-3.49l-1-.75-1-.68c-.74-.43-1.54-.83-2.3-1.26a37.41,37.41,0,0,0-10-3.3,43.38,43.38,0,0,0-10.82-.57,62.87,62.87,0,0,0-10.93,1.7C1109.09,73.25,1096.25,82,1083.47,91c-6.41,4.48-12.89,9-19.79,13.11a133.19,133.19,0,0,1-21.73,10.2,134,134,0,0,1-47,8,129,129,0,0,1-23.78-2.47,98,98,0,0,1-22.81-7.37,75.63,75.63,0,0,1-10.48-6,61.08,61.08,0,0,1-9.21-7.88,51.21,51.21,0,0,1-3.94-4.63l-1.77-2.48-1.58-2.64A45.16,45.16,0,0,1,917,77.4a42.82,42.82,0,0,1-1.11-12.1,40.79,40.79,0,0,1,2.33-11.95,32.4,32.4,0,0,1,6.31-10.45l1-1.14c.37-.36.76-.69,1.15-1a24.91,24.91,0,0,1,2.37-2,24.57,24.57,0,0,1,5.47-2.91,30.57,30.57,0,0,1,23.73,1.57,26,26,0,0,1,9.38,7.62,20,20,0,0,1,4,11.39Z" style="fill: inherit;"/></g></g></svg>