<svg xmlns="http://www.w3.org/2000/svg" xmlns:xlink="http://www.w3.org/1999/xlink" data-name="Calque 1" preserveAspectRatio="xMidYMid meet" version="1.0" viewBox="111.4 22.1 276.8 454.8" zoomAndPan="magnify" style="fill: rgb(73, 88, 101);" original_string_length="14792" width="69.02554976309833px" height="113.32552946180323px"><g id="__id1_snyoekyku7"><path d="M301.13,50.21c-1.11-1.25-2.02-2.33-2.98-3.35-3.84-4.09-7.81-8.05-11.9-11.89-2.07-1.94-4.12-3.91-6.17-5.87-.31-.29-.59-.62-.83-.96-.35-.5-.45-1.05-.05-1.58.4-.53.98-.62,1.53-.37.83.39,1.64.84,2.41,1.34,7.7,4.97,15.06,10.42,22.43,15.85,1.31.97,2.63,1.93,3.97,2.87.5.34.93.87,1.65.83.19-.59-.26-.94-.47-1.35-2.24-4.2-4.5-8.38-6.74-12.57-.3-.56-.59-1.14-.79-1.74-.27-.84-.37-1.72.44-2.34.8-.61,1.65-.33,2.39.14.65.42,1.27.91,1.83,1.45,1.99,1.93,3.91,3.92,5.71,6.02,1.11,1.29,2.25,2.58,3.7,3.5,1.11.7,1.7.51,2.07-.75.5-1.7.64-3.48.75-5.25.16-2.69.3-5.38.5-8.07.06-.84.22-1.71.51-2.49.52-1.38,1.6-1.53,2.63-.44.6.63.92,1.42,1.24,2.22,1.74,4.28,3.03,8.71,4.25,13.16.58,2.12,1.13,4.25,1.73,6.37.21.73.27,1.55.91,2.12.81-.13.91-.86,1.15-1.4,1.41-3.1,2.75-6.23,4.15-9.34.79-1.75,1.61-3.48,2.46-5.19.28-.57.61-1.14,1.04-1.59.96-1.01,2.13-.83,2.77.41.5.96.58,2.04.61,3.11.12,3.9.11,7.81.01,11.71-.02.99-.14,1.98.17,3.04.88.11,1.39-.56,1.99-.97,6.28-4.29,12.23-9,18.27-13.61.85-.65,1.69-1.31,2.59-1.87.76-.47,1.63-1.21,2.48-.31.75.79.13,1.63-.32,2.32-.9,1.36-1.85,2.69-2.86,3.97-1.89,2.39-3.84,4.74-5.76,7.12-.34.42-.86.76-.8,1.45.65.21,1.05-.28,1.51-.54,4.43-2.55,8.85-5.11,13.49-7.27,2.78-1.29,5.55-2.73,8.58-3.33,2.23-.44.63,1.09-.2,1.92-1.17,1.18-2.35,2.34-3.55,3.48-4.76,4.55-9.73,8.86-14.61,13.26-1.13,1.02-2.26,2.05-3.39,3.09,1.24.25,2.1-.04,2.94-.18,1.61-.26,3.2-.63,4.81-.92.56-.1,1.12-.16,1.69-.18.73-.02,1.46.1,1.8.87.35.79-.09,1.39-.65,1.86-.65.55-1.33,1.06-2.05,1.51-4.59,2.84-9.28,5.51-14.09,7.94-.6.3-1.34.44-1.7,1.11.28.48.75.48,1.14.56,9.54,1.89,19.07,3.79,28.74,4.9.98.11,1.96.3,2.93.52.59.14,1,.56,1,1.22,0,.56-.31.96-.79,1.16-.65.27-1.33.5-2.02.67-5.18,1.28-10.47,1.86-15.76,2.5-3.58.43-7.15.93-10.73,1.98.25,1.02,1.09,1.18,1.72,1.52,4.31,2.33,8.64,4.62,12.96,6.92.81.43,1.67.82,2.28,1.54.93,1.1.5,2.24-.93,2.46-.71.11-1.42-.01-2.11-.17-4.64-1.04-9.29-2.04-13.91-3.16-2.19-.53-4.14-1.9-6.65-1.83.04.79.64,1.3,1.06,1.88,4.69,6.42,9.74,12.56,14.6,18.85,1.17,1.52,2.27,3.09,3.39,4.64.25.34.46.72.65,1.1.39.78.77,1.59.05,2.37-.72.78-1.56.46-2.35.08-1.22-.59-2.33-1.36-3.42-2.15-5.98-4.34-11.58-9.16-17.28-13.85-.63-.52-1.2-1.17-2.23-1.37.05,1.16.47,2.04.96,2.88,1.55,2.67,2.45,5.59,3.27,8.52.58,2.05.17,3.55-.97,4.25-1.12.69-2.52.3-4.19-1.2-1.86-1.67-3.39-3.63-4.9-5.61-1.29-1.69-2.54-3.41-3.84-5.11-.32-.43-.54-1.02-1.47-1.02-.15,2.44-.44,4.89-.41,7.33.04,4.47.35,8.93.27,13.41-.02,1.28-.12,2.55-.33,3.81-.17,1.01-.41,2-1.56,2.32-1.08.3-1.7-.47-2.35-1.14-.29-.3-.56-.63-1.04-1.16-.37,1.15-.18,2.11-.11,3.04.68,8.63,1.35,17.25,2.09,25.88.76,8.83,1.59,17.66,2.38,26.49.61,6.78,1.13,13.57,1.8,20.35,1.2,12.14,2.48,24.27,3.75,36.41,1.18,11.29,2.33,22.58,3.59,33.86,1.45,12.97,3,25.93,4.49,38.9,1.34,11.7,2.67,23.4,3.98,35.1,1.38,12.27,2.77,24.53,4.08,36.8.84,7.9,1.58,15.81,2.29,23.72.72,8.05,1.43,16.11,1.98,24.18.72,10.56.81,21.13.48,31.71-.07,2.12-.31,4.24-.35,6.37-.04,2.18-.65,2.87-2.8,3.37-4.16.96-8.39,1.45-12.63,1.8-9.14.75-18.31.66-27.45.33-12.06-.43-24.06-1.57-35.99-3.44-15.3-2.4-30.41-5.7-45.33-9.84-14.18-3.93-28.03-8.81-41.49-14.75-20.31-8.97-39.75-19.51-57.97-32.24-6.64-4.64-13.06-9.54-18.67-15.45-2.48-2.61-4.25-5.66-6.17-8.63-.71-1.1-.47-2.36.12-3.47.79-1.51,1.61-3,2.51-4.45,3.01-4.81,5.84-9.74,9.19-14.34,12.01-16.46,22.42-34,33.81-50.88,11.16-16.54,22.15-33.18,33.24-49.76,4.97-7.43,9.99-14.84,15.02-22.23,15.69-23.06,31.53-46.03,47.45-68.93,10.49-15.1,20.98-30.19,31.7-45.13,6.42-8.94,12.87-17.85,19.63-26.53.96-1.23,1.69-2.31.93-3.99-.38-.85-.15-1.96-.27-2.95-.15-1.25-.63-1.5-1.69-.85-1.58.97-2.9,2.29-4.23,3.56-4.26,4.07-8.2,8.45-12.23,12.76-1.02,1.09-1.99,2.23-3.17,3.15-.58.45-1.26.77-1.94.2-.58-.49-.48-1.15-.22-1.77.36-.85.75-1.69,1.18-2.5,4.28-8.17,8.95-16.14,13.51-24.16,1.93-3.39,3.81-6.81,5.68-10.24.26-.48.62-.97.4-1.69-.91-.33-1.75.13-2.6.4-4.2,1.34-8.24,3.08-12.37,4.61-1.73.64-3.49,1.21-5.24,1.77-.53.17-1.12.29-1.67.27-1.28-.05-1.89-1.08-1.33-2.24.5-1.05,1.39-1.79,2.27-2.51,6.27-5.22,12.69-10.27,19.38-14.95,2.52-1.76,2.51-1.87,0-3.58-6.4-4.35-12.8-8.69-19.19-13.05-.64-.44-1.29-.91-1.79-1.5-.81-.97-.38-1.95.86-2.15.79-.13,1.55.11,2.31.3,5.17,1.29,10.26,2.83,15.31,4.54.65.22,1.27.64,2.37.41ZM207.9,414.72c3.76-.08,8.72-.06,13.68-.38,8.09-.52,16.1-1.49,24.06-2.97,14.06-2.61,27.71-6.71,41.19-11.44,14.7-5.15,28.95-11.29,42.74-18.52,6.92-3.63,13.58-7.7,20.22-11.8.96-.6,1.43-1.26,1.19-2.43-.2-1.04-.22-2.12-.33-3.17-.96-8.67-1.93-17.34-2.89-26.01-.29-2.61-.56-5.22-.88-7.82-.13-1.09-.41-1.23-1.38-.69-1.31.72-2.58,1.5-3.86,2.26-8.19,4.84-16.54,9.39-25.24,13.26-13.08,5.82-26.73,9.91-40.53,13.58-14.37,3.82-28.93,6.59-43.82,7.11-9.22.32-18.44.29-27.67-.15-9.43-.45-18.84-1.06-28.2-2.24-10.01-1.26-19.92-3.05-29.67-5.63-2.88-.76-5.73-1.64-8.56-2.56-1.16-.38-1.91-.15-2.47.9-.17.31-.38.6-.58.89-4.64,6.97-9.04,14.09-13.23,21.35-2.02,3.5-4.2,6.91-6.34,10.34-.81,1.3-1.16,2.6-.34,3.99.4.67.82,1.34,1.33,1.92,2.86,3.25,5.86,6.36,9.14,9.21.72.62,1.53.96,2.45,1.19,12.2,3.02,24.52,5.39,37.01,6.94,13.88,1.72,27.79,2.99,43,2.89ZM193.01,345.19c8.37-.04,16.74-.33,25.1-.72,9.15-.42,18.26-1.15,27.36-2.15,13.55-1.48,27.02-3.49,40.32-6.52,11.24-2.56,22.22-5.86,32.64-10.9,8.44-4.08,16.64-8.61,24.95-12.92,1.09-.57,1.27-1.28,1.14-2.41-.69-5.85-1.3-11.7-1.95-17.56-.6-5.36-1.19-10.72-1.84-16.07-.33-2.68-.42-2.73-2.67-1.26-3.57,2.34-7.2,4.57-11.04,6.41-12.96,6.2-26.38,11.23-40.17,15.25-15.71,4.58-31.71,7.66-47.97,9.52-10.16,1.17-20.35,1.71-30.57,1.92-6.39.13-12.76-.27-19.13-.69-5.82-.38-11.56-1.28-17.31-2.14-2.27-.34-2.27-.42-3.58,1.54-6.97,10.45-13.94,20.91-20.91,31.36-.2.3-.4.58-.58.89-.72,1.23-.68,1.38.65,2.1,1.19.64,2.45,1.1,3.78,1.39,5.28,1.18,10.66,1.66,16.03,2.02,8.56.59,17.14.98,25.73.91ZM186.28,289.87c5.8-.32,11.62-.54,17.41-.99,8.91-.69,17.78-1.68,26.65-2.79,13.3-1.66,26.58-3.51,39.74-6.08,13.1-2.56,26.07-5.56,38.68-10.07,9.88-3.54,18.95-8.67,28.04-13.78,1.17-.66,1.68-1.55,1.53-2.97-1.02-9.66-1.99-19.32-2.97-28.99-.12-1.13-.25-2.26-.38-3.38-.09-.78-.45-1.01-1.13-.55-.35.24-.69.5-1.03.75-3.37,2.39-6.97,4.36-10.7,6.11-7.45,3.5-15.05,6.65-22.76,9.55-9.58,3.6-19.28,6.77-29.32,8.81-8.28,1.68-16.64,2.74-25.08,3.24-8.93.53-17.86.53-26.79.01-2.76-.16-5.49-.59-8.28-.51-1.49.05-2.48.48-3.34,1.74-8.37,12.41-16.8,24.78-25.21,37.17-.24.35-.48.71-.7,1.07-.4.66-.22,1.03.56,1.18,1.68.34,3.37.47,5.08.45ZM163.23,428.72c.05.49.45.56.74.72,2.3,1.26,4.61,2.52,6.92,3.76,14.92,7.98,30.3,14.93,46.28,20.51,1.83.64,3.69.96,5.63,1,9.74.24,19.44-.19,29.1-1.42,13.82-1.76,27.47-4.37,40.81-8.44,12.47-3.8,24.39-8.9,35.76-15.27,8.87-4.97,17.22-10.73,25.53-16.56,1.36-.96,1.51-2.06,1.36-3.47-.83-7.97-1.64-15.95-2.46-23.92-.06-.54.15-1.26-.44-1.55-.71-.36-1.12.38-1.64.7-.06.04-.11.09-.16.14-10.76,8.81-22.46,16.15-34.86,22.39-10.93,5.5-22.27,9.95-33.94,13.65-20.23,6.42-41,9.64-62.16,10.35-10.92.36-21.86.11-32.78-.44-4.81-.24-9.63-.47-14.43-1.08-3.08-.39-6.17-.72-9.28-1.07ZM227.56,234.96c9.55.17,18.99-.92,28.31-2.91,14.31-3.06,28.31-7.26,42.18-11.92,8.3-2.79,16.28-6.28,23.98-10.43,3.37-1.82,6.66-3.8,9.83-5.95.89-.6,1.41-1.21,1.29-2.42-.73-7.48-1.37-14.97-2.05-22.46-.13-1.48-.26-2.97-.4-4.45-.18-1.91-.48-2.05-2.23-1.07-1.42.8-2.83,1.62-4.28,2.37-10.86,5.61-22.45,9.17-34.28,11.98-9.61,2.28-19.36,3.79-29.2,4.61-4.01.34-8.06,1-12.09.19-1.53-.31-2.44.1-3.32,1.43-2.7,4.08-5.57,8.06-8.35,12.08-6.26,9.05-12.51,18.1-18.76,27.15-.3.43-.94.85-.53,1.47.29.45.91.32,1.39.32,2.84.01,5.68,0,8.52,0ZM283.99,81.49c.1.11.2.23.3.34,3.39-1.04,6.66-2.41,9.97-3.66,2.59-.97,5.16-2.03,7.88-2.58,2.66-.54,3.79.84,2.88,3.42-.55,1.54-1.36,2.96-2.18,4.38-5.19,8.97-10.46,17.89-15.42,26.99-.23.43-.64.82-.47,1.61.43-.41.7-.63.94-.88,3.23-3.4,6.34-6.9,9.75-10.11,1.81-1.7,3.59-3.46,5.8-4.64,2.09-1.11,3.62-.31,3.98,2.03.11.77.06,1.56.12,2.34.04.54-.09,1.22.62,1.43.56.17.91-.29,1.25-.65,1.41-1.49,2.97-2.86,4.01-4.67.38-.67.85-1.32,1.39-1.87,1.3-1.32,2.64-1.04,3.28.67.25.66.37,1.37.46,2.07.36,2.79.68,5.58,1.02,8.45.69-.39.66-1.02.88-1.5.38-.85.7-1.81,1.8-1.88,1.25-.08,1.66.97,2.02,1.88.55,1.38,1.05,2.79,1.46,4.22,1.17,4.09,2.24,8.21,3.42,12.3.61,2.11,2.02,3.75,3.38,5.46.21-2.53.35-5,.18-7.44-.33-4.68-.29-9.36-.2-14.04.02-1.42.19-2.85.78-4.16.57-1.28,1.31-1.53,2.57-.9,1.49.75,2.62,1.93,3.62,3.23,1.56,2.03,3.08,4.08,4.67,6.08,1.02,1.27,2.13,2.47,3.23,3.68.33.36.78.74,1.3.48.55-.27.41-.86.33-1.33-.27-1.55-.85-2.99-1.51-4.42-1.28-2.77-2.54-5.55-3.79-8.33-.39-.86-.74-1.78.16-2.53.88-.72,1.76-.29,2.55.24.88.6,1.73,1.25,2.55,1.92,5.54,4.54,10.92,9.29,16.62,13.64.58.44,1.1.98,2.27,1.28-1.7-2.1-3.13-3.86-4.55-5.62-4.33-5.35-8.73-10.65-12.79-16.21-.75-1.03-1.52-2.06-1.97-3.27-.69-1.85.33-3.15,2.28-2.87.9.13,1.81.42,2.65.78,3.73,1.64,7.7,2.43,11.66,3.25.64.13,1.28.44,2.32.21-1.04-.55-1.78-.96-2.52-1.33-3.1-1.57-6.22-3.12-9.16-4.98-1.06-.67-2.38-1.35-2.02-2.92.34-1.45,1.75-1.45,2.92-1.69,6.81-1.45,13.74-2.1,20.64-2.93.55-.07,1.18.03,1.72-.57-8.88-1.39-17.51-3.09-25.95-5.63-.82-.25-1.73-.42-1.84-1.48-.1-.96.7-1.31,1.35-1.72.3-.19.6-.37.91-.55,3.04-1.69,6.08-3.37,9.11-5.08,1.83-1.03,3.65-2.11,5.47-3.16-1.22-.14-2.3.13-3.38.34-1.39.26-2.77.69-4.21.52-1.78-.22-2.43-1.51-1.51-3.05.63-1.05,1.56-1.84,2.48-2.62,4.67-3.93,9.35-7.84,14.02-11.77,1.15-.97,2.27-1.98,3.4-2.97-1.18.13-2.13.56-3.06,1.03-5.77,2.91-11.33,6.2-17,9.28-.69.37-1.35.8-2.14.93-1.16.19-1.83-.55-1.41-1.63.25-.65.67-1.25,1.11-1.8,2.34-2.95,4.71-5.87,7.06-8.8.27-.34.69-.63.58-1.44-2.65,2.08-5.08,4.03-7.56,5.9-3.84,2.91-7.5,6.09-12.07,7.9-1.65.65-2.38.26-2.24-1.44.4-4.91-.33-9.78-.37-14.67,0-.26,0-.58-.41-.64-.59.45-.74,1.17-1.02,1.81-1.64,3.7-3.25,7.41-4.88,11.11-.52,1.17-1.09,2.33-1.91,3.31-1.16,1.39-2.53,1.26-3.45-.27-.55-.92-.87-1.94-1.16-2.97-1.39-5.06-2.79-10.12-4.21-15.18-.43-1.55-.91-3.09-1.77-4.77-.45,1.52-.55,2.78-.56,4.04-.02,2.34-.2,4.68-.46,7.01-.13,1.13-.3,2.26-.72,3.32-.84,2.11-2.39,2.73-4.44,1.79-.92-.42-1.69-1.04-2.41-1.73-1.78-1.74-3.51-3.51-5.14-5.39-1.07-1.24-2.26-2.38-3.39-3.56,2.35,4.81,4.97,9.35,7.6,13.89.53.92,1.08,1.85,1.33,2.89.4,1.7-.61,2.65-2.27,2.14-.96-.3-1.79-.86-2.6-1.44-4.27-3.05-8.53-6.13-12.79-9.19-1.59-1.14-3.2-2.26-4.8-3.39.08.95.74,1.38,1.26,1.9,3.61,3.61,7.3,7.16,10.63,11.04.72.84,1.84,1.69,1.16,2.93-.75,1.37-2.03.56-3.06.28-4.45-1.21-8.89-2.47-13.33-3.69-.43-.12-.89-.46-1.47.11.98.66,1.9,1.3,2.83,1.91,4.92,3.25,9.68,6.71,14.06,10.66,1.02.92,1.09,1.48.14,2.49-.73.77-1.53,1.49-2.35,2.16-4.83,3.96-9.67,7.9-14.5,11.86-1.25,1.02-2.47,2.07-3.7,3.11ZM220.92,363.95c4.6-.43,9.58-.23,14.54-.5,3.68-.2,7.36-.53,11.02-.97,10.58-1.29,20.96-3.62,31.29-6.26,18.98-4.85,37.36-11.28,54.52-20.87,4.33-2.42,8.78-4.66,12.9-7.44.84-.57,1.37-1.12,1.23-2.22-.45-3.52-.81-7.05-1.23-10.57-.19-1.54-.54-1.7-1.91-.94-3.36,1.85-6.68,3.76-10.05,5.57-6.75,3.64-13.45,7.37-20.55,10.29-10.55,4.34-21.53,7.2-32.69,9.38-14.14,2.77-28.41,4.67-42.76,6.06-10.6,1.02-21.23,1.55-31.86,1.88-8.15.25-16.31.25-24.48-.16-7.16-.36-14.32-.74-21.4-1.85-4.53-.71-9.2-.91-13.44-2.98-1.01-.49-1.59-.05-2.11.75-1.52,2.31-3.06,4.61-4.58,6.92-2.05,3.13-2.03,3.09,1.59,4.19,8.92,2.71,18.04,4.47,27.24,5.87,8.56,1.3,17.17,2.07,25.81,2.72,8.85.67,17.72.66,26.93,1.14ZM315.72,97.8c-.4.26-.55.32-.63.42-4.47,5.23-8.81,10.57-12.94,16.07-8.09,10.78-16.05,21.67-23.85,32.66-7.31,10.3-14.55,20.65-21.8,30.99-.38.54-1.02,1.02-.81,1.94,2.36.15,4.68-.25,6.98-.49,11.32-1.2,22.43-3.47,33.32-6.78,11.34-3.45,22.15-8,31.5-15.53,1.2-.96,1.68-1.92,1.49-3.43-.32-2.6-.52-5.22-.72-7.84-.49-6.51-.89-13.02-1.45-19.52-.18-2.11-.18-4.24-.77-6.32-1.1-3.89-2.03-7.83-3.06-11.74-.13-.49-.09-1.15-.87-1.39-.76,1.9-.92,3.89-1.32,5.82-.2.94-.07,2.11-1.37,2.36-.82.16-1.4-.59-1.67-2.35-.41-2.73-.68-5.49-1.08-8.23-.31-2.15-.25-4.36-.95-6.66ZM131.76,408.08c.37,1.09,1.19,1.53,1.91,2.06,6.69,4.94,13.64,9.47,20.75,13.77,1.55.94,3.17,1.5,4.95,1.82,9.95,1.8,20.04,2.05,30.09,2.45,7.16.29,14.34.13,21.51.18,10.02.07,19.99-.56,29.94-1.7,15.28-1.75,30.23-5.03,44.87-9.7,14.12-4.5,27.58-10.49,40.43-17.88,8.62-4.96,16.79-10.63,24.87-16.41,1.04-.74,1.47-1.59,1.3-2.88-.33-2.46-.54-4.94-.81-7.4-.2-1.82-.56-2-2.09-1.01-2.68,1.74-5.3,3.58-8.02,5.24-13.24,8.08-27.16,14.81-41.6,20.46-13.23,5.17-26.64,9.79-40.42,13.31-14.42,3.69-29.07,5.9-43.93,6.44-13.7.5-27.38-.05-41.02-1.52-11.86-1.27-23.66-2.91-35.31-5.53-2.48-.56-4.95-1.14-7.43-1.7ZM206.77,305.16c2.67-.04,6.64-.12,10.61-.27,10.15-.37,20.24-1.26,30.29-2.62,19.97-2.71,39.48-7.28,58.34-14.43,9.76-3.7,19.38-7.73,28.25-13.33,1.38-.87,2.8-1.67,4.25-2.42,1.6-.83,1.73-.95,1.54-2.79-.35-3.24-.72-6.48-1.11-9.72-.3-2.56-.38-2.6-2.53-1.13-6.59,4.5-13.63,8.15-21,11.19-15.16,6.24-30.96,10.26-46.96,13.56-14.67,3.03-29.47,5.22-44.35,6.91-11.43,1.29-22.86,2.28-34.38,2.07-2.63-.05-5.24-.24-7.84-.67-.49-.08-.99-.09-1.48-.18-1.27-.22-2.15.23-2.84,1.34-1,1.63-2.12,3.19-3.18,4.78-.83,1.24-1.68,2.46-2.47,3.72-.7,1.12-.58,1.42.71,1.75.89.23,1.8.4,2.72.5,10.02,1.11,20.06,1.83,31.44,1.74ZM355.75,414.32c-1.04-.03-1.41.57-1.89.95-9.06,7.13-18.67,13.41-28.86,18.78-14.96,7.89-30.75,13.53-47.28,17.12-14.02,3.05-28.15,5.34-42.51,5.87-1.91.07-3.82.27-5.73.41.4.4.79.53,1.19.66,12.16,3.7,24.52,6.6,36.95,9.2,3.22.67,6.3.62,9.46-.13,21.16-5.05,41.5-12.19,60.35-23.25,6.25-3.67,12.29-7.64,18.13-11.92,1.26-.92,1.72-1.93,1.47-3.44-.2-1.18-.22-2.4-.33-3.6-.32-3.52-.63-7.04-.96-10.66ZM279.41,469.03c.43.64.9.55,1.29.61,15.84,2.65,31.79,4.03,47.84,4.25,7.45.1,14.9.14,22.33-.49,1.98-.17,3.96-.36,5.92-.66,1.52-.24,1.63-.43,1.67-1.94.04-1.42.06-2.84,0-4.26-.12-2.77.49-5.51.33-8.28-.31-5.45-.53-10.9-.81-16.36-.12-2.41-.3-4.81-.47-7.22-.04-.55.02-1.25-.58-1.5-.61-.24-.99.41-1.46.69-.06.04-.11.09-.17.13-5.49,4.4-11.37,8.25-17.39,11.87-14.38,8.65-29.89,14.69-45.89,19.57-4.13,1.26-8.31,2.36-12.62,3.58ZM209.25,246.2c1.98.33,3.51.56,5.08.58,11.42.08,22.83-.12,34.22-1.15,10.91-.98,21.66-2.86,32.16-5.99,14.09-4.2,27.77-9.55,41.23-15.43,3.9-1.7,7.68-3.67,11.2-6.11,1.06-.74,1.54-1.55,1.35-2.84-.19-1.26-.25-2.54-.37-3.81-.16-1.62-.3-3.25-.48-4.87-.09-.81-.48-1.18-1.29-.66-.24.15-.47.32-.7.48-7.8,5.38-16.11,9.81-24.92,13.29-15.74,6.22-31.95,10.88-48.43,14.67-7.2,1.66-14.51,2.72-21.88,3.12-6.37.34-12.77.47-19.09-.75-1.06-.2-1.73.06-2.31.97-1.12,1.73-2.33,3.39-3.49,5.09-.71,1.04-1.4,2.09-2.27,3.4ZM247.52,190.82c1.76.33,3.04.21,4.3.11,8.91-.73,17.79-1.81,26.6-3.33,13.11-2.26,25.98-5.42,38.27-10.64,4.26-1.81,8.3-4.02,12.21-6.49.67-.42,1.39-.82,1.3-1.77-.25-2.83-.5-5.65-.78-8.48-.07-.67-.48-.83-1.04-.45-.35.24-.69.5-1.03.76-4.85,3.65-10.14,6.51-15.66,8.99-10.16,4.56-20.8,7.56-31.69,9.71-8.09,1.59-16.22,2.76-24.51,2.27-.74-.04-1.45.05-1.91.7-1.96,2.77-3.9,5.55-6.06,8.63Z" style="fill: inherit;"/></g></svg>