<svg xmlns="http://www.w3.org/2000/svg" xmlns:xlink="http://www.w3.org/1999/xlink" clip-rule="evenodd" fill-rule="evenodd" image-rendering="optimizeQuality" preserveAspectRatio="xMidYMid meet" shape-rendering="geometricPrecision" text-rendering="geometricPrecision" version="1.0" viewBox="69.2 117.5 410.0 251.9" zoomAndPan="magnify" style="fill: rgb(0, 0, 0);" original_string_length="5136" width="66.53738454691053px" height="40.890247230646835px"><g><g fill-rule="nonzero" id="__id126_snyoekyku7" style="fill: rgb(73, 88, 101);"><path d="M97.08 363.3c35.01,-2.83 79.12,-8.46 110.49,-22.55 12.25,-5.5 9.21,-15.63 1.11,-18.13 -16.05,-4.95 -91.67,31.18 -111.6,40.68zm77.82 -92.46c-11.44,16.76 -22.82,34.39 -44.84,32.45 -47.51,-4.19 -60.89,-66.89 -25.91,-111.74 14.54,-18.64 38.03,-35.85 73.44,-47.8 77.83,-26.26 175.74,-14.27 226.24,45.51 75.31,89.16 -58.38,178.74 -158.16,167.93 -0.11,-0.01 -24.26,-2.46 -39.56,-10.95 -38.78,16.29 -90.66,20.33 -132,23.17 28.21,-13.61 93.41,-45.58 123.59,-50.87l-0.01 0c10.42,-19.2 37.18,-38.99 15.9,-53.53 -11.46,-7.84 -30.42,-6.26 -38.69,5.83zm36.12 73.18c14.13,6.6 35.03,8.73 35.12,8.74 96.8,10.01 226.37,-75.29 154.29,-160.62 -49.28,-58.34 -145.38,-69.83 -221.43,-44.17 -34.5,11.64 -57.3,28.3 -71.34,46.31 -32.67,41.88 -21.18,100.69 22.78,104.57 27.78,2.45 34.27,-29.85 49.81,-38.77 14.03,-8.07 35.39,-4.79 43.62,9.55 9.03,15.71 -11.46,33.2 -20.63,48.22 1.81,-0.12 3.42,-0.09 4.82,0.1 4.44,-8.81 11.17,-10.33 18.35,-9.63 12.77,-24.47 60.76,-17.49 60.76,9.01 0,17.66 -22.46,27.65 -41.16,23.04 -9.5,7.17 -22.61,8.12 -33.89,3.03 -0.35,0.21 -0.72,0.42 -1.1,0.62zm1.37 -24.7c8.25,4.07 10.74,13.95 3.81,20.95 18.14,6.6 38.26,-4.66 35.96,-25.06 -11.53,5.21 -31.2,-10.86 -39.77,4.11zm18.74 -10.28c14.8,2.9 16.31,5.55 23.93,-2.07l0.88 3.97c2.17,9.75 0.13,18.89 -5.9,25.7 26.08,4.02 43.54,-19.15 24.99,-33.05 -12.83,-9.63 -35.67,-7.43 -43.89,5.45l-0.01 0z" style="fill: inherit;"/><path d="M365.45 246.03c-4.89,0 -9.26,-2.64 -12.39,-6.89 -2.98,-4.06 -4.83,-9.62 -4.83,-15.73 0,-6.12 1.85,-11.68 4.83,-15.74 3.13,-4.25 7.5,-6.88 12.39,-6.88 4.89,0 9.27,2.63 12.39,6.88 2.98,4.06 4.83,9.62 4.83,15.74 0,6.11 -1.85,11.67 -4.83,15.73 -3.12,4.25 -7.5,6.89 -12.39,6.89zm-8.8 -9.52c2.29,3.12 5.41,5.05 8.8,5.05 3.39,0 6.51,-1.93 8.8,-5.05 2.45,-3.32 3.96,-7.96 3.96,-13.1 0,-5.15 -1.51,-9.78 -3.96,-13.11 -2.29,-3.12 -5.41,-5.05 -8.8,-5.05 -3.39,0 -6.51,1.93 -8.8,5.05 -2.44,3.33 -3.96,7.96 -3.96,13.11 0,5.14 1.52,9.78 3.96,13.1z" style="fill: inherit;"/><path d="M305.33 213.87c-4.32,0 -8.19,-2.32 -10.94,-6.07 -2.61,-3.55 -4.23,-8.42 -4.23,-13.76 0,-5.34 1.62,-10.21 4.23,-13.76 2.75,-3.75 6.62,-6.07 10.94,-6.07 4.32,0 8.19,2.32 10.94,6.07 2.61,3.55 4.23,8.42 4.23,13.76 0,5.34 -1.62,10.21 -4.23,13.76 -2.75,3.75 -6.62,6.07 -10.94,6.07zm-7.35 -8.7c1.92,2.62 4.52,4.24 7.35,4.24 2.82,0 5.43,-1.62 7.35,-4.24 2.07,-2.82 3.36,-6.75 3.36,-11.13 0,-4.38 -1.29,-8.31 -3.36,-11.13 -1.92,-2.62 -4.53,-4.24 -7.35,-4.24 -2.83,0 -5.43,1.62 -7.35,4.24 -2.08,2.82 -3.36,6.75 -3.36,11.13 0,4.38 1.28,8.31 3.36,11.13z" style="fill: inherit;"/><path d="M240.5 205.16c-4.32,0 -8.18,-2.32 -10.94,-6.07 -2.61,-3.55 -4.23,-8.42 -4.23,-13.76 0,-5.34 1.62,-10.21 4.23,-13.76 2.76,-3.75 6.62,-6.07 10.94,-6.07 4.32,0 8.19,2.32 10.94,6.07 2.61,3.55 4.23,8.42 4.23,13.76 0,5.34 -1.62,10.21 -4.23,13.76 -2.75,3.75 -6.62,6.07 -10.94,6.07zm-7.35 -8.7c1.92,2.62 4.53,4.24 7.35,4.24 2.83,0 5.43,-1.62 7.36,-4.24 2.07,-2.82 3.35,-6.75 3.35,-11.13 0,-4.38 -1.28,-8.31 -3.35,-11.13 -1.93,-2.62 -4.53,-4.24 -7.36,-4.24 -2.82,0 -5.43,1.62 -7.35,4.24 -2.07,2.82 -3.36,6.75 -3.36,11.13 0,4.38 1.29,8.31 3.36,11.13z" style="fill: inherit;"/><path d="M178.72 222.33c-4.32,0 -8.18,-2.32 -10.94,-6.07 -2.61,-3.56 -4.23,-8.42 -4.23,-13.77 0,-5.34 1.62,-10.21 4.23,-13.76 2.76,-3.75 6.62,-6.07 10.94,-6.07 4.32,0 8.19,2.32 10.95,6.07 2.61,3.55 4.22,8.42 4.22,13.76 0,5.35 -1.61,10.21 -4.22,13.77 -2.76,3.75 -6.63,6.07 -10.95,6.07zm-7.35 -8.71c1.92,2.62 4.53,4.24 7.35,4.24 2.83,0 5.43,-1.62 7.36,-4.24 2.07,-2.81 3.35,-6.75 3.35,-11.13 0,-4.37 -1.28,-8.31 -3.35,-11.13 -1.93,-2.62 -4.53,-4.24 -7.36,-4.24 -2.82,0 -5.43,1.62 -7.35,4.24 -2.07,2.82 -3.36,6.76 -3.36,11.13 0,4.38 1.29,8.32 3.36,11.13z" style="fill: inherit;"/><path d="M132.37 268.33c-4.32,0 -8.19,-2.32 -10.95,-6.07 -2.61,-3.55 -4.22,-8.42 -4.22,-13.76 0,-5.34 1.61,-10.21 4.22,-13.76 2.76,-3.75 6.63,-6.07 10.95,-6.07 4.32,0 8.18,2.32 10.94,6.07 2.61,3.55 4.23,8.42 4.23,13.76 0,5.34 -1.62,10.21 -4.23,13.76 -2.76,3.75 -6.62,6.07 -10.94,6.07zm-7.36 -8.7c1.93,2.62 4.53,4.24 7.36,4.24 2.82,0 5.43,-1.62 7.35,-4.24 2.07,-2.82 3.36,-6.75 3.36,-11.13 0,-4.38 -1.29,-8.31 -3.36,-11.13 -1.92,-2.62 -4.53,-4.24 -7.35,-4.24 -2.83,0 -5.43,1.62 -7.36,4.24 -2.07,2.82 -3.35,6.75 -3.35,11.13 0,4.38 1.28,8.31 3.35,11.13z" style="fill: inherit;"/><path d="M178.72 222.33c-4.32,0 -8.18,-2.32 -10.94,-6.07 -2.61,-3.56 -4.23,-8.42 -4.23,-13.77 0,-5.34 1.62,-10.21 4.23,-13.76 2.76,-3.75 6.62,-6.07 10.94,-6.07 4.32,0 8.19,2.32 10.95,6.07 2.61,3.55 4.22,8.42 4.22,13.76 0,5.35 -1.61,10.21 -4.22,13.77 -2.76,3.75 -6.63,6.07 -10.95,6.07zm-7.35 -8.71c1.92,2.62 4.53,4.24 7.35,4.24 2.83,0 5.43,-1.62 7.36,-4.24 2.07,-2.81 3.35,-6.75 3.35,-11.13 0,-4.37 -1.28,-8.31 -3.35,-11.13 -1.93,-2.62 -4.53,-4.24 -7.36,-4.24 -2.82,0 -5.43,1.62 -7.35,4.24 -2.07,2.82 -3.36,6.76 -3.36,11.13 0,4.38 1.29,8.32 3.36,11.13z" style="fill: inherit;"/></g></g></svg>