<svg xmlns="http://www.w3.org/2000/svg" xmlns:xlink="http://www.w3.org/1999/xlink" data-name="Layer 2 Image" preserveAspectRatio="xMidYMid meet" version="1.0" viewBox="0.0 -0.0 1075.9 937.5" zoomAndPan="magnify" style="fill: rgb(73, 88, 101);" original_string_length="4598" width="51.25199760216471px" height="44.635830638976174px"><g id="__id50_snyoekyku7"><path d="M335.54,810.47c-33.45-32.72-6.43-95.1-31.25-104.27-5.25-1.94-14.55,3.27-19.27,12.01-36.76,68.07,27.38,132.09-22.44,200.39-9.34,12.81-21.96,19.98-36.21,18.77-13.43-1.14-24.5-11.67-31.99-25.88-39.32-74.5,11.05-167.42-28.19-205.32-45.65-16.19-92.01,18.59-131.03,38.09,44.35,20.37,113.68-28.97,134.08-19.76,45.44,20.54-120.61,85.25-160.4,32.54-43.26-57.31,85.41-204.48,103.51-247.43,19.91-47.22,36.58-61.28,76.82-95.37,32.68-27.68,68.79-85.14,97.33-125.04,24.5-34.25,37.77-81.09,90.19-89.11,24.06-50.8,70.11-62.53,54.92-104.34-15.21-41.87,9.46-82.85,53.41-91.6,35.37-7.04,71.27-4.81,108.65,4.25,162.36,39.37,309.8,130.19,416.83,255.97,33.78,39.7,38.77,78.15,49.69,124.3,9.52,40.2,31.73,90.64-3.39,129.34-28.25,31.12-75.99,45.44-117.16,55.5l-152.93,37.35c-6.26,63.1,66.32,137.6,11.17,187.42-22.91,20.7-56.15,17.37-81.07,2.63-71.68-42.37-2.18-168.91-51.47-162.84-13.81,1.7-3.92,36.86-17.72,64.74-11.12,22.47-33.05,32.63-56.34,26.95-39.97-9.75-33.56-58.46-37.91-70.89-5.41-15.44-103.23,32.9-133.29,27.93-6.75,30.59,59.7,88.38,25.61,122.66-26.97,27.12-81.35,29.17-110.14,1.01ZM917.51,432.6c28.1-69.95,100.59-44.47,106.2-59.46,12.51-33.41-43.6-102.84-72.21-130.44-96.66-93.23-214.39-162.77-343.04-202.92-40.94-12.78-124.43-25.16-148.57,11.71-8.25,12.6-4.02,27.92-1.8,42.21,9.66,62.25,82.43,20.85,122.07,55.69,29.3,25.75,55.97,44.92,94.32,54.85,81.03,20.99,69.91,81.66,128.97,104.7,66.26,25.85,67.1,78.72,114.07,123.65ZM419.66,784.56c-4.03-47.95-54.11-69.02-24.74-142.63,25.12-62.95,120.65-86.81,162.98-57.64,51.4,35.43,13.04,116.68,46.42,115.59,40.17-1.31-1.95-108.17,58.69-128.28,11.54-3.83,30.6,1.81,36.86,18.3,34.13,89.95-5.77,155.92,31.64,181.83,8.91,6.17,25.9,14,40.62,5.96,42.86-23.44-19.44-81.48-19.99-189.56-.48-92.79,92.16-102.68,166.12-114.46-28.01-28.31-50.78-54.35-68.03-87.75-33.36-64.56-77.87-36.13-118.61-105.81-14.6-24.96-39.06-46.27-68.1-51.68-43.6-8.11-68.79-36.07-103.18-59.53-29.08-19.84-78.83-8.11-110.53-21.53-14.42,12.74-23.61,26.85-29.84,39.76,36.57,2.43,85.1,12.22,93.26,48.15,4.6,20.25,1.13,40.26-12.02,56.6-44.03,54.72-149.61,82.74-192,23.81-33.04,30.84-60,64.57-83.29,99.58,66.49,2.17,125.91,35.2,125.9,94.49,0,23.53-11.28,48.87-33.94,64.56-61.17,42.35-146.19,28.89-188.94-32.54-39.66,52.26-78.81,101.55-98.02,167.96,39.47-17.64,71.51-37.07,111.07-40.5,126.31-10.96,35.25,194.14,89.38,234.93,50.13-45.26-18.59-119.19,26.18-201.7,11.91-21.96,33.05-32.32,55.44-26.93,49.53,11.93,28,78.68,42.82,105.95,10.26,18.87,53.3,23.08,63.85,3.07ZM479.3,269.66c9.1-11.73,5.22-24.79,1.53-31.29-16.1-28.35-92.75-25.87-139.16,15.76-9.99,8.96-27.43,40.19-11.77,49.91,47.5,29.53,115.52,9.28,149.4-34.39ZM786.45,582.01c64.4-15.78,219.34-40.01,251.78-82.28,20.59-26.83,13.84-65.28-.46-93.05-27.28-2.68-55.42-2.26-78.27,12.61-25.13,16.35,6.17,87.01-60.62,88.87-27.97.78-54.59,6.84-79.2,19.12-20.56,11.19-36.45,28.4-33.23,54.73ZM294.33,552.29c17.22-10.26,25.11-25.72,25.36-42.46.25-17.01-8.69-30.49-24.28-43.13-35.6-28.87-89.41-29.4-126.31-.9-25.13,19.4-24.02,54.25-.68,75.1,34.68,30.99,86.28,35.02,125.92,11.39ZM551.33,618.74c-46.65-34.6-112.21-8.33-128.41,42.62,44.82-10.68,85.26-24.46,128.41-42.62Z" style="fill: inherit;"/></g><g id="__id51_snyoekyku7"><path d="M742.16,469.54c-48.7,42.63-120.55,49.16-173.55,17.24-22.34-13.45-33.94-36.63-34.92-58.19-2.89-63.28,110.08-119.17,195.2-70.78,19.29,10.97,32.13,30.2,34.87,44.77,4.62,24.6-.63,48.61-21.59,66.96ZM726.47,441.68c17.91-20.36,8.53-46.72-11.12-57.84-43.45-24.6-98.86-21.15-136.47,11.55-11.57,10.06-14.68,25.59-13.18,39.25,4.32,39.34,107.58,67.51,160.77,7.04Z" style="fill: inherit;"/></g><g id="__id52_snyoekyku7"><path d="M418.33,394.47c12.88.49,37.38-11.78,43.34,6.07-22.74,35.03-85.15,22.65-101.99-16.57,22.56-14.47,36.06,9.64,58.65,10.5Z" style="fill: inherit;"/></g><g id="__id53_snyoekyku7"><path d="M474.62,494.78c-52.36,17.64-34.04,45.3-53.03,51.25-5.24,1.64-11.37-4.15-11.3-13.02.38-48.9,56.89-69.6,68.22-55.94,2.59,3.13,2.25,15.65-3.9,17.72Z" style="fill: inherit;"/></g><g id="__id54_snyoekyku7"><path d="M635.52,282.88c-43.42-10.97-62.86,18.16-71.35,2.3-1.67-3.11-1.62-10.58,3.97-15,36.75-29.08,84.9-16.61,84.15,3.15-.27,7.04-8.14,11.73-16.76,9.55Z" style="fill: inherit;"/></g><g id="__id55_snyoekyku7"><path d="M197.64,625.93c-11.8,28.51-66.72,14.71-80.49-8.58-17.55-29.69,63.22-2.54,80.49,8.58Z" style="fill: inherit;"/></g></svg>