<svg xmlns="http://www.w3.org/2000/svg" xmlns:xlink="http://www.w3.org/1999/xlink" data-name="Calque 1" preserveAspectRatio="xMidYMid meet" version="1.0" viewBox="37.8 15.0 426.7 472.1" zoomAndPan="magnify" style="fill: rgb(73, 88, 101);" original_string_length="27419" width="97.01670722173446px" height="107.14696580713644px"><g id="__id2_snyoekyku7"><path d="M463.924,143.768c-.343-3.252-1.55-6.088-4.007-8.334-2.104-1.923-4.535-2.819-7.392-2.505-.981.108-1.958.061-2.931-.155-3.291-.729-6.505-1.731-9.621-2.993-6.617-2.68-13.195-5.456-19.791-8.185-5.264-2.178-10.377-4.676-15.413-7.332-4.533-2.39-9.142-4.622-13.81-6.73-8.014-3.619-16.273-6.673-24.185-10.538-5.021-2.452-10.234-4.484-15.379-6.662-.422-.179-1.01-.236-1.169-.695-.429-1.24-1.524-1.632-2.528-2.131-4.54-2.258-9.072-4.527-13.53-6.948-6.368-3.458-12.949-6.488-19.504-9.571-6.136-2.885-12.312-5.668-18.709-7.933-1.658-.587-3.311-1.184-4.973-1.759-1.212-.419-2.436-.497-3.635.042-.718.323-1.404.24-2.104-.041-1.391-.559-2.822-1.034-4.173-1.677-3.129-1.488-6.191-3.12-9.334-4.577-5.963-2.764-11.874-5.631-17.688-8.697-5.036-2.656-10.169-5.109-15.33-7.509-5.112-2.376-10.33-4.537-15.206-7.396-2.499-1.465-4.946-3.02-7.449-4.478-5.637-3.283-11.549-6.04-17.364-8.983-1.149-.581-2.382-1.006-3.598-1.442-4.158-1.491-7.898-.416-11.211,2.17-3.18,2.482-5.329,5.753-6.353,9.701-1.013,3.907-2.02,7.815-3.006,11.728-1.108,4.396-2.857,8.523-5.046,12.484-2.302,4.166-4.572,8.351-6.788,12.565-3.278,6.235-6.018,12.72-8.76,19.202-.255.604-.414,1.269-.964,1.874-.83-.698-1.596-1.372-2.393-2.009-5.791-4.622-11.913-8.774-18.158-12.748-5.318-3.384-11.034-5.891-17.093-7.621-4.189-1.196-8.472-1.864-12.785-2.44-4.611-.616-9.18-.523-13.742.295-15.325,2.748-27.877,10.354-38.156,21.894-2.553,2.867-4.84,5.945-6.524,9.417-5.781,11.914-6.278,24.29-3.039,36.932,1.353,5.282,3.953,10,7.304,14.282,5.638,7.204,12.464,13.114,20.108,18.08,7.087,4.604,14.651,8.347,22.236,12.036,2.602,1.265,5.278,2.368,8.061,3.224,2.619.806,5.204,1.723,7.838,2.488.966.281.982.399.553,1.311-.132.281-.285.552-.438.822-1.758,3.11-3.662,6.127-5.628,9.11-5.924,8.988-11.748,18.039-16.984,27.453-2.893,5.202-5.846,10.367-9.24,15.267-2.328,3.36-4.692,6.695-6.86,10.164-2.994,4.791-5.64,9.769-8.026,14.885-.769,1.649-1.424,3.383-1.25,5.233.387,4.097,1.941,7.503,5.952,9.309.471.212.925.467,1.401.668,4.053,1.711,8.032,3.579,11.973,5.536,2.502,1.243,5.04,2.411,7.567,3.603,5.521,2.605,11.04,5.215,16.573,7.792.768.358.796.807.515,1.484-.515,1.242-1.03,2.488-1.476,3.756-2.144,6.099-4.081,12.266-7.159,18.009-1.72,3.21-3.637,6.257-5.884,9.108-2.67,3.389-5.84,6.287-9.004,9.191-.983.902-.998,1.139.211,1.732,1.717.841,3.467,1.628,5.248,2.323,3.614,1.409,7.261,2.735,10.89,4.108,1.559.59,1.629.696,1.631,2.387.008,7.143.014,14.285.005,21.428-.002,1.759-.014,3.521-.115,5.277-.304,5.317-.648,10.632-1.102,15.94-.34,3.966-.704,7.935-.773,11.92-.011.601-.351,1.411.336,1.678.606.235.882-.585,1.229-.995,5.513-6.518,11.018-13.042,16.51-19.578,5.226-6.22,10.527-12.374,16.012-18.367,3.878-4.237,7.82-8.419,12.029-12.332,4.471-4.157,9.009-8.241,13.495-12.381,4.106-3.789,8.182-7.611,12.272-11.418q.972-.905,2.074-.245c2.572,1.547,5.165,3.055,7.9,4.305,2.588,1.182,5.163,2.394,7.74,3.599,7.028,3.288,13.97,6.76,21.209,9.587,3.854,1.505,7.659,3.141,11.406,4.901,1.351.634,1.313.638,1.244,2.082-.139,2.945-.319,5.892-.332,8.838-.017,3.931.257,7.854.472,11.78.376,6.868.699,13.74.958,20.614.142,3.776.407,7.545.773,11.299.674,6.907.911,13.83,1.083,20.758.165,6.624-.133,13.245-.261,19.866-.02,1.035-.016,2.071-.069,3.104-.282,5.423-.569,10.845-.875,16.267-.213,3.769-.402,7.541-.706,11.303-.355,4.395-.015,8.796-.236,13.189-.024.47.013.976.527,1.196.521.223.861-.129,1.202-.471,1.279-1.282,2.602-2.521,3.85-3.832,4.673-4.909,9.302-9.86,13.987-14.758,5.582-5.836,11.476-11.355,17.287-16.957,1.229-1.185,2.486-2.342,3.753-3.485,1.399-1.262,1.916-1.276,3.362-.156.45.348.888.713,1.316,1.087,7.878,6.874,15.811,13.676,24.641,19.336.98.628,1.429.557,1.938-.494.501-1.033.733-2.158.924-3.278,1.511-8.878,2.853-17.776,2.862-26.815,0-.362.025-.724.048-1.085.303-4.654.252-9.315.064-13.965-.113-2.796-.24-5.593-.073-8.376.25-4.19.221-8.379.238-12.569.019-4.609-.369-9.194-.853-13.775-.183-1.728-.545-3.449-.504-5.266.678.023,1.152.362,1.657.591,5.858,2.662,11.274,6.113,16.792,9.384,4.673,2.77,9.355,5.535,14.338,7.724,5.021,2.206,9.881,1.861,14.481-1.184,3.588-2.375,6.996-4.989,10.047-8.033,1.947-1.943,4.019-3.724,6.226-5.363,1.578-1.172,3.105-2.413,4.625-3.659,1.81-1.484,3.703-2.845,5.879-3.727,3.839-1.556,6.651-4.285,9.005-7.596,1.056-1.486,1.852-3.112,2.699-4.709,1.697-3.198,3.571-6.311,4.915-9.684,1.015-2.547,1.93-5.133,2.917-7.692,2.161-5.603,4.714-11.039,7.06-16.564,2.467-5.81,5.184-11.52,7.145-17.532,3.741-11.468,9.061-22.217,14.794-32.781,4.519-8.327,8.827-16.762,12.565-25.469,3.924-9.138,8.327-18.036,12.964-26.827,4.445-8.427,8.509-17.035,11.963-25.921,3.055-7.861,6.073-15.738,9.113-23.605.451-1.166.695-2.36.826-3.611.185-1.768.02-3.513-.046-5.268-.199-5.334.132-10.659.371-15.98.163-3.637-.079-7.231-.458-10.831ZM285.977,63.677c.602-.582,1.273-1.052,2.004-1.449.864-.469,1.715-.543,2.676-.199,7.354,2.633,14.654,5.377,21.7,8.791,6.749,3.27,13.576,6.382,20.219,9.866,4.994,2.619,10.07,5.071,15.089,7.639,1.613.825,1.642.879.434,2.258-1.971,2.249-3.328,4.837-4.505,7.563-2.071,4.794-4.107,9.61-6.392,14.303-1.991,4.088-4.345,7.997-6.463,12.025-1.878,3.57-3.707,7.17-5.238,10.905-.387.946-.868,1.394-1.93,1.365-2.043-.056-3.986.548-5.915,1.138-6.921,2.119-13.91,4.012-20.707,6.539-4.218,1.568-8.651,2.463-12.948,3.794-4.003,1.24-7.958,2.61-11.815,4.262-5.278,2.261-9.224,6.034-12.285,10.791-4.121,6.404-6.621,13.423-7.73,20.946-.088.596-.105,1.197-1.008.97-.785.019-1.396-.176-1.858-1.01-3.685-6.653-8.341-12.571-13.74-17.913-.257-.255-.498-.531-.778-.757-.596-.481-.649-.905-.125-1.54.451-.546.726-1.249,1.033-1.903,2.886-6.135,6.169-12.066,9.292-18.078,1.168-2.248,2.246-4.544,3.342-6.829,3.602-7.51,7.511-14.868,11.021-22.423,2.31-4.973,4.58-9.968,7.137-14.82,2.194-4.163,4.249-8.396,6.562-12.5,1.417-2.515,2.47-5.236,3.665-7.875,1.751-3.865,3.549-7.706,5.737-11.35.991-1.65,2.14-3.169,3.527-4.509ZM267.159,251.946c-.357-5.968-1.53-11.78-3.271-17.492-1.812-5.945-4.164-11.689-6.394-17.48-1.303-3.383-2.355-6.842-3.112-10.393-.185-.868-.141-1.586.449-2.304.551-.67.975-1.445,1.583-2.369,3.299,3.884,7.169,6.824,10.876,9.957,3.319,2.805,6.219,6.064,9.184,9.238,1.484,1.589,3.024,3.119,4.57,4.643.543.536.733.972.318,1.738-4.457,8.231-8.872,16.484-13.304,24.728-.141.263-.22.597-.587.684-.425-.209-.292-.618-.312-.95ZM250.329,206.676c-2.78,1.522-5.669,2.782-8.727,3.605-2.225.599-4.494.687-6.746.059-1.162-.324-2.212-.868-3.104-1.695-.044-.057-.089-.114-.135-.17-1.565-1.888-1.596-3.477.041-5.231,1.881-2.017,3.993-3.818,6.476-5.01,3.612-1.734,6.31-4.244,7.889-7.958.38-.895.959-1.719,1.529-2.516,1.37-1.917,3.182-2.218,5.109-.856,1.716,1.212,2.84,2.878,3.327,4.905.68,2.827.549,5.638-.406,8.409-.967,2.803-2.613,5.016-5.253,6.46ZM257.263,189.616c3.963-2.943,6.076-7.081,7.463-11.676.161-.534.348-1.076.086-1.823-.696.818-.882,1.638-1.17,2.406-1.379,3.67-3.252,7.035-6.034,9.844-.255.257-.516.508-.786.749-.381.342-.743.355-1.017-.126-.648-1.138-1.47-2.116-2.524-2.906-.549-.412-.391-1-.297-1.572.812-4.922,2.194-9.657,4.277-14.208,1.5-3.277,3.23-6.353,5.84-8.882,3.052-2.958,6.706-4.529,10.909-5.039,2.993-.363,5.873.016,8.73.819,4.981,1.399,9.894,2.998,14.626,5.116,3.508,1.57,6.775,3.546,9.86,5.83.244.181.472.385.961.788-.933.154-1.613.282-2.298.378-5.008.704-9.417,2.693-13.13,6.151-4.767,4.44-9.554,8.86-14.065,13.564-2.238,2.333-4.793,4.239-7.605,5.828-.742.419-1.494.701-2.319.802-3.281.403-6.578.666-9.838,1.241-1.025.181-1.16.015-1.181-1.015-.033-1.614-.212-3.208-.896-4.687-.32-.691-.199-1.132.407-1.582ZM310.865,171.008c1.583,1.537,3.265,2.972,4.906,4.449-.05.127-.1.254-.15.382-7.229.239-14.492-.722-21.686.681-.059-.646.362-.755.616-.974,3.772-3.254,8.296-4.663,13.109-5.44,1.289-.208,2.257-.019,3.205.902ZM273.543,194.372c2.573-1.487,4.843-3.355,6.908-5.482,3.354-3.453,6.933-6.67,10.415-9.99.788-.752,1.673-1.162,2.733-1.313,2.511-.357,5.025-.615,7.565-.661,4.653-.084,9.312.103,13.957-.302,1.22-.106,2.149.264,3.051,1.123,4.533,4.315,9.111,8.584,13.695,12.845,8.11,7.54,15.971,15.335,23.738,23.225,3.967,4.029,8.33,7.595,12.819,11.014,3.091,2.354,6.047,4.861,8.759,7.649,2.992,3.076,6.137,5.995,9.148,9.141-2.763-.998-5.548-1.941-8.285-3.006-4.972-1.934-10.096-3.392-15.174-5-6.954-2.201-13.839-4.614-20.624-7.285-6.334-2.493-12.091-6.096-17.827-9.711-5.207-3.282-10.224-6.861-15.551-9.957-7.548-4.388-15.43-7.987-23.926-10.129-3.624-.914-7.294-1.479-11.046-1.391-.333.008-.718.167-1.005-.169.069-.371.4-.458.651-.603ZM378.98,232.979c-3.852-4.002-8.18-7.449-12.545-10.855-3.757-2.931-7.298-6.104-10.664-9.477-4.97-4.98-9.859-10.041-14.923-14.928-9.045-8.729-18.265-17.271-27.429-25.874-7.365-6.915-16.049-11.421-25.682-14.224-1.936-.563-3.864-1.156-5.811-1.679-5.039-1.354-9.934-.896-14.684,1.242-.214.096-.429.319-.729.118.138-.495.591-.683.943-.957,2.649-2.062,5.722-3.294,8.809-4.502,5.938-2.323,12.125-3.835,18.228-5.621,1.488-.436,2.971-.901,4.43-1.425,6.235-2.24,12.657-3.881,18.936-5.978,4.291-1.433,8.632-1.461,13.012-.583,3.101.621,6.249.814,9.386,1.112,3.962.377,7.93.697,11.86,1.352,2.043.341,4.099.533,6.175.527,4.707-.014,9.415.028,14.122-.018,6.208-.061,12.258.946,18.205,2.633,3.971,1.127,7.501,3.203,11.009,5.308,6.299,3.779,11.763,8.606,17.024,13.672,4.845,4.666,9.463,9.556,13.955,14.564.864.964.948,1.194.257,2.322-2.432,3.969-4.738,8.015-7.387,11.851-3.587,5.192-7.27,10.32-10.61,15.68-.438.702-.887,1.401-1.262,2.138-3.323,6.532-7.712,12.371-11.912,18.33-1.97,2.796-3.838,5.653-5.407,8.689-1.094,2.117-2.315,4.157-3.496,6.222-.154.269-.314.537-.5.785-.692.922-1.174.996-2.045.247-1.019-.876-2.014-1.783-2.999-2.698-2.804-2.606-5.609-5.212-8.265-7.971ZM154.455,86.024c3.372-7.901,6.791-15.779,10.859-23.357,2.08-3.875,4.176-7.741,6.213-11.638,1.829-3.499,3.186-7.18,4.124-11.022.859-3.518,1.847-7.005,2.679-10.529,1.004-4.255,3.343-7.669,6.567-10.477,1.757-1.53,3.971-2.166,6.231-2.282,1.12.056,2.141.237,3.12.576,1.074.372,2.171.722,3.177,1.238,6.489,3.326,13.207,6.252,19.319,10.249,7.446,4.871,15.503,8.493,23.546,12.174,5.506,2.52,10.907,5.256,16.259,8.082,4.762,2.515,9.657,4.74,14.544,6.989.893.411,1.783.828,2.665,1.261,3.483,1.707,6.902,3.549,10.585,4.821.969.335,1.02.542.296,1.252-1.991,1.954-3.341,4.334-4.602,6.775-1.925,3.724-3.687,7.527-5.407,11.349-1.742,3.872-3.702,7.633-5.668,11.393-3.452,6.604-6.766,13.278-9.956,20.011-3.589,7.577-7.408,15.039-11.158,22.535-4.305,8.607-8.669,17.184-13.002,25.777-.279.554-.524,1.125-.773,1.694-.547,1.249-.586,1.264-1.536.387-1.026-.947-2.053-1.894-3.066-2.855-7.253-6.877-14.003-14.233-20.633-21.703-.343-.387-.693-.768-1.048-1.145-1.843-1.958-3.532-4.023-5.124-6.206-5.074-6.957-10.796-13.306-17.47-18.833-6.7-5.548-13.71-10.685-20.509-16.096-3.36-2.674-6.582-5.512-9.768-8.39-.671-.606-.833-1.161-.462-2.03ZM65.771,71.725c7.401-4.651,15.334-7.908,24.022-9.209,5.474-.82,10.91-.639,16.364.271,6.474,1.081,12.684,2.943,18.613,5.759,2.668,1.267,5.242,2.707,7.728,4.294,4.448,2.84,8.832,5.777,13.171,8.782,3.499,2.424,6.602,5.321,9.808,8.096,5.592,4.842,11.175,9.689,17.096,14.137,6.414,4.819,12.52,10.023,18.504,15.36,3.095,2.76,5.639,6.06,8.134,9.361,5.564,7.362,11.779,14.145,18.12,20.829,3.668,3.867,7.333,7.734,11.191,11.414,2.321,2.214,4.647,4.422,6.95,6.654,4.711,4.566,8.556,9.819,12.102,15.308.168.26.314.536.458.811.706,1.347.932,1.567-.4,2.567-1.216.913-1.906,2.3-2.695,3.575-.708,1.143-1.357,2.323-2.179,3.394-.443.578-.928,1.117-1.506,1.558-.729.555-1.017.548-1.515-.221-.73-1.127-1.42-2.287-2.034-3.481-2.724-5.296-5.01-10.79-7.288-16.287-1.763-4.255-3.557-8.498-5.897-12.479-2.659-4.524-5.868-8.656-9.343-12.56-3.885-4.365-7.913-8.605-11.939-12.843-4.35-4.579-9.105-8.74-13.722-13.042-3.445-3.209-6.927-6.377-10.585-9.345-4.745-3.85-9.739-7.36-14.742-10.86-2.331-1.631-4.573-3.391-6.923-4.993-10.439-7.115-20.992-14.055-32.761-18.836-8.696-3.532-17.686-6.125-26.936-7.762-5.51-.975-11.02-.803-16.504.237-5.757,1.091-11.381,2.651-16.8,4.906-2.196.914-4.276,2.056-6.418,3.201.487-1.126,1.303-1.976,2.082-2.847,1.449-1.618,3.085-3.06,4.494-4.721.358-.422.872-.727,1.351-1.028ZM150.683,95.422c2.87,2.036,5.659,4.195,8.348,6.507,1.762,1.515,3.714,2.806,5.524,4.268,3.121,2.521,5.689,5.567,8.075,8.77,2.627,3.527,5.22,7.08,7.825,10.623.119.162.209.346.425.71-.748-.089-1.105-.529-1.5-.832-5.262-4.028-10.62-7.916-16.339-11.279-3.702-2.177-7.458-4.257-11.282-6.212-1.524-.779-3.093-1.436-4.751-1.883-1.348-.364-1.383-.453-.807-1.675.728-1.543,1.467-3.081,2.202-4.621.355-.744.792-1.492,1.075-2.267.12-.33.211-.573.411-.878.226-.345.451-.69.677-1.035.041-.063.081-.129.119-.196ZM147.567,99.133c-.783,1.723-1.563,3.447-2.322,5.181-.327.748-.704,1.324-1.563,1.556-.95.256-1.577.983-2.012,1.831-.376.734-.741,1.491-.976,2.278-1.643,5.5-4.393,10.484-7.145,15.469-2.6,4.709-5.419,9.3-7.528,14.27-.562,1.326-1.108,2.659-1.585,4.019-.425,1.213-1.094,2.356-1.108,3.674,0,.036.002.073.005.111-2.18.119-4.361.238-6.542.339-9.431.438-18.815.08-28.128-1.633-4.881-.898-9.789-1.636-14.665-2.573-9.874-1.898-16.966-7.501-21.858-16.109-2.135-3.756-3.791-7.712-4.499-12.003-.759-4.6-.508-9.172.474-13.72.744-3.445,1.857-6.783,2.912-10.136.813-2.585,2.145-4.925,3.588-7.206.598-.945,1.446-1.605,2.336-2.236,4.012-2.84,8.446-4.791,13.115-6.251,4.499-1.407,9.06-2.516,13.742-3.153,5.651-.769,11.249-.532,16.803.678,11.263,2.453,22.187,5.903,32.45,11.251,5.889,3.068,11.587,6.422,16.999,10.212-1.236,1.098-1.823,2.679-2.493,4.152ZM124.045,147.444c.316-.816.73-1.589,1.042-2.399,2.655-6.882,6.288-13.27,9.927-19.655,2.849-4.999,5.433-10.11,7.067-15.668.921-3.134,1.762-3.498,4.914-2.583,1.848.537,3.562,1.391,5.259,2.281,9.875,5.184,19.17,11.269,28.045,18.013,2.279,1.732,4.326,3.646,5.956,6.045,4.686,6.897,10.013,13.31,15.172,19.85,3.777,4.788,7.478,9.636,11.212,14.458-3.934-3.139-7.965-6.017-12.257-8.545-8.185-4.82-17.037-7.673-26.378-9.141-5.774-.907-11.575-1.614-17.397-2.098-8.092-.672-16.195-1.258-24.325-.929-2.752.112-5.503.259-8.254.409.005-.013.012-.026.017-.04ZM191.702,139.218c-3.954-5.117-7.455-10.569-11.459-15.652-2.945-3.739-5.607-7.692-8.602-11.395-1.465-1.811-3.154-3.41-4.66-5.239.408.264.825.515,1.222.794,8.136,5.734,15.709,12.143,22.877,19.043,2.496,2.403,5.149,4.647,7.591,7.102,6.383,6.417,12.717,12.883,18.466,19.894,4.564,5.566,8.163,11.695,10.978,18.304,1.156,2.713,2.338,5.414,3.5,8.124.137.321.392.617.242,1.197-1.639-.777-3.134-1.592-4.567-2.507-1.744-1.113-3.417-2.338-5.176-3.425-3.078-1.903-5.671-4.323-7.846-7.195-7.402-9.775-15.069-19.344-22.565-29.045ZM98.121,176.353c-2.536-.78-4.972-1.753-7.336-2.921-8.257-4.08-16.538-8.131-24.089-13.465-6.711-4.741-12.774-10.201-17.762-16.768-3.383-4.454-5.811-9.412-7.359-14.789-.777-2.697-1.09-5.489-1.315-8.265-.871-10.716,1.145-20.832,6.81-30.058,3.303-5.38,7.647-9.889,12.441-13.967.374-.318.734-.696,1.486-.919-1.05,1.155-1.968,2.108-2.823,3.115-4.906,5.777-8.285,12.336-10.114,19.703-.811,3.267-1.603,6.526-1.811,9.905-.402,6.54,1.18,12.627,4.143,18.397,2.095,4.081,4.74,7.763,8.111,10.902,3.927,3.657,8.595,5.871,13.766,7.119,4.932,1.191,9.951,1.917,14.944,2.78,3.465.599,6.938,1.137,10.427,1.584,5.511.706,11.045.724,16.577.548,6.098-.194,12.19-.563,18.286-.809,3.93-.159,7.858-.029,11.787.163,7.855.384,15.679,1.09,23.478,2.095,4.465.576,8.913,1.234,13.294,2.294,11.068,2.68,20.864,7.854,29.579,15.129,3.653,3.05,7.171,6.281,11.264,8.75,3.144,1.896,6.354,3.685,9.58,5.44,1.068.581,1.748,1.355,2.233,2.443,1.579,3.545,3.163,7.095,5.411,10.286.535.76.048.995-.489,1.262-2.24,1.117-4.212,2.622-6.125,4.211-.957.795-1.943,1.594-2.599,2.649-.607.977-1.418,1.251-2.472,1.244-2.328-.015-4.657-.027-6.984.022-6.05.126-12.095.43-18.15.332-10.188-.164-20.203-1.475-29.993-4.356-3.976-1.17-7.831-2.684-11.658-4.254-11.888-4.876-24.104-8.753-36.463-12.229-8.712-2.451-17.421-4.913-26.074-7.575ZM228.501,207.779c-1.488.791-2.39,2.091-3.103,3.559-4.508,9.291-11.717,15.869-20.728,20.63-1.279.675-2.589,1.291-3.887,1.928-.182.089-.382.141-.881.321.64-1.764,1.536-3.091,2.329-4.455,3.848-6.621,7.295-13.44,10.303-20.482.385-.901.871-1.759,1.256-2.659.278-.649.735-.969,1.414-1.022.103-.008.206-.026.309-.026,3.978,0,7.942-.477,11.923-.374,1.226.032,1.408.236,1.578,1.413.076.528-.035.914-.513,1.169ZM102.191,290.198c-9.566-4.575-19.13-9.157-28.7-13.724-1.587-.757-3.208-1.443-4.8-2.189-1.451-.68-2.897-1.375-4.324-2.104-3.289-1.68-4.524-5.346-4.659-8.49.067-1.63.756-3.141,1.473-4.634,2.085-4.34,4.386-8.565,6.851-12.701,2.174-3.647,4.548-7.162,6.98-10.64,3.919-5.605,7.359-11.505,10.69-17.47,3.661-6.555,7.75-12.845,11.775-19.176,2.803-4.409,5.837-8.672,8.412-13.227.789-1.396,1.625-2.777,2.16-4.292.285-.807.705-.868,1.417-.655,2.577.769,5.168,1.492,7.749,2.249,9.429,2.766,18.946,5.231,28.251,8.417,6.855,2.348,13.545,5.126,20.316,7.693,7.639,2.896,15.539,4.648,23.627,5.676,7.155.909,14.337.968,21.529.866,2.148-.03,2.191-.006,1.259,1.999-2.466,5.303-5.107,10.519-7.815,15.701-1.725,3.301-3.467,6.593-5.171,9.905-.599,1.164-1.465,1.888-2.708,2.363-7.306,2.79-14.768,5.081-22.3,7.157-8.077,2.226-16.178,4.352-24.105,7.101-10.489,3.638-19.736,9.228-27.673,16.99-3.884,3.798-7.804,7.558-11.238,11.789-2.686,3.309-5.007,6.844-6.918,10.652-.701,1.397-.716,1.394-2.077.744ZM161.135,328.638c-5.456,5.225-11.164,10.172-16.722,15.285-5.295,4.87-10.371,9.957-15.25,15.245-10.635,11.527-20.328,23.859-30.537,35.75-.663.772-1.292,1.574-1.937,2.362-.379-1.457-.067-2.728.029-4.009.319-4.227.748-8.445,1.094-12.67.262-3.195.498-6.393.678-9.593.316-5.632.424-11.27.313-16.909-.067-3.413-.211-6.824-.274-10.237-.033-1.792-.714-2.98-2.484-3.662-5.019-1.933-9.994-3.98-14.984-5.987-.376-.151-.804-.203-1.1-.519-.14-.423.22-.55.439-.732,5.39-4.474,9.689-9.838,13.411-15.765,2.537-4.041,4.279-8.36,5.75-12.839,1.372-4.179,2.772-8.346,4.608-12.353,2.499-5.456,5.817-10.373,9.827-14.818,5.102-5.655,10.547-10.952,16.555-15.652,5.766-4.511,12.246-7.684,19.067-10.232,6.162-2.302,12.471-4.119,18.831-5.772,9.365-2.434,18.693-5.033,27.717-8.527,8.103-3.137,15.659-7.29,21.832-13.605,3.062-3.132,5.624-6.613,7.65-10.495.478-.916.998-1.813,1.552-2.684.418-.657.97-1.206,1.663-1.599.465-.264.868-.259,1.25.153,2.212,2.388,5.029,3.103,8.167,2.987,1.31-.048,1.298.011,1.698,1.287.586,1.872,1.333,3.694,1.637,5.654.118.762-.026,1.364-.393,2.047-3.212,5.97-6.801,11.723-10.137,17.62-1.89,3.341-3.176,6.968-4.438,10.58-4.26,12.189-11.122,22.851-19.241,32.748-5.152,6.28-10.849,12.083-16.395,18.015-6.896,7.376-14.438,14.085-21.693,21.09-2.717,2.623-5.454,5.224-8.182,7.836ZM218.879,345.763c-.011.203-.023.414-.23.538-.214.092-.399.004-.58-.1-4.721-2.717-9.701-4.887-14.763-6.859-7.238-2.82-14.247-6.137-21.219-9.544-3.995-1.952-8.123-3.635-11.935-5.953-.088-.054-.182-.098-.273-.148-1.191-.655-1.213-.693-.301-1.599,1.358-1.348,2.73-2.685,4.126-3.993,8.569-8.032,17.023-16.175,24.893-24.91,3.739-4.15,7.661-8.138,11.134-12.52,5.314-6.707,10.004-13.827,13.887-21.464,2.116-4.162,3.62-8.577,5.262-12.931,1.484-3.935,3.23-7.73,5.46-11.297,2.604-4.165,5.117-8.382,7.262-12.997.382.481.281.892.282,1.259.018,6.987-1.165,13.795-3.077,20.492-1.979,6.931-4.804,13.549-7.509,20.211-2.725,6.712-5.407,13.44-7.392,20.42-1.476,5.19-2.363,10.486-2.888,15.853-.493,5.046-.778,10.1-.964,15.166-.241,6.564-.45,13.127-.61,19.693-.087,3.564-.369,7.124-.565,10.686ZM294.27,406.556c-.07,2.533-.324,5.064-.214,7.599.268,6.204.42,12.411.234,18.618-.234,7.811-.789,15.597-2.006,23.327-.45,2.861-.799,5.738-1.362,8.582-.05.254-.095.509-.159.759-.366,1.437-.447,1.436-1.686.589-6.201-4.239-12.06-8.924-17.864-13.68-2.361-1.934-4.668-3.935-7.01-5.892-.394-.329-.828-.622-1.276-.876-.795-.451-1.61-.39-2.347.118-.637.438-1.258.915-1.818,1.448-5.624,5.349-11.332,10.613-16.759,16.165-5.859,5.994-11.535,12.164-17.239,18.305-1.127,1.213-2.291,2.392-3.441,3.583-.14.145-.293.293-.645.228.331-6.098.029-12.156.733-18.177.198-1.693.237-3.405.343-5.108.903-14.57,1.179-29.155,1.023-43.75-.058-5.384-.434-10.745-.878-16.108-.311-3.761-.623-7.524-.769-11.299-.265-6.822-.56-13.643-.955-20.459-.308-5.321-.695-10.639-.498-15.969.182-4.908.516-9.811.783-14.716.014-.258.04-.516.047-.775.136-5.172.224-10.346.414-15.516.29-7.855.478-15.717,1.262-23.545.861-8.601,2.908-16.916,6.093-24.95,2.784-7.023,5.603-14.032,8.366-21.064,2.811-7.155,4.931-14.504,5.806-22.162.494-4.319.789-8.656.188-13.001-.279-2.017-1.17-3.856-1.626-5.823-.323-1.394-.338-1.497.993-1.867,1.499-.417,2.947-.972,4.39-1.544,1.807-.717,1.875-.699,2.409,1.228.664,2.397,1.097,4.845,1.434,7.306,1.004,7.336,2.317,14.613,4.062,21.81.256,1.054.606,2.085.921,3.125.088.289.198.576.606.8.151-1.049-.113-1.958-.295-2.841-1.665-8.057-3.18-16.141-4.522-24.258-.406-2.455-1.055-4.854-1.788-7.227-.231-.747-.094-1.15.618-1.464.946-.417,1.839-.939,2.703-1.518.756-.506.92-.42,1.136.459.407,1.658.757,3.331,1.212,4.976,1.23,4.449,3.088,8.674,4.697,12.987,2.39,6.409,4.523,12.888,5.693,19.652.574,3.32.901,6.67,1.046,10.025.157,3.617.393,7.232.371,10.858-.053,8.88,1.543,17.502,4.231,25.935,2.986,9.367,5.987,18.73,9.038,28.076,3.253,9.962,5.589,20.137,7.17,30.488,1.313,8.594,2.922,17.134,4.512,25.679.975,5.24,1.702,10.512,2.13,15.831.403,5.008.632,10.017.492,15.037ZM406.172,299.985c-.044.148-.102.294-.164.435-2.517,5.742-4.354,11.738-6.578,17.589-2.483,6.533-5.395,12.886-8.167,19.296-2.177,5.035-4.439,10.03-6.264,15.21-1.242,3.525-2.962,6.833-4.715,10.123-.657,1.233-1.314,2.466-1.967,3.701-2.338,4.421-5.581,7.948-10.155,10.104-3.125,1.473-5.693,3.731-8.467,5.716-4.231,3.027-7.875,6.689-11.717,10.146-2.884,2.595-5.982,4.943-9.449,6.751-2.757,1.438-5.597,1.675-8.569.777-2.492-.753-4.804-1.894-7.103-3.089-5.834-3.033-11.433-6.477-17.113-9.779-3.448-2.004-6.972-3.861-10.671-5.358-.925-.375-1.377-.915-1.538-1.901-1.509-9.241-3.418-18.412-4.843-27.668-1.174-7.624-2.577-15.202-4.601-22.651-2.091-7.693-4.717-15.221-7.113-22.82-2.333-7.401-4.934-14.72-6.862-22.246-1.535-5.993-2.312-12.084-2.38-18.268-.031-2.793.013-5.589-.268-8.37-.191-1.245.198-2.314.804-3.395,4.755-8.487,9.358-17.057,13.715-25.757.65-1.298.662-1.294,1.691-.339,3.907,3.625,7.772,7.294,11.482,11.123,8.451,8.722,17.938,16.227,27.49,23.684,12.452,9.721,25.931,17.775,39.766,25.29,7.383,4.011,15.083,7.294,23.054,9.951,3.956,1.319,8.023,2.042,12.177,2.176,2.326.075,4.645-.233,6.919-.783.351-.085.694-.22,1.05-.272.454-.067.709.116.558.622ZM434.227,242.073c-6.078,13.605-12.023,27.271-19.288,40.312-2.542,4.563-4.983,9.193-7.062,13.992-.56,1.292-1.412,1.867-2.742,2.147-6.07,1.281-12.039.851-17.93-.954-5.253-1.61-10.311-3.727-15.29-6.036-7.849-3.64-15.361-7.901-22.774-12.347-3.904-2.341-7.892-4.544-11.683-7.072-8.922-5.949-17.333-12.578-25.649-19.33-6.877-5.583-13.325-11.636-19.519-17.965-2.932-2.996-6.087-5.76-9.144-8.626-3.817-3.577-7.326-7.454-10.892-11.273-1.56-1.671-3.24-3.197-4.972-4.672-1.497-1.274-3.012-2.532-4.593-3.698-1.933-1.426-3.489-3.229-5.154-4.923-.725-.737-.599-3.024.174-3.675.182-.153.464-.24.708-.259,5.049-.406,10.04-1.38,15.111-1.574.31-.012.621-.002.726-.002,5.206-.184,9.952,1.103,14.633,2.627,8.011,2.608,15.512,6.308,22.632,10.803,5.818,3.673,11.419,7.68,17.345,11.191,6.62,3.921,13.594,7.007,20.881,9.455,6.376,2.142,12.753,4.268,19.218,6.129,4.033,1.161,7.871,2.873,11.82,4.267,3.272,1.156,6.522,2.33,9.518,4.126,1.176.705,2.033.436,2.836-.906,1.461-2.441,2.867-4.917,4.23-7.414,1.267-2.321,2.65-4.564,4.178-6.719.948-1.337,1.135-1.398,2.535-.713,2.699,1.321,5.476,2.454,8.299,3.474,1.28.463,2.414,1.187,3.538,1.922,3.222,2.106,6.689,3.717,10.256,5.123,2.329.918,4.753,1.407,7.268,1.424,1.114.007,1.225.178.785,1.163ZM463.15,159.402c-.11,3.725-.227,7.441.02,11.164.134,2.02-.128,4.03-.258,6.042-.047.733-.293,1.416-.565,2.089-2.996,7.439-5.643,15.011-8.639,22.451-2.648,6.578-5.382,13.115-8.573,19.45-2.933,5.822-5.943,11.604-8.868,17.429-.54,1.075-1.282,1.468-2.437,1.524-3.02.149-5.855-.575-8.608-1.691-3.216-1.303-6.351-2.775-9.224-4.754-1.24-.854-2.581-1.514-4.002-2.029-2.577-.934-5.136-1.916-7.703-2.877-1.188-.445-1.198-.519-.459-1.611,2.871-4.24,5.981-8.328,8.486-12.802,2.81-5.02,6.037-9.761,9.232-14.535,4.113-6.148,8.043-12.418,12.045-18.64.223-.346.407-.721.579-1.096.389-.848.239-1.57-.429-2.256-1.66-1.704-3.291-3.437-4.913-5.178-2.54-2.724-5-5.525-7.605-8.185-7.277-7.431-15.217-14.015-24.541-18.778-3.158-1.613-6.532-2.583-9.977-3.342-3.943-.869-7.908-1.591-11.947-1.807-1.032-.055-2.074-.109-3.1-.026-4.702.38-9.411.195-14.115.162-3.105-.022-6.167-.634-9.251-.952-3.032-.313-6.068-.594-9.105-.862-4.425-.392-8.83-.938-13.321-1.644.025-.742.399-1.2.667-1.683,3.164-5.701,5.822-11.672,9.121-17.296,3.916-6.675,6.681-13.87,9.682-20.959.756-1.786,1.728-3.41,2.956-4.892.873-1.053,1.128-1.117,2.397-.563,5.452,2.377,10.958,4.641,16.299,7.261,6.322,3.102,12.775,5.888,19.327,8.459,6.217,2.439,12.291,5.19,18.181,8.347,7.029,3.767,14.306,7.002,21.678,10.032,4.687,1.927,9.27,4.106,14.03,5.859,2.673.984,5.416,1.74,8.173,2.44,1.307.332,2.649.536,3.999.372,3.389-.412,5.899,1.138,7.996,3.563,1.593,1.843,2.461,3.92,2.628,6.457.338,5.124.296,10.241.146,15.357Z" style="fill: inherit;"/></g><g id="__id3_snyoekyku7"><path d="M247.485,220.575c.391,5.905.424,11.548,1.362,17.113.461-2.866.025-5.689-.041-8.52-.117-5.037-.455-7.532-1.322-8.593Z" style="fill: inherit;"/></g><g id="__id4_snyoekyku7"><path d="M307.645,226.004c-2.126-1.284-4.245-2.578-6.398-3.815-7.274-4.179-14.457-8.492-20.989-13.8-1.727-1.403-3.451-2.811-5.232-4.144-2.826-2.116-5.788-4.009-9.192-5.085-.566-.179-1.135-.444-1.767-.301.017.133.005.21.033.229.167.116.332.253.519.322,4.588,1.683,8.537,4.41,12.206,7.563,9.096,7.816,19.347,13.813,30.019,19.154.44.22.855.56,1.414.515-.007-.443-.376-.495-.613-.638Z" style="fill: inherit;"/></g><g id="__id5_snyoekyku7"><path d="M264.185,202.956c1.572,1.953,3.065,3.985,5.019,5.598-.499-1.687-3.335-4.927-5.019-5.598Z" style="fill: inherit;"/></g><g id="__id6_snyoekyku7"><path d="M229.09,199.238c-5.767-.354-11.478-.96-17.234-.813,5.494.902,11.037,1.183,16.584,1.395.236.009.527-.031.65-.583Z" style="fill: inherit;"/></g><g id="__id7_snyoekyku7"><path d="M235.252,193.683c-1.195-.66-6.37-1.658-8.709-1.602,2.862,1.011,7.562,1.84,8.709,1.602Z" style="fill: inherit;"/></g><g id="__id8_snyoekyku7"><path d="M240.126,186.89c.32.538.523,1.756,1.332,1.297.655-.371-.097-1.313-.412-1.909-1.519-2.872-3.086-5.718-4.655-8.562-.343-.622-.725-1.231-1.554-1.983.099,1.098.387,1.748.699,2.387,1.446,2.967,2.902,5.932,4.59,8.77Z" style="fill: inherit;"/></g><g id="__id9_snyoekyku7"><path d="M242.702,186.982c.127.22.331.429.622.347.326-.092.327-.408.246-.636-.607-1.689-1.245-3.367-2.396-4.782-.043-.053-.189-.022-.35-.036-.197.527.056.991.244,1.451.505,1.236.963,2.495,1.635,3.655Z" style="fill: inherit;"/></g><g id="__id10_snyoekyku7"><path d="M261.092,190.803c4.695-3.54,9.42-7.044,13.909-10.847.511-.433,1.084-.863,1.239-1.635-5.352,3.514-10.384,7.42-15.21,11.596-.279.242-.684.497-.522.988.245.129.425.019.585-.102Z" style="fill: inherit;"/></g><g id="__id11_snyoekyku7"><path d="M238.763,207.331c.504-.253.997-.548,1.367-.995.132-.16.241-.371.04-.534-.095-.077-.298-.087-.425-.045-.242.079-.468.213-.696.331-1.896.981-3.881,1.665-6.022,1.841-.524.043-1.022.15-1.408.546.046.056.091.113.135.17,2.497.42,4.803-.204,7.011-1.313Z" style="fill: inherit;"/></g><g id="__id12_snyoekyku7"><path d="M242.608,199.061c.216.124.302.217.389.217,2.768.002,5.276.826,7.575,2.347.271.179.572.489.956.165-1.514-2.54-6.396-4.082-8.92-2.729Z" style="fill: inherit;"/></g><g id="__id13_snyoekyku7"><path d="M239.916,201.698c2.006.972,4.651,1.767,5.423,1.661-.969-1.454-3.495-2.29-5.423-1.661Z" style="fill: inherit;"/></g><g id="__id14_snyoekyku7"><path d="M238.767,209.973c1.652-.484,2.633-1.951,2.691-3.803-1.225,1.067-1.679,2.412-2.691,3.803Z" style="fill: inherit;"/></g></svg>