<svg xmlns="http://www.w3.org/2000/svg" xmlns:xlink="http://www.w3.org/1999/xlink" preserveAspectRatio="xMidYMid meet" version="1.0" viewBox="-5.2 -0.3 505.5 191.6" zoomAndPan="magnify" style="fill: rgb(0, 0, 0);" original_string_length="7698" width="350.3562925681617px" height="133.13539117590145px"><g data-name="Layer 2"><g data-name="Layer 1" id="__id128_snyoekyku7"><path d="M498.11.33c-14.54,11.12-28.55,22.91-43.17,34l-2.49,1.87a2.83,2.83,0,0,0-2.24,1.68c-13.83,10.34-27.91,20.34-42.43,29.68-31.57,20.31-65.43,36.82-101.61,47.13q-7.83,2.23-15.76,4l-.15-.17c-.19-.23-.81.09-.77.38a245.3,245.3,0,0,1-84.78,3.85l0,0c.43-.57.12-1-.45-1.1a2.61,2.61,0,0,0-2,.79q-3.07-.45-6.13-1a264.1,264.1,0,0,1-58.55-17.62c.21-.71-.37-1.24-1.51-.72l-.09,0a365.25,365.25,0,0,1-37.53-19c-15.43-8.89-30.29-18.72-44.83-29C44.54,48.74,35.68,42,26.79,35.3a.39.39,0,0,0-.42-.31c-5.14-3.88-10.29-7.74-15.51-11.51Q5.48,19.58.12,15.6s-.15.05-.11.09q12.12,10.19,24.58,20a1.42,1.42,0,0,0-.6.84c-1.36,11.85-2.9,23.68-5.22,35.38A348.6,348.6,0,0,1,10,106.05c-.25.83.65,1.06,1.3.87a359.4,359.4,0,0,0,69.1-28c-1.46,4.22-2,8.92-2.73,13.3l-2.46,14.3c-1.64,9.5-3.28,19-4.78,28.53-.47,3-.5,6.88,3.45,7.06,3.79.19,7.32-2.73,10.35-4.61q12.48-7.77,25-15.51l13.84-8.54q3.54-2.18,7.07-4.36c2.05-1.26,4.22-2.42,6.14-3.87q3.3,1.39,6.61,2.72c.89,11.77,3.48,23.46,5.61,35q3.3,17.9,6.74,35.75c.25,1.31,2.46.19,2.94-.39,7.82-9.29,15.57-18.63,23.38-27.94l11.61-13.83c3.19-3.79,6.52-7.52,9.62-11.4a.12.12,0,0,0,0,.14c2,2.06,3.74,4.24,5.77,6.25,2.26,2.22,4.53,4.44,6.82,6.63,4.17,4,8.36,8,12.49,12,7.31,7.11,14.45,14.64,19.6,23.51a52.16,52.16,0,0,1,6.24,15.93c.34,1.74,3.38-.2,3.71-1.13q5.88-16,11.69-32,2.86-7.83,5.72-15.67c2-5.38,4.28-10.77,5.79-16.3.5-1.86-3-.23-3.45.76-2.34,5.18-4,10.7-6,16s-3.87,10.66-5.81,16q-4.67,12.79-9.3,25.61c-6-18.24-22.38-31.38-36.12-44-2.61-2.39-5.2-4.78-7.84-7.13s-5.66-4.69-8.49-7.06c-.14-.12-.49,0-.7.2l.63-.81a248.69,248.69,0,0,0,86.41-4c1.84,4.23,4.28,8.23,6.42,12.31,2.35,4.5,4.58,9.06,6.64,13.7,4.09,9.21,8,18.81,10.53,28.59.27,1,2.32-.55,2.51-1,9.47-20.72,15.14-43.16,18.05-65.71.19-1.45-3.72,0-3.91,1.51-2.65,20.87-8.14,41.07-15.22,60.82-3.11-8.55-6.14-17.06-10-25.36q-3.16-6.91-6.73-13.64a81.2,81.2,0,0,0-7-11.55l2.31-.53a326.84,326.84,0,0,0,44.32-14,40.24,40.24,0,0,0,5.71,5.35c2.2,1.87,4.52,3.61,6.78,5.4l13.34,10.54c9,7.11,18,14.15,27.06,21.23.86.67,2.56-.58,2.89-1.36a134.24,134.24,0,0,0,9.85-36.15,148.09,148.09,0,0,0,1.25-18.82c0-3.14-.1-6.29-.32-9.43-.1-1.53-.13-3.17-.3-4.78,1.53.94,3.13,1.8,4.67,2.69,2.66,1.55,5.37,3,8.07,4.5q7.83,4.29,15.66,8.57c8.27,4.49,17.82,9,21.87,18.11.47,1,2.5-.5,2.74-1.06a84.75,84.75,0,0,0,3-58c-1.57-5.14-3.46-10.81-6.52-15.3C465.48,28,477,18.87,488.52,9.72,492.11,6.86,495.66,4,499.14,1,500.25,0,498.94-.31,498.11.33ZM22.29,70.51A257.16,257.16,0,0,0,26.7,37.36,651.32,651.32,0,0,0,81.3,76a4,4,0,0,0-.49.22,325,325,0,0,1-66.87,27.7A297.14,297.14,0,0,0,22.29,70.51Zm102.14,39.6-11.15,7q-11.58,7.27-23.19,14.49c-3.75,2.34-7.46,4.8-11.28,7-1.34.78-3.19,1.67-4.48.33s-.78-3.33-.52-4.9q2.19-13.36,4.27-26.75l2.25-14.53c.38-2.47.78-4.94,1.1-7.42A38.81,38.81,0,0,0,82.08,78a3.44,3.44,0,0,0,1-.9c1.43.89,2.86,1.78,4.29,2.65a384.87,384.87,0,0,0,46.57,24.42C130.65,105.93,127.55,108.15,124.43,110.11Zm66.09,26.18L179,150.12c-6.91,8.26-13.86,16.49-20.77,24.74q-3.28-16.71-6.66-33.42c-2.24-11-4.07-22.34-7.47-33.09a264.88,264.88,0,0,0,40.37,12.41q8.25,1.81,16.58,3C197.38,127.81,194,132.12,190.52,136.29ZM456.29,51.47A81.4,81.4,0,0,1,459.41,95a79.11,79.11,0,0,1-3.48,12.18c-4.62-7.47-13.16-11.61-20.71-15.65q-8.24-4.4-16.49-8.73c-4.81-2.53-9.67-5.47-14.78-7.47a11,11,0,0,0-.74-2.34c-.39-.88-2.16.43-2.23,1-.35,3.11.42,6.38.65,9.51S402,89.81,402,93a128.36,128.36,0,0,1-1.18,18.17,140.06,140.06,0,0,1-9,33.31q-12.54-9.81-25.1-19.59l-13.2-10.23c-2.2-1.7-4.38-3.43-6.6-5.11a50.12,50.12,0,0,0-7.22-4.86,386.75,386.75,0,0,0,56.44-28.25c18.86-11.39,36.89-24,54.5-37.22C452.55,43.28,454.76,47.18,456.29,51.47Z" style="fill: inherit;"/><path d="M28.22,62a44.13,44.13,0,0,0,2.53-5.82,44.53,44.53,0,0,0,2.18-6.22c.14-.64-1-.13-1.16.16a51.6,51.6,0,0,0-2.5,5.81,37.48,37.48,0,0,0-2.17,6.21C27,62.75,28.07,62.24,28.22,62Z" style="fill: inherit;"/><path d="M30.37,90.77a26.27,26.27,0,0,0,4.52-2.66c.4-.3.21-.67-.27-.48a27.72,27.72,0,0,0-4.74,2.62C29.2,90.69,29.82,91,30.37,90.77Z" style="fill: inherit;"/><path d="M60.26,78.57a8.74,8.74,0,0,0,2.24-.92,22.38,22.38,0,0,0,2.08-1.19c.3-.19.88-.58.75-1s-.75-.28-1-.16a14,14,0,0,0-4.51,2.41C59.22,78.21,59.6,78.68,60.26,78.57Z" style="fill: inherit;"/><path d="M85.85,84.94a15.17,15.17,0,0,0-.19,2.78c0,.81-.27,2,.24,2.62s1.9-.28,2.17-.84a5.68,5.68,0,0,0,.24-2.6,12.44,12.44,0,0,0-.16-2.66C87.91,83.24,86,84.27,85.85,84.94Z" style="fill: inherit;"/><path d="M115,107.94c.21.3.72.21,1,.08a4.28,4.28,0,0,0,1.77-1.63c.38-.52.77-1,1.11-1.58.24-.37.16-.74-.32-.79a2,2,0,0,0-1.52.65,25.06,25.06,0,0,0-2,2.59c-.09.14-.23.44-.11.61Z" style="fill: inherit;"/><path d="M183.71,130.45c-1.75,1.7-3.47,3.42-5.2,5.15s-3.44,3.43-5.15,5.16a44.64,44.64,0,0,0-4.8,5.21c-.88,1.23,1.33.76,1.81.39,3.83-2.94,7.09-6.82,10.46-10.26q2.53-2.58,5-5.19c1.38-1.45,3.4-3,4.19-4.85.29-.69-.89-.4-1.14-.26C186.92,127,185.35,128.85,183.71,130.45Z" style="fill: inherit;"/><path d="M150.4,114.12c-.08.82-.19,1.63-.2,2.45a4,4,0,0,0,.23,2.12c.43.68,1.73-.28,1.92-.74.57-1.34.18-3.19,0-4.59C152.29,112.45,150.46,113.46,150.4,114.12Z" style="fill: inherit;"/><path d="M165.19,164.09c-.79,0-2.45,1.6-1.08,1.6C164.9,165.69,166.56,164.09,165.19,164.09Z" style="fill: inherit;"/><path d="M224.24,128.38c-.59-.54-1.25-1-1.87-1.51-.28-.22-1.28.36-1,.67a12.71,12.71,0,0,0,3.23,3.19c.32.17,1.37-.28,1.13-.74A6.41,6.41,0,0,0,224.24,128.38Z" style="fill: inherit;"/><path d="M269.06,129.64c-2.52,5.18-4.25,10.82-6.22,16.22L260,153.61c-.91,2.49-2.21,5.16-2.54,7.81-.08.62,1.25-.07,1.38-.31a46.46,46.46,0,0,0,3-7.6c.94-2.69,1.89-5.37,2.83-8,1.84-5.25,4.12-10.58,5.33-16C270.11,128.91,269.18,129.39,269.06,129.64Z" style="fill: inherit;"/><path d="M251.59,152A5,5,0,0,0,252,155c.19.31.79-.12.87-.33a7,7,0,0,0,.4-3.38C253.2,150.57,251.63,151.38,251.59,152Z" style="fill: inherit;"/><path d="M324.63,112.78a53.89,53.89,0,0,0-2.26,8.56c-.66,2.83-1.34,5.66-2,8.5s-1.22,5.42-1.82,8.14c-.56,2.5-1.77,5.57-1.39,8.15.09.63,1.13-.13,1.26-.38,1.35-2.59,1.7-5.74,2.32-8.58s1.25-5.64,1.86-8.47,1.14-5.41,1.71-8.12,1.47-5.47,1.45-8.16C325.79,111.86,324.73,112.53,324.63,112.78Z" style="fill: inherit;"/><path d="M314.57,117.2c-.72-.63-2,0-2.63.55s-1.37,1.38-.82,2.07c.36.47,1.34-.15,1.48-.57a6.32,6.32,0,0,1,.22-.61l.07-.1.08,0,.44-.11.15,0c.12,0,.74-.33.82-.28s.11,0,.08-.06l.21-.44A.31.31,0,0,0,314.57,117.2Zm-1.8,1.38.09,0S312.78,118.6,312.77,118.58Zm.19-.11,0,0S313,118.46,313,118.47Z" style="fill: inherit;"/><path d="M298.58,122.18c.84,0,2.63-1.72,1.15-1.72C298.89,120.46,297.11,122.18,298.58,122.18Z" style="fill: inherit;"/><path d="M378.9,88.58a4,4,0,0,0-.3,1.45,3.25,3.25,0,0,0,.27,1.24c.21.34.87-.14,1-.37a5,5,0,0,0,.28-1.45,3.19,3.19,0,0,0-.31-1.22C379.71,87.9,379,88.38,378.9,88.58Z" style="fill: inherit;"/><path d="M393.66,90.06c.31,0,1-.63.43-.63C393.78,89.43,393.13,90.06,393.66,90.06Z" style="fill: inherit;"/><path d="M394.84,88.84c-.12,1-.16,2.08-.2,3.13a5.16,5.16,0,0,0,.3,2.65c.31.62,1.53-.26,1.67-.64.65-1.75.32-4,.09-5.86C396.59,87.26,394.91,88.23,394.84,88.84Z" style="fill: inherit;"/><path d="M390.64,124.71a41.58,41.58,0,0,0-1.75,8.3c0,.45.86-.1.94-.29,2.45-5.44,3.53-11.65,5-17.41s2.93-11.45,4.14-17.22c.1-.46-.78-.09-.87.2-1.87,5.86-3.55,11.81-5.15,17.75Z" style="fill: inherit;"/><path d="M452.41,67.53a54.35,54.35,0,0,1-.87,9.61c-.59,3.26-1.86,6.32-2.52,9.53-.18.89,1.35.16,1.57-.21,3.3-5.56,4.15-13.12,4-19.47a44.42,44.42,0,0,0-4.79-19.42c-.18-.35-1.09.16-1,.53A56.53,56.53,0,0,1,452.41,67.53Z" style="fill: inherit;"/><path d="M438.72,55.58a17.1,17.1,0,0,0,3.24-2A19.53,19.53,0,0,0,445,51.36c.56-.57,0-.93-.64-.68a21.51,21.51,0,0,0-3.32,2,15.29,15.29,0,0,0-3,2.19C437.47,55.49,438.08,55.83,438.72,55.58Z" style="fill: inherit;"/></g></g></svg>