<svg xmlns="http://www.w3.org/2000/svg" xmlns:xlink="http://www.w3.org/1999/xlink" preserveAspectRatio="xMidYMid meet" version="1.0" viewBox="-0.2 -0.3 248.9 331.3" zoomAndPan="magnify" style="fill: rgb(73, 88, 101);" original_string_length="21897" width="50.42439110782726px" height="66.98892538479468px"><g id="__id16_snyoekyku7"><path d="M167.67,307.52c-.16-.16-1.66.42-2.03.49-.19.04-.44-.02-.7.02-6.38.97-13.03.81-19.43,1.92-3.32.57-11.05,2.32-12.74,5.48-.78,1.44-.43,1.98.84,2.76,5.95,3.69,17.95,5.04,24.83,5.63,16.01,1.37,34.86,2.64,50.33-1.94,3.11-.92,6.81-2.33,8.29-5.39-.24-.73-.31-1.45-.74-2.11-.22-.34-.84-.98-1.17-1.23-2.39-1.86-6.35-2.31-9.21-2.79-7.62-1.27-15.42-1.79-23.05-3.1-.56-.1-1.03.22-1.45-.47-.23.02-.12.39-.12.6-.02,1.25-.35,3.35-.25,4.32.04.34.58,1.07-.35,1.07-.48,0-.79-.67-.85-1.07-.21-1.52.16-3.47.02-5.05-.02-.26-.21-.4-.22-.5-1.9-15.31-.28-30.68-.76-46.27.23-.85.52-1.23,1.45-1.07.04.55.43,1.29.49,1.79.3,2.73.31,5.64.46,8.41.62,11.47.85,23.8.24,35.48-.02.44.03.89,0,1.33,2.35.08,4.73-.11,7.08,0,5.45.23,11.46.84,16.81,1.66,4.34.67,10.84,1.45,13.4,5.54.62.99.82,1.91,1.09,2.99-.2.78-.26,1.61-.53,2.37-1.22,3.47-6.44,5.57-9.71,6.6-19.23,6.05-43.97,3.57-63.52.5-4.9-.77-11.73-1.48-15.73-4.9-.22-.19-.22-.46-.35-.61-.91-1.02-1.05-1.11-1.35-2.49-.02-.11-.17-.19-.19-.29-.11-.67.33-1.17.24-1.87,2.51-6.12,10.22-8.15,16.15-9.03,6.36-.94,12.28-.67,18.72-.94.96-.04,1.98-.36,3.12-.26.26.02.54.31.59.25.03-.03-.03-.36.03-.57.44-1.66.27-4.88.22-6.75-.18-6.92-.6-13.48-.5-20.62,0-.15.02-.87.03-.92,1.17-6.19-.69-14.42.45-20.67.12-.63.51-1.35.49-2.03-1.28,1.05-2.61,2.42-3.48,3.84-1.74,2.85-2.13,6.33-3.75,9.21-2.19,3.9-5.8,5.92-10.15,6.63-4.97.81-14.22-.83-17.76,3.59-1.89,2.36-3.11,6.19-4.79,8.88-2.21,3.53-7.15,7.64-11.07,9.08-.54.2-2.41.8-2.85.76-.34-.03-.63-.38-1.07-.25-.17-1.59.59-1.03,1.57-1.19,2.7-.43,7.83-4.05,9.59-6.24,1.1-1.38,2.11-3.75,2.72-5.43,1.21-3.32,1.66-8.45,4.35-10.76,2.08-1.79,5.64-2.87,8.27-3.24,3.7-.53,8.78.06,12.21-1.23,4.79-1.79,4.86-6.19,6.9-10.13,1.59-3.06,5.94-7.77,9.47-8.28.49-.07,2.4.06,2.49-.03.03-.03.03-.93,0-.96-.18-.18-4.37.05-5.17,0-8.72-.5-19.68-3.39-28.02-6.52-7-2.62-18.37-9.24-19.55-17.38-.39-2.69,1.54-6.43,3.81-7.89,3.72-2.39,8.5-2.57,12.56-1.04,7.39,2.77,16.46,10.04,22.46,15.2,2.95,2.53,7.02,5.99,9.48,8.99.22.27.48.69.7.97.57.69,2.58,2.77,3.24,3.24.16.11.86.47.96.35.51-2.01,1.99-3.67,4.2-3.37.38.05,1.44.87,1.67,1.2.14.19.51.9.57,1.11.08.28-.12.72.15.81.56-.39,1.24-.68,1.8-1.08,3.59-2.58,7.63-6.62,10.92-9.71,9.27-8.71,22.45-24.37,35.04-27.08,4.03-.87,9.55.52,11.82,4.2.28.45,1.11,2.19,1.2,2.63.07.33-.03.66.01.94.62,3.83-2.18,9.6-4.67,12.59-7.36,8.85-21.55,14.44-32.35,17.77-5.41,1.67-12.24,3.66-17.77,4.06-.86.06-5.45-.21-5.64,0-.08.08.05,1.45,0,1.81s-.38.62-.25,1.07h3.96c.08,0,1.14.18,1.45.23,9.3,1.55,10.93,10.01,16.06,16.32.4.49.72,1.14,1.31,1.56.72.52,1.23.49,2.01.63,2.59.45,5.3.04,7.95.2,1,.06,2.59.29,3.6.48,4.27.81,7.8,4.08,9.43,8.08.52,1.28.75,2.73,1.27,4.01.69,1.73,2.39,4.29,4.19,4.92s4.24.97,6.22,1.22c.28.03.44.23.7.26,1.1.1,3.2-.24,4.07,0,.21.06.85.94.85,1.06,0,.04-.51.56-.61.58-.59.17-3.96.08-4.79.02-.27-.02-.43-.23-.7-.26-5.1-.52-10.8-1.24-13.77-6.14-1.86-3.06-2.72-7.28-6.89-8.22-2.78-.63-6.19-.08-9.1-.26-.79-.05-2.08-.33-2.9-.46-2.93-.45-4.88-1.77-6.81-3.98-3.49-4-6.13-12.08-10.06-14.88-1.78-1.27-5.16-1.77-7.29-2.06-.12-.02-.18-.21-.5-.21-.24,0-.06.28-.16.57-.08.23-.53,1.15-.68,1.24-.1.06-.71.29-.87.33-.2.05-1.47-.41-1.53-.47-.04-.04,0-.3-.12-.47-.19-.27-.79-.37-1.09-.59-.53-.38-1.26-1.7-1.57-1.79-.85-.24-1.65.4-2.5.23,1.45,1.44.86,3.51.95,5.4.53,10.85.27,22.35-.22,33.34-.26,5.86-.49,12.1-.98,17.97-.05.62.14,1.66,0,2.16-.15.54-.6.12-.95.12.11-.29-.24-.56-.24-.6,0-.58.14-3.82,0-3.96ZM185.42,243.24c.68.18,1.26-.17,1.79-.25,11.8-1.73,26.38-8.13,36.35-14.74,3.78-2.5,9.14-7.83,9.8-12.5.25-1.75-.21-3.02-1.65-4.05-.93-.67-1.76-.67-2.77-.83-.34-.05-.51-.3-.96-.26-1.15.11-2.91.56-4.04,1-12.27,4.88-21.66,18.01-31.34,25.98-1.59,1.31-3.14,2.62-4.79,3.85-.79.59-1.78.99-2.4,1.8ZM167.19,243.72c-.78-.27-1.78-.79-2.49-1.23-10.38-6.45-19.74-17.94-31-22.48-2.42-.98-4.54-1.65-7.13-.97-1.01.27-1.54.69-2.3,1.3-.17.14-.42.09-.46.13-.05.05.02.23-.04.31-.63.86-.6.88-.72,1.92-.01.12-.25.23-.2.48.02.11.18.19.2.3.17,1.45.99,2.9,1.94,4.05,6.4,7.79,20.16,11.1,29.6,13.58,3.69.97,7.88,2.16,11.57,2.82.23.04,1.1.22,1.05-.21Z" style="fill: inherit;"/><path d="M54.47,276.82c-.16-.16-1.66.42-2.03.49-.19.04-.44-.02-.7.02-6.38.97-13.03.81-19.43,1.92-3.32.57-11.05,2.32-12.74,5.48-.78,1.44-.43,1.98.84,2.76,5.95,3.69,17.95,5.04,24.83,5.63,16.01,1.37,34.86,2.64,50.33-1.94,3.11-.92,6.81-2.33,8.29-5.39-.24-.73-.31-1.45-.74-2.11-.22-.34-.84-.98-1.17-1.23-2.39-1.86-6.35-2.31-9.21-2.79-7.62-1.27-15.42-1.79-23.05-3.1-.56-.1-1.03.22-1.45-.47-.23.02-.12.39-.12.6-.02,1.25-.35,3.35-.25,4.32.04.34.58,1.07-.35,1.07-.48,0-.79-.67-.85-1.07-.21-1.52.16-3.47.02-5.05-.02-.26-.21-.4-.22-.5-1.9-15.31-.28-30.68-.76-46.27.23-.85.52-1.23,1.45-1.07.04.55.43,1.29.49,1.79.3,2.73.31,5.64.46,8.41.62,11.47.85,23.8.24,35.48-.02.44.03.89,0,1.33,2.35.08,4.73-.11,7.08,0,5.45.23,11.46.84,16.81,1.66,4.34.67,10.84,1.45,13.4,5.54.62.99.82,1.91,1.09,2.99-.2.78-.26,1.61-.53,2.37-1.22,3.47-6.44,5.57-9.71,6.6-19.23,6.05-43.97,3.57-63.52.5-4.9-.77-11.73-1.48-15.73-4.9-.22-.19-.22-.46-.35-.61-.91-1.02-1.05-1.11-1.35-2.49-.02-.11-.17-.19-.19-.29-.11-.67.33-1.17.24-1.87,2.51-6.12,10.22-8.15,16.15-9.03,6.36-.94,12.28-.67,18.72-.94.96-.04,1.98-.36,3.12-.26.26.02.54.31.59.25.03-.03-.03-.36.03-.57.44-1.66.27-4.88.22-6.75-.18-6.92-.6-13.48-.5-20.62,0-.15.02-.87.03-.92,1.17-6.19-.69-14.42.45-20.67.12-.63.51-1.35.49-2.03-1.28,1.05-2.61,2.42-3.48,3.84-1.74,2.85-2.13,6.33-3.75,9.21-2.19,3.9-5.8,5.92-10.15,6.63-4.97.81-14.22-.83-17.76,3.59-1.89,2.36-3.11,6.19-4.79,8.88-2.21,3.53-7.15,7.64-11.07,9.08-.54.2-2.41.8-2.85.76-.34-.03-.63-.38-1.07-.25-.17-1.59.59-1.03,1.57-1.19,2.7-.43,7.83-4.05,9.59-6.24,1.1-1.38,2.11-3.75,2.72-5.43,1.21-3.32,1.66-8.45,4.35-10.76,2.08-1.79,5.64-2.87,8.27-3.24,3.7-.53,8.78.06,12.21-1.23,4.79-1.79,4.86-6.19,6.9-10.13,1.59-3.06,5.94-7.77,9.47-8.28.49-.07,2.4.06,2.49-.03.03-.03.03-.93,0-.96-.18-.18-4.37.05-5.17,0-8.72-.5-19.68-3.39-28.02-6.52-7-2.62-18.37-9.24-19.55-17.38-.39-2.69,1.54-6.43,3.81-7.89,3.72-2.39,8.5-2.57,12.56-1.04,7.05,2.64,15.26,9.2,21.02,14,3.42,2.85,8.08,6.72,10.92,10.19.22.27.48.69.7.97.57.69,2.58,2.77,3.24,3.24.16.11.86.47.96.35.51-2.01,1.99-3.67,4.2-3.37.38.05,1.44.87,1.67,1.2.14.19.51.9.57,1.11.08.28-.12.72.15.81.56-.39,1.24-.68,1.8-1.08,3.59-2.58,7.63-6.62,10.92-9.71,9.27-8.71,22.45-24.37,35.04-27.08,4.03-.87,9.55.52,11.82,4.2.28.45,1.11,2.19,1.2,2.63.07.33-.03.66.01.94.62,3.83-2.18,9.6-4.67,12.59-7.36,8.85-21.55,14.44-32.35,17.77-5.41,1.67-12.24,3.66-17.77,4.06-.86.06-5.45-.21-5.64,0-.08.08.05,1.45,0,1.81s-.38.62-.25,1.07h3.96c.08,0,1.14.18,1.45.23,9.3,1.55,10.93,10.01,16.06,16.32.4.49.72,1.14,1.31,1.56.72.52,1.23.49,2.01.63,2.59.45,5.3.04,7.95.2,1,.06,2.59.29,3.6.48,4.27.81,7.8,4.08,9.43,8.08.52,1.28.75,2.73,1.27,4.01.69,1.73,2.39,4.29,4.19,4.92s4.24.97,6.22,1.22c.28.03.44.23.7.26,1.1.1,3.2-.24,4.07,0,.21.06.85.94.85,1.06,0,.04-.51.56-.61.58-.59.17-3.96.08-4.79.02-.27-.02-.43-.23-.7-.26-5.1-.52-10.8-1.24-13.77-6.14-1.86-3.06-2.72-7.28-6.89-8.22-2.78-.63-6.19-.08-9.1-.26-.79-.05-2.08-.33-2.9-.46-2.93-.45-4.88-1.77-6.81-3.98-3.49-4-6.13-12.08-10.06-14.88-1.78-1.27-5.16-1.77-7.29-2.06-.12-.02-.18-.21-.5-.21-.24,0-.06.28-.16.57-.08.23-.53,1.15-.68,1.24-.1.06-.71.29-.87.33-.2.05-1.47-.41-1.53-.47-.04-.04,0-.3-.12-.47-.19-.27-.79-.37-1.09-.59-.53-.38-1.26-1.7-1.57-1.79-.85-.24-1.65.4-2.5.23,1.45,1.44.86,3.51.95,5.4.53,10.85.27,22.35-.22,33.34-.26,5.86-.49,12.1-.98,17.97-.05.62.14,1.66,0,2.16-.15.54-.6.12-.95.12.11-.29-.24-.56-.24-.6,0-.58.14-3.82,0-3.96ZM72.22,212.54c.68.18,1.26-.17,1.79-.25,11.8-1.73,26.38-8.13,36.35-14.74,3.78-2.5,9.14-7.83,9.8-12.5.25-1.75-.21-3.02-1.65-4.05-.93-.67-1.76-.67-2.77-.83-.34-.05-.51-.3-.96-.26-1.15.11-2.91.56-4.04,1-12.27,4.88-21.66,18.01-31.34,25.98-1.59,1.31-3.14,2.62-4.79,3.85-.79.59-1.78.99-2.4,1.8ZM53.99,213.02c-.78-.27-1.78-.79-2.49-1.23-10.38-6.45-19.74-17.94-31-22.48-2.42-.98-4.54-1.65-7.13-.97-1.01.27-1.54.69-2.3,1.3-.17.14-.42.09-.46.13-.05.05.02.23-.04.31-.63.86-.6.88-.72,1.92-.01.12-.25.23-.2.48.02.11.18.19.2.3.17,1.45.99,2.9,1.94,4.05,6.4,7.79,20.16,11.1,29.6,13.58,3.69.97,7.88,2.16,11.57,2.82.23.04,1.1.22,1.05-.21Z" style="fill: inherit;"/><path d="M199.33,82.79s.38-.04.58.02c.55.16.55,1.51.65,1.99.41,1.99,1.26,3.99,1.42,6.02.6,7.67.46,15.34.7,23.04,0,.27.25.44.26.7.46,14.22.62,28.47.96,42.69.05,2.13.23,5.55-.22,7.47-.05.23,0,.47-.05.67-.05.18-.58.69-.82.62-.71-.21-.51-2.23-.59-2.77-.27-1.85-.53-3.37-.72-5.28-1.25-12.56-1.49-25.45-2.18-38.12-.06-1.07.06-2.17,0-3.25-.63.33-1,1.02-1.59,1.41-2.04,1.35-5.3,2.06-7.64,2.44-3.86.62-7.58.55-11.53.7-7.82.3-15.46.9-23.26-.22-1.82-.26-5.25-.82-6.91-1.48-.44-.17-.73-.46-1.11-.69.06,3.39-.08,6.81,0,10.2.26,12.46.92,24.96,1.44,37.41.21,4.97.73,10.21.48,15.1-.06,1.18.11,1.92-1.43,1.8,0-.45-.35-.94-.45-1.35-.44-1.76-.52-3.72-.74-5.5-1.29-10.66-1.65-21.56-2.16-32.38-.78-16.48-1.42-33.53.22-49.89.35-3.48.64-7.09,1.23-10.52.02-.13.32-.31.22-.62,1.21.1.41-.21.58-.48.42-.68,1.02-1.07,1.34-.12.69,2.06,3.88,3.48,5.91,4.17,9.3,3.15,23.07,3.41,32.59,1.48,2.39-.48,7.82-2.08,9.8-3.4.34-.22,1.55-1.83,1.83-.81.13.49-.07.63-.24.95-1.66,3.15-4.13,3.94-7.28,4.95-7.58,2.42-16.11,2.25-24,1.4-4.79-.51-15.72-2.15-18.96-5.98-.11-.14-.27-.72-.48-.72-.49-.01-.31,1.27-.35,1.57-.4,2.82-.45,3.82-.24,6.7.51,7.04.16,14.27.47,21.35.01.26,0,.53.36.36.42-.2,1.04-.91,1.47-1.17,2.39-1.46,6.11-1.99,8.82-2.46,4.26-.72,8.85-1.26,13.21-1.42,9.03-.34,18.64-.45,27.62.94,1.33.21.55-.14.6-.54.52-3.89-.15-10.43-.26-14.67-.09-3.57-.39-7.47-.02-11.51.02-.26.31-.54.25-.59-.07-.06-.55.1-.73-.11l-.73-1.55c-3.44-2.19-7.6-3.52-11.61-4.34-8.94-1.83-18.55-1.61-27.38.94-2.95.55-5.46,2.3-8.12,3.64-1.54.22-2.1-.52-1.79-2.03.19-.91,2.06-1.67,2.77-2.27,10.71-5.01,24.36-5.64,35.71-2.92,3.26.78,10.07,2.97,11.99,5.76.37.54.26,1.08.58,1.59.06.3-.55.98-.47,1.05ZM149.2,116.6l2.03.49c11.05,1.49,21.9,1.16,33.1.46,3.86-.24,8.08-.36,11.73-1.94,1.14-.49,2.44-1.6,2.06-2.96-.06-.22-.35-.34-.59-.37-1.4-.19-3.31.07-4.81.01-11.9-.43-23.99-.52-35.52,1.64-2.22.42-4.81.85-6.89,1.74-.23.1-1.32.76-1.11.93Z" style="fill: inherit;"/><path d="M86.13,52.09s.38-.04.58.02c.55.16.55,1.51.65,1.99.41,1.99,1.26,3.99,1.42,6.02.6,7.67.46,15.34.7,23.04,0,.27.25.44.26.7.46,14.22.62,28.47.96,42.69.05,2.13.23,5.55-.22,7.47-.05.23,0,.47-.05.67-.05.18-.58.69-.82.62-.71-.21-.51-2.23-.59-2.77-.27-1.85-.53-3.37-.72-5.28-1.25-12.56-1.49-25.45-2.18-38.12-.06-1.07.06-2.17,0-3.25-.63.33-1,1.02-1.59,1.41-2.04,1.35-5.3,2.06-7.64,2.44-3.86.62-7.58.55-11.53.7-7.82.3-15.46.9-23.26-.22-1.82-.26-5.25-.82-6.91-1.48-.44-.17-.73-.46-1.11-.69.06,3.39-.08,6.81,0,10.2.26,12.46.92,24.96,1.44,37.41.21,4.97.73,10.21.48,15.1-.06,1.18.11,1.92-1.43,1.8,0-.45-.35-.94-.45-1.35-.44-1.76-.52-3.72-.74-5.5-1.29-10.66-1.65-21.56-2.16-32.38-.78-16.48-1.42-33.53.22-49.89.35-3.48.64-7.09,1.23-10.52.02-.13.32-.31.22-.62,1.21.1.41-.21.58-.48.42-.68,1.02-1.07,1.34-.12.69,2.06,3.88,3.48,5.91,4.17,9.3,3.15,23.07,3.41,32.59,1.48,2.39-.48,7.82-2.08,9.8-3.4.34-.22,1.55-1.83,1.83-.81.13.49-.07.63-.24.95-1.66,3.15-4.13,3.94-7.28,4.95-7.58,2.42-16.11,2.25-24,1.4-4.79-.51-15.72-2.15-18.96-5.98-.11-.14-.27-.72-.48-.72-.49-.01-.31,1.27-.35,1.57-.4,2.82-.45,3.82-.24,6.7.51,7.04.16,14.27.47,21.35.01.26,0,.53.36.36.42-.2,1.04-.91,1.47-1.17,2.39-1.46,6.11-1.99,8.82-2.46,4.26-.72,8.85-1.26,13.21-1.42,9.03-.34,18.64-.45,27.62.94,1.33.21.55-.14.6-.54.52-3.89-.15-10.43-.26-14.67-.09-3.57-.39-7.47-.02-11.51.02-.26.31-.54.25-.59-.07-.06-.55.1-.73-.11l-.73-1.55c-3.44-2.19-7.6-3.52-11.61-4.34-8.94-1.83-18.55-1.61-27.38.94-2.95.55-5.46,2.3-8.12,3.64-1.54.22-2.1-.52-1.79-2.03.19-.91,2.06-1.67,2.77-2.27,10.71-5.01,24.36-5.64,35.71-2.92,3.26.78,10.07,2.97,11.99,5.76.37.54.26,1.08.58,1.59.06.3-.55.98-.47,1.05ZM36,85.9l2.03.49c11.05,1.49,21.9,1.16,33.1.46,3.86-.24,8.08-.36,11.73-1.94,1.14-.49,2.44-1.6,2.06-2.96-.06-.22-.35-.34-.59-.37-1.4-.19-3.31.07-4.81.01-11.9-.43-23.99-.52-35.52,1.64-2.22.42-4.81.85-6.89,1.74-.23.1-1.32.76-1.11.93Z" style="fill: inherit;"/><path d="M248.49,54.24c-.11.11-1.43.38-1.76.52-1.07.46-3.12,1.37-3.99,2-1.59,1.15-2.01,4.14-2.42,5.97-.8,3.49-1.41,7.09-2.1,10.61-.06.28-.19,1.68-.27,1.76-.03.03-.72.24-.83.25-.3.03-.54.02-.73-.24-.1-.14-.56-.81-.58-.86-.22-.76.05-2.62,0-3.59-.05-.76-.45-2.1-.5-2.86-.19-2.91.5-6.36-.51-9.09-.29-.79-.72-1.51-1.55-1.81-.18-.07-.44,0-.66-.05-1.57-.33-2.81-.08-4.36-.2-.64-.05-1.7-.38-2.38-.5-.29-.05-.66.08-.95,0-.1-.03-.61-.54-.61-.58,0-.04.28-.56.37-.6.58-.24,1.32-.85,1.68-.94,1.63-.38,3.36-.15,4.99-.53,1.27-.29,1.92-2.14,2.27-3.24.76-2.39,2.23-7.25,2.44-9.56.15-1.68-.14-3.56,0-5.27.29-.45.9-.96,1.31-.38.68.96.26,3.19.35,4.45.15,2.07.96,4.12.96,6.24.45,1.26.15,2.96.84,4.2.27.49,1.88,1.76,2.43,1.89.33.07.66-.03.94.01,1.23.22,2.59.59,3.82.74.94.11,1.64-.39,2.04.85.01.04-.21.78-.24.81ZM242.5,54.24c-1.75-.1-3.45-.98-4.29-2.55l-1.23-2.73c-.51,1.73-1.07,4.29-2.63,5.4-.21.15-.49.02-.49.23.39.53,1.44.64,1.81,1.07.25.3,1.25,2.39,1.44,2.88.48,1.24.69,2.52.59,3.85l.45-1.35c.46-2.06.7-4.31,2.42-5.73l1.92-1.08ZM237.7,63.84s.03-.92,0-.96c-.33-.39-.33,1.35,0,.96Z" style="fill: inherit;"/><path d="M152.93,129.08c1.07-.32,1.24,1.86,1.34,2.48,1.94,11.82,1.39,24.79,1.66,36.96.06,2.5-.32,5.82-.02,8.17.07.57.8,2.13,1.08,2.76.8,1.8,1.86,3.85,2.8,5.6.12.22.4.38.44.52.21.69-.64,1.25-1.16.44-1.51-2.29-2.52-5.05-3.89-7.38-.69-1.17-2.12-2.56-2.34-3.89-.07-.41.03-.82-.02-1.18-.44-3.26-.6-6.72-.5-10.07s.38-7.17.49-10.3c.19-5.23-.38-10.38-.5-15.59-.06-2.56.06-5.13,0-7.69-.03-.24.44-.77.61-.83Z" style="fill: inherit;"/><path d="M39.72,98.38c1.07-.32,1.24,1.86,1.34,2.48,1.94,11.82,1.39,24.79,1.66,36.96.06,2.5-.32,5.82-.02,8.17.07.57.8,2.13,1.08,2.76.8,1.8,1.86,3.85,2.8,5.6.12.22.4.38.44.52.21.69-.64,1.25-1.16.44-1.51-2.29-2.52-5.05-3.89-7.38-.69-1.17-2.12-2.56-2.34-3.89-.07-.41.03-.82-.02-1.18-.44-3.26-.6-6.72-.5-10.07s.38-7.17.49-10.3c.19-5.23-.38-10.38-.5-15.59-.06-2.56.06-5.13,0-7.69-.03-.24.44-.77.61-.83Z" style="fill: inherit;"/><path d="M114.19,11.79c.07.07-.04,1.45,0,1.81.14,1.54.23,1.72,0,3.34-.07.47.37,2.16.48,2.9.25,1.74.64,3.36.94,5.06.21,1.2-.1,2.35,1.55,2.52,1.94,1.02,3.94,1.9,6.15,2.13.38,2.17-1.55,1.27-3.01,1.43-.44.05-1.22.45-1.66.5-1.31.15-2.32-.46-2.98,1.1-.26.62-.7,2.2-.76,2.84-.31,3.17-.1,6.43-.22,9.61-.06,1.51-.32,3.14-.52,4.76-.16,1.35-.44,3.14-.45,4.59,0,.37.22.95-.36.84-.61-.48-.29-1.32-.39-2.01-.05-.37-.42-1.08-.46-1.46-.16-1.44-.15-3.13-.24-4.56-.18-2.82-.69-5.37-.96-8.15-.12-1.22.11-2.62.02-3.85-.05-.71-.4-1.88-.5-2.62-.12-.93.17-2.04-.94-2.66-.11-.06-.8-.31-.85-.31-.07,0-.23.21-.48.21-1.25,0-2.47-.05-3.6,0-1.34.05-2.25.29-2.05-1.32.03-.23.13-.06.33-.15.24-.11.57-.38.78-.43,1.32-.31,2.32-.55,3.61-.95.91-.28,2.53-.64,3.3-1.02.16-.08.91-.79.99-.93.12-.22.57-1.55.6-1.8.1-.8-.2-1.63-.2-2.17,0-1.42.75-2.54.68-4.32-.06-1.44-.03-2.54.24-4.06.04-.23-.07-.78,0-.85.03-.03.93-.03.96,0ZM113.47,32.78c.21.93-.15,2.47,0,3.48.8.2.44-.81.45-1.29,0-.32.03-.44.04-.74.04-1.05.1-2.33.5-3.33.62-1.53,1.71-.63,2.37-1.83-1.11-.34-2.52-.83-2.64-2.16-.54.29-.67.94-1.2,1.32-.25.18-1.2.48-1.2.72,0,.1.78,1.11.93,1.47.23.59.18,1.11.3,1.62.05.23.43.63.45.74Z" style="fill: inherit;"/><path d="M67.42,186.88s-.23-.72-.25-.83c-.08-.58.33-2.42.52-3.1,1.71-6.42,8.61-16.9,12.56-22.46,1.74-2.45,4.57-5.4,6.01-7.9.2-.35.37-1.11.57-1.59.15-.36,0-.53.62-.33.66.2.2.86.15,1.11-1.1,5-3.5,8.34-6.14,12.56-3.6,5.77-7.31,11.48-10.64,17.42-.89,1.59-1.69,3.27-2.54,4.89-.12.27-.77.31-.84.24Z" style="fill: inherit;"/><path d="M180.62,217.58s-.23-.72-.25-.83c-.08-.58.33-2.42.52-3.1,1.71-6.42,8.61-16.9,12.56-22.46,1.74-2.45,4.57-5.4,6.01-7.9.2-.35.37-1.11.57-1.59.15-.36,0-.53.62-.33.66.2.2.86.15,1.11-1.1,5-3.5,8.34-6.14,12.56-3.6,5.77-7.31,11.48-10.64,17.42-.89,1.59-1.69,3.27-2.54,4.89-.12.27-.77.31-.84.24Z" style="fill: inherit;"/><path d="M55.19,186.16c.09-.45-.31-.56-.46-.87-.69-1.44-1.23-3.06-1.97-4.5-2.74-5.27-6.73-9.74-10.4-14.3-2.4-2.99-5.8-6.54-6.71-10.31-.08-.32-.13-.61.24-.72.53-.15,1.24.71,1.56,1.07,3.04,3.37,5.92,7.14,8.75,10.68,3.7,4.63,8.08,9.39,9.7,15.25.12.44-.26.65-.21.9l.68,1.95c-.31.56-.41.98-1.17.84Z" style="fill: inherit;"/><path d="M168.39,216.86c.09-.45-.31-.56-.46-.87-.69-1.44-1.23-3.06-1.97-4.5-2.74-5.27-6.73-9.74-10.4-14.3-2.4-2.99-5.8-6.54-6.71-10.31-.08-.32-.13-.61.24-.72.53-.15,1.24.71,1.56,1.07,3.04,3.37,5.92,7.14,8.75,10.68,3.7,4.63,8.08,9.39,9.7,15.25.12.44-.26.65-.21.9l.68,1.95c-.31.56-.41.98-1.17.84Z" style="fill: inherit;"/><path d="M45.96,101.26c.33-.1.97,0,1.07.35.11.4-.22.63-.25.95-.11,1.11.12,2.29.24,3.37,1.12,10.01.19,20.14.5,30.46-.2.77-.53,2.45-1.21.95-.08-2.72.12-5.45.01-8.17-.01-.27-.24-.43-.26-.7-.34-6.96-.32-13.94-.7-20.88-.02-.27-.25-.44-.26-.7-.04-1.09-.17-3.62.03-4.54.05-.24.6-1.03.83-1.09Z" style="fill: inherit;"/><path d="M56.62,188.32l.73,2.75c.87,4.99.88,11.66.22,16.79-.1.77.22,1.2.26,1.68.04.59.07,1.62,0,2.17-.08.62-.82.82-.96.47-.06-.14-.17-.4-.19-.48-.15-.67-.18-2.15-.3-3.11-.49-3.85-1.35-7-1.2-11.05,0-.27.25-.44.26-.7.07-2.41-.28-5.4-.02-7.69.01-.11.22-.8.25-.83.06-.06.72.03.96,0Z" style="fill: inherit;"/><path d="M169.83,219.02l.73,2.75c.87,4.99.88,11.66.22,16.79-.1.77.22,1.2.26,1.68.04.59.07,1.62,0,2.17-.08.62-.82.82-.96.47-.06-.14-.17-.4-.19-.48-.15-.67-.18-2.15-.3-3.11-.49-3.85-1.35-7-1.2-11.05,0-.27.25-.44.26-.7.07-2.41-.28-5.4-.02-7.69.01-.11.22-.8.25-.83.06-.06.72.03.96,0Z" style="fill: inherit;"/><path d="M68.37,190.72s.24.71.26.82c.2,1.75.09,4.9,0,6.73-.11,2.24-.79,4.58-.98,6.7-.05.57.13,1.43,0,1.91-.18.62-1.09,1.02-1.19-.22-.07-.86.08-1.8,0-2.65-.02-.27-.23-.43-.26-.7-.36-3.58-.33-7.72.27-11.26.06-.36.47-.91.46-1.34.32.08.46-.19.61-.24.04-.01.78.21.81.24Z" style="fill: inherit;"/><path d="M181.58,221.42s.24.71.26.82c.2,1.75.09,4.9,0,6.73-.11,2.24-.79,4.58-.98,6.7-.05.57.13,1.43,0,1.91-.18.62-1.09,1.02-1.19-.22-.09-1.1-.09-2.04-.21-3.15-.4-3.67-.38-7.84.24-11.46.06-.36.47-.91.46-1.34.32.08.46-.19.61-.24.04-.01.78.21.81.24Z" style="fill: inherit;"/><path d="M159.76,148.74c-.06.07-.52,0-.72-.12-.44-.28-.17-1.16-.23-1.69-.54-4.46-1.34-8.93-.96-13.41.08-.95-.37-3.14,1.07-3.01,1.14.1.32,1.27.37,1.53.02.11.18.19.2.3,1.01,4.88.29,10.07.51,15.09-.28.29-.2,1.26-.25,1.31Z" style="fill: inherit;"/><path d="M231.47,119.96c-.58-.92.61-1.58,1.57-1.45.25.04.38.19.5.22.42.09.93.06,1.3.38.06.05.68.93.69.99.11.39.1,3.81,0,4.28-.14.66-1.4,1.66-2.04,1.8-1.3.28-3.28-.28-4.06-1.41-.16-.24-.52-1.09-.57-1.35-.27-1.57.93-3.58,2.61-3.45ZM233.39,124.28s.24-.72.25-.83c.05-.43.07-2.05-.02-2.39-.03-.11-.73-.81-.84-.84-.18-.05-1.03-.05-1.06-.01-.05.05-.18.99-.28,1.28-.17.5-.62.81-.43,1.46.05.16.28.24.35.37.11.19.1.44.13.47s.28.02.47.13c.12.07.2.3.37.35s1.02.05,1.06.02Z" style="fill: inherit;"/><path d="M203.41,167.45l.73,2.51c-.02,3.22-.58,6.27-2.17,9.12l-.59.6c-.8-.76.02-1.74-.11-2.77-.3-2.34.32-4.83.72-7.18.15-.86.16-.91.44-1.72.07-.21,0-.52.04-.56.05-.06.73.03.96,0Z" style="fill: inherit;"/><path d="M90.2,136.75l.73,2.51c-.02,3.22-.58,6.27-2.17,9.12l-.59.6c-.8-.76.02-1.74-.11-2.77-.3-2.34.32-4.83.72-7.18.15-.86.16-.91.44-1.72.07-.21,0-.52.04-.56.05-.06.73.03.96,0Z" style="fill: inherit;"/><path d="M34.57,13.24s.3.01.47-.13c.2-.16.42-.53.62-.59s.44,0,.67-.05c.63-.15.69-.4,1.44.06,1.39.84,1.99,3.12,1.23,4.53-.56,1.05-1.7,1.61-2.89,1.44-.2-.03-1.08-.58-1.2-.72-.28-.33-.79-1.38-.84-1.8-.05-.38-.05-1.31.03-1.66.01-.06.43-1.05.47-1.09ZM36.48,16.59c.28.02.46.04.72-.12.12-.07.93-1.14.95-1.22.05-.18-.62-1.47-.84-1.53-.36-.1-.91.04-1.31,0,.13.5-.35.85-.22,1.3.15.56.6,1.01.7,1.58Z" style="fill: inherit;"/><path d="M216.98,98.64c.77-.17,2.26.29,2.48,1.07.07.26.07,1.87,0,2.13-.24.83-2.25,1.04-2.97.84-.11-.03-1.05-.97-1.08-1.08-.31-1.09.44-2.72,1.57-2.96Z" style="fill: inherit;"/><path d="M202.82,24.99c.42-.14,1.02.92,1.08,1.31.08.61.04,1.76,0,2.42-.02.27-.24.43-.26.7-.05.87.08,1.78,0,2.65-.02.29,0,.74-.36.84-1.17.34-.76-1.42-.83-2.05-.1-.84-.65-1.99-.74-2.62-.15-1.07-.06-2.86,1.1-3.24Z" style="fill: inherit;"/><path d="M201.86,38.43c.25-.07.6-.04.83.11.7.43.41,1.03.47,1.69.02.26.21.39.23.51.04.23-.42,1.94-.47,2.36s.11,1.05,0,1.44c-.04.16-.78.6-.83.6-.04,0-.56-.51-.58-.61-.13-.44.05-1.17,0-1.67-.03-.28-.24-.44-.26-.7-.04-.62-.11-2.66.02-3.11.03-.1.5-.58.59-.6Z" style="fill: inherit;"/><path d="M200.05,34.82c-.11.36.32.56.24.82-.27.9-1.8.54-2.52.6-.91.08-1.8.4-2.88.26-1.35-.18-1.37-1.65-.46-1.91.42-.12,2.07-.06,2.63-.02.27.02.43.24.7.26.74.06,1.54-.06,2.29,0Z" style="fill: inherit;"/><path d="M205.69,36.02c-.64-.17-.32-1.26.26-1.42.2-.06.44,0,.67-.05.69-.16,1.18-.3,1.96-.22.27.03.44.24.7.26.58.04,3.03-.3,2.76.59-.04.13-.35.25-.24.6-.43.02-.86-.03-1.3.02-.15.02-.22.22-.26.22-1.06,0-3.77.21-4.56,0Z" style="fill: inherit;"/><path d="M162.52,190.48c.48-.14,1.43.82,1.68,1.19.27.4.28.88.47,1.21s1.18,1.11,1.31,1.57c.35,1.22-.8,1.79-1.17.93-.06-.13,0-.35-.13-.59-.46-.85-3.05-2.34-2.75-3.45.04-.15.44-.81.59-.85Z" style="fill: inherit;"/><path d="M49.31,159.78c.48-.14,1.43.82,1.68,1.19.27.4.28.88.47,1.21s1.18,1.11,1.31,1.57c.35,1.22-.8,1.79-1.17.93-.06-.13,0-.35-.13-.59-.46-.85-3.05-2.34-2.75-3.45.04-.15.44-.81.59-.85Z" style="fill: inherit;"/><path d="M73.78.05c1.07-.31,1.54.85,1.28,1.76-.41.46-.3,2.39-.81,2.55-.42.13-.49-.35-.6-.6-.27-.63-.15-.91-.23-1.45s-.43-.97-.23-1.66c.03-.1.5-.58.59-.6Z" style="fill: inherit;"/><path d="M68.29,5.57c.72.45,1.69.05,2.35.24.18.05.69.59.61.82-.3.95-1.86.37-2.52.8-.58-.33-2.33-.24-2.04-1.27.16-.56,1.24-.19,1.59-.58Z" style="fill: inherit;"/><path d="M80.13,6.76s.03.92,0,.96c-.03.03-.72.24-.83.25-.7.08-3.27.12-3.49-.61-.2-.65,1.17-.89,1.56-1.03.56.38,1.29.11,1.93.18.11.01.8.22.83.25Z" style="fill: inherit;"/><path d="M46.56,2.69s.89-.29,1.06-.24c.28.08,1.18,1.24,1.08,1.53-.05.16-.44.81-.6.85-.51.15-1.65-.39-1.78-.84-.07-.24.14-1.21.24-1.3Z" style="fill: inherit;"/><path d="M74.37,11.55s-.48-.06-.6.24c-.42-.01-.56-1.83-.63-2.25-.02-.11-.19-.23-.22-.5-.09-.79.61-1.12,1.21-.73.12.08.44.85.47.99.05.23-.22.4-.24.68-.02.33.07,1.49,0,1.57Z" style="fill: inherit;"/><path d="M11.77,43.69c-1.35.13-1.01-.24-1.19-1.09-.08-.35-.29-.51-.25-.95.08-.98,1.49-.64,1.68.02.07.23-.25.42-.25.7,0,.24.21.39.21.48,0,.1-.34.49-.19.84Z" style="fill: inherit;"/><path d="M11.78,49.21c-.24.24-1.09-.28-1.18-.61-.1-.37-.11-1.65.35-1.78.97-.28.79.81.83,1.32.02.2.13.32.14.36,0,.16-.1.69-.13.71Z" style="fill: inherit;"/><path d="M9.62,45.13c.09.08-.2,1.15-.24,1.2-.07.07-1.78.13-1.92-.36-.11-.37.8-.98,1.1-1.06.18-.05,1.02.19,1.06.23Z" style="fill: inherit;"/><path d="M12.5,46.33s-.04-.69,0-.84c.14-.52,1.74-.54,1.91,0,.2.64-1.69,1.07-1.92.84Z" style="fill: inherit;"/></g></svg>